{"glyphs":{"0":{"ha":833,"x_min":56,"x_max":778,"o":"m 303 158 l 192 172 l 531 828 l 642 814 l 303 158 z m 417 -22 l 417 -22 q 222 40 303 -22 q 99 217 142 101 q 56 492 56 332 l 56 492 q 99 767 56 651 q 222 946 142 883 q 417 1008 303 1008 l 417 1008 q 611 946 531 1008 q 735 767 692 883 q 778 492 778 651 l 778 492 q 735 217 778 332 q 611 40 692 101 q 417 -22 531 -22 z m 417 192 l 417 192 q 474 222 451 192 q 510 318 497 251 q 522 492 522 385 l 522 492 q 510 667 522 600 q 474 764 497 733 q 417 794 451 794 l 417 794 q 360 764 383 794 q 324 667 336 733 q 311 492 311 600 l 311 492 q 324 318 311 385 q 360 222 336 251 q 417 192 383 192 z "},"1":{"ha":833,"x_min":56,"x_max":778,"o":"m 569 0 l 319 0 l 319 592 l 89 592 l 89 797 l 181 797 q 276 815 239 797 q 330 875 313 833 q 347 986 347 917 l 347 986 l 569 986 l 569 0 z m 778 0 l 56 0 l 56 219 l 778 219 l 778 0 z "},"2":{"ha":833,"x_min":56,"x_max":778,"o":"m 778 0 l 56 0 q 86 226 56 131 q 192 395 117 321 q 397 536 267 469 l 397 536 q 464 576 436 556 q 507 625 492 597 q 522 694 522 653 l 522 694 q 512 749 522 726 q 481 783 501 771 q 431 794 461 794 l 431 794 q 351 760 375 794 q 317 661 328 726 l 317 661 l 58 675 q 166 919 72 831 q 436 1008 260 1008 l 436 1008 q 628 972 553 1008 q 741 868 704 935 q 778 711 778 801 l 778 711 q 753 571 778 629 q 672 465 728 513 q 522 364 617 417 l 522 364 q 409 297 449 324 q 353 253 369 271 q 335 219 338 236 l 335 219 l 778 219 l 778 0 z "},"3":{"ha":833,"x_min":56,"x_max":778,"o":"m 411 -22 l 411 -22 q 149 60 235 -22 q 56 283 64 142 l 56 283 l 306 294 q 344 214 313 236 q 417 192 375 192 l 417 192 q 474 204 450 192 q 510 242 497 217 q 522 303 522 267 l 522 303 q 509 364 522 339 q 468 403 496 389 q 397 417 440 417 l 397 417 l 325 417 l 325 600 l 397 600 q 449 610 428 600 q 483 642 471 621 q 494 697 494 664 l 494 697 q 471 774 494 750 q 411 797 447 797 l 411 797 q 343 772 365 797 q 317 706 321 747 l 317 706 l 67 717 q 169 931 82 853 q 414 1008 256 1008 l 414 1008 q 594 977 518 1008 q 710 885 669 946 q 750 736 750 824 l 750 736 q 694 584 750 640 q 535 511 638 528 l 535 511 l 535 539 q 715 457 653 525 q 778 281 778 389 l 778 281 q 735 119 778 188 q 610 15 692 51 q 411 -22 528 -22 z "},"4":{"ha":833,"x_min":28,"x_max":806,"o":"m 690 0 l 440 0 l 440 186 l 28 186 l 28 385 l 400 986 l 690 986 l 690 394 l 806 394 l 806 186 l 690 186 l 690 0 z m 440 683 l 256 394 l 440 394 l 440 683 z "},"5":{"ha":833,"x_min":56,"x_max":778,"o":"m 417 -22 l 417 -22 q 228 17 307 -22 q 106 123 150 57 q 56 269 63 189 l 56 269 l 311 283 q 343 215 319 238 q 417 192 367 192 l 417 192 q 494 224 467 192 q 522 328 522 257 l 522 328 q 508 405 522 374 q 471 451 494 436 q 417 467 447 467 l 417 467 q 355 446 379 467 q 322 397 331 425 l 322 397 l 67 414 l 122 986 l 742 986 l 742 767 l 319 767 l 292 518 l 236 536 q 292 601 260 574 q 367 644 325 629 q 461 658 410 658 l 461 658 q 632 615 561 658 q 740 497 703 572 q 778 326 778 422 l 778 326 q 734 144 778 222 q 609 22 690 65 q 417 -22 528 -22 z "},"6":{"ha":833,"x_min":42,"x_max":792,"o":"m 419 -22 l 419 -22 q 210 31 294 -22 q 84 187 126 85 q 42 432 42 289 l 42 432 q 65 660 42 556 q 139 844 89 765 q 267 965 189 922 q 453 1008 344 1008 l 453 1008 q 624 974 557 1008 q 730 883 692 940 q 785 753 768 825 l 785 753 l 535 736 q 511 777 529 760 q 453 794 493 794 l 453 794 q 369 766 406 794 q 313 670 333 738 q 292 486 292 603 l 292 486 l 206 492 q 253 574 221 533 q 339 640 285 614 q 472 667 393 667 l 472 667 q 642 626 571 667 q 753 511 714 585 q 792 339 792 438 l 792 339 q 746 148 792 229 q 617 22 700 67 q 419 -22 533 -22 z m 411 197 l 411 197 q 506 230 476 197 q 536 328 536 263 l 536 328 q 509 425 536 389 q 417 461 482 461 l 417 461 q 348 444 376 461 q 306 396 319 426 q 292 325 292 365 l 292 325 q 305 263 292 292 q 345 215 318 233 q 411 197 372 197 z "},"7":{"ha":833,"x_min":69,"x_max":764,"o":"m 469 0 l 208 0 q 247 279 208 147 q 355 533 285 411 q 522 767 425 654 l 522 767 l 69 767 l 69 986 l 764 986 l 764 778 q 628 602 685 688 q 537 426 572 517 q 485 232 501 336 q 469 0 469 128 l 469 0 z "},"8":{"ha":833,"x_min":42,"x_max":792,"o":"m 417 -22 l 417 -22 q 216 10 300 -22 q 87 108 132 43 q 42 268 42 174 l 42 268 q 110 451 42 379 q 294 542 179 522 l 294 542 l 297 514 q 140 590 203 533 q 78 736 78 647 l 78 736 q 119 878 78 817 q 237 974 161 939 q 417 1008 313 1008 l 417 1008 q 597 974 521 1008 q 715 878 674 939 q 756 736 756 817 l 756 736 q 694 590 756 647 q 536 514 632 533 l 536 514 l 539 542 q 723 450 654 521 q 792 268 792 379 l 792 268 q 747 108 792 174 q 617 10 701 43 q 417 -22 533 -22 z m 417 192 l 417 192 q 499 215 463 192 q 536 297 536 238 l 536 297 q 503 388 536 356 q 417 421 469 421 l 417 421 q 331 388 364 421 q 297 297 297 356 l 297 297 q 334 215 297 238 q 417 192 371 192 z m 417 628 l 417 628 q 476 649 453 628 q 500 714 500 669 l 500 714 q 476 774 500 754 q 417 794 453 794 l 417 794 q 357 774 381 794 q 333 714 333 754 l 333 714 q 357 649 333 669 q 417 628 381 628 z "},"9":{"ha":833,"x_min":42,"x_max":792,"o":"m 414 1008 l 414 1008 q 624 955 540 1008 q 749 800 707 901 q 792 554 792 699 l 792 554 q 768 326 792 431 q 694 142 744 221 q 567 21 644 64 q 381 -22 489 -22 l 381 -22 q 209 12 276 -22 q 103 103 142 46 q 49 233 65 161 l 49 233 l 299 250 q 324 210 306 228 q 381 192 342 192 l 381 192 q 464 220 428 192 q 521 316 500 249 q 542 500 542 383 l 542 500 l 628 494 q 581 413 614 453 q 494 346 549 372 q 361 319 440 319 l 361 319 q 192 360 264 319 q 81 476 119 401 q 42 647 42 550 l 42 647 q 88 839 42 758 q 217 964 133 919 q 414 1008 300 1008 z m 422 789 l 422 789 q 328 756 358 789 q 297 658 297 724 l 297 658 q 325 562 297 599 q 417 525 353 525 l 417 525 q 486 542 458 525 q 528 590 514 560 q 542 661 542 621 l 542 661 q 528 724 542 694 q 489 771 515 753 q 422 789 463 789 z "},"A":{"ha":833,"x_min":19,"x_max":814,"o":"m 267 0 l 19 0 l 269 986 l 564 986 l 814 0 l 567 0 l 417 661 l 267 0 z m 611 163 l 222 163 l 278 372 l 556 372 l 611 163 z "},"Á":{"ha":833,"x_min":19,"x_max":814,"o":"m 267 0 l 19 0 l 269 986 l 564 986 l 814 0 l 567 0 l 417 661 l 267 0 z m 611 163 l 222 163 l 278 372 l 556 372 l 611 163 z m 521 1051 l 313 1051 l 396 1274 l 646 1274 l 521 1051 z "},"Ă":{"ha":833,"x_min":19,"x_max":814,"o":"m 267 0 l 19 0 l 269 986 l 564 986 l 814 0 l 567 0 l 417 661 l 267 0 z m 611 163 l 222 163 l 278 372 l 556 372 l 611 163 z m 417 1047 l 417 1047 q 260 1108 321 1047 q 194 1269 199 1168 l 194 1269 l 331 1269 q 359 1199 335 1218 q 417 1181 383 1181 l 417 1181 q 474 1199 450 1181 q 503 1269 499 1218 l 503 1269 l 639 1269 q 574 1108 635 1168 q 417 1047 513 1047 z "},"Ắ":{"ha":833,"x_min":19,"x_max":814,"o":"m 267 0 l 19 0 l 269 986 l 564 986 l 814 0 l 567 0 l 417 661 l 267 0 z m 611 163 l 222 163 l 278 372 l 556 372 l 611 163 z m 504 1289 l 329 1289 l 410 1483 l 626 1483 l 504 1289 z m 417 1039 l 417 1039 q 260 1099 321 1039 q 194 1261 199 1160 l 194 1261 l 331 1261 q 359 1191 335 1210 q 417 1172 383 1172 l 417 1172 q 474 1191 450 1172 q 503 1261 499 1210 l 503 1261 l 639 1261 q 574 1099 635 1160 q 417 1039 513 1039 z "},"Ặ":{"ha":833,"x_min":19,"x_max":814,"o":"m 267 0 l 19 0 l 269 986 l 564 986 l 814 0 l 567 0 l 417 661 l 267 0 z m 611 163 l 222 163 l 278 372 l 556 372 l 611 163 z m 525 -222 l 308 -222 l 308 -53 l 525 -53 l 525 -222 z m 417 1047 l 417 1047 q 260 1108 321 1047 q 194 1269 199 1168 l 194 1269 l 331 1269 q 359 1199 335 1218 q 417 1181 383 1181 l 417 1181 q 474 1199 450 1181 q 503 1269 499 1218 l 503 1269 l 639 1269 q 574 1108 635 1168 q 417 1047 513 1047 z "},"Ằ":{"ha":833,"x_min":19,"x_max":814,"o":"m 267 0 l 19 0 l 269 986 l 564 986 l 814 0 l 567 0 l 417 661 l 267 0 z m 611 163 l 222 163 l 278 372 l 556 372 l 611 163 z m 504 1289 l 329 1289 l 207 1483 l 424 1483 l 504 1289 z m 417 1039 l 417 1039 q 260 1099 321 1039 q 194 1261 199 1160 l 194 1261 l 331 1261 q 359 1191 335 1210 q 417 1172 383 1172 l 417 1172 q 474 1191 450 1172 q 503 1261 499 1210 l 503 1261 l 639 1261 q 574 1099 635 1160 q 417 1039 513 1039 z "},"Ẳ":{"ha":833,"x_min":19,"x_max":814,"o":"m 267 0 l 19 0 l 269 986 l 564 986 l 814 0 l 567 0 l 417 661 l 267 0 z m 611 163 l 222 163 l 278 372 l 556 372 l 611 163 z m 417 1047 l 417 1047 q 260 1108 321 1047 q 194 1269 199 1168 l 194 1269 l 331 1269 q 359 1199 335 1218 q 417 1181 383 1181 l 417 1181 q 474 1199 450 1181 q 503 1269 499 1218 l 503 1269 l 639 1269 q 574 1108 635 1168 q 417 1047 513 1047 z m 483 1267 l 483 1267 l 346 1267 q 379 1313 368 1293 q 390 1353 390 1333 l 390 1353 q 381 1374 390 1367 q 350 1382 372 1382 l 350 1382 q 323 1380 338 1382 q 297 1375 308 1378 l 297 1375 l 297 1482 q 332 1487 307 1483 q 393 1490 357 1490 l 393 1490 q 500 1462 469 1490 q 531 1382 531 1433 l 531 1382 q 514 1312 531 1340 q 483 1267 497 1283 z "},"Ẵ":{"ha":833,"x_min":19,"x_max":814,"o":"m 267 0 l 19 0 l 269 986 l 564 986 l 814 0 l 567 0 l 417 661 l 267 0 z m 611 163 l 222 163 l 278 372 l 556 372 l 611 163 z m 492 1313 l 492 1313 q 436 1320 461 1313 q 385 1350 411 1328 l 385 1350 q 366 1361 375 1357 q 347 1365 357 1365 l 347 1365 q 320 1353 333 1365 q 304 1306 307 1340 l 304 1306 l 185 1306 q 224 1449 185 1394 q 336 1504 263 1504 l 336 1504 q 394 1497 365 1504 q 449 1468 422 1489 l 449 1468 q 469 1454 461 1458 q 488 1450 478 1450 l 488 1450 q 516 1462 503 1450 q 531 1511 529 1474 l 531 1511 l 650 1511 q 610 1366 650 1419 q 492 1313 569 1313 z m 418 1039 l 418 1039 q 261 1099 322 1039 q 196 1261 200 1160 l 196 1261 l 332 1261 q 360 1191 336 1210 q 418 1172 385 1172 l 418 1172 q 476 1191 451 1172 q 504 1261 500 1210 l 504 1261 l 640 1261 q 575 1099 636 1160 q 418 1039 514 1039 z "},"Ǎ":{"ha":833,"x_min":19,"x_max":814,"o":"m 267 0 l 19 0 l 269 986 l 564 986 l 814 0 l 567 0 l 417 661 l 267 0 z m 611 163 l 222 163 l 278 372 l 556 372 l 611 163 z m 319 1051 l 181 1282 l 344 1282 l 436 1133 l 397 1133 l 489 1282 l 653 1282 l 514 1051 l 319 1051 z "},"Â":{"ha":833,"x_min":19,"x_max":814,"o":"m 267 0 l 19 0 l 269 986 l 564 986 l 814 0 l 567 0 l 417 661 l 267 0 z m 611 163 l 222 163 l 278 372 l 556 372 l 611 163 z m 344 1051 l 181 1051 l 319 1282 l 514 1282 l 653 1051 l 489 1051 l 397 1200 l 436 1200 l 344 1051 z "},"Ấ":{"ha":833,"x_min":19,"x_max":885,"o":"m 267 0 l 19 0 l 269 986 l 564 986 l 814 0 l 567 0 l 417 661 l 267 0 z m 611 163 l 222 163 l 278 372 l 556 372 l 611 163 z m 338 1038 l 160 1038 l 299 1254 l 535 1254 l 674 1038 l 496 1038 l 388 1186 l 446 1186 l 338 1038 z m 768 1189 l 593 1189 l 668 1411 l 885 1411 l 768 1189 z "},"Ậ":{"ha":833,"x_min":19,"x_max":814,"o":"m 267 0 l 19 0 l 269 986 l 564 986 l 814 0 l 567 0 l 417 661 l 267 0 z m 611 163 l 222 163 l 278 372 l 556 372 l 611 163 z m 525 -222 l 308 -222 l 308 -53 l 525 -53 l 525 -222 z m 344 1051 l 181 1051 l 319 1282 l 514 1282 l 653 1051 l 489 1051 l 397 1200 l 436 1200 l 344 1051 z "},"Ầ":{"ha":833,"x_min":19,"x_max":843,"o":"m 267 0 l 19 0 l 269 986 l 564 986 l 814 0 l 567 0 l 417 661 l 267 0 z m 611 163 l 222 163 l 278 372 l 556 372 l 611 163 z m 338 1038 l 160 1038 l 299 1254 l 535 1254 l 674 1038 l 496 1038 l 388 1186 l 446 1186 l 338 1038 z m 843 1189 l 668 1189 l 551 1411 l 768 1411 l 843 1189 z "},"Ẩ":{"ha":833,"x_min":19,"x_max":814,"o":"m 267 0 l 19 0 l 269 986 l 564 986 l 814 0 l 567 0 l 417 661 l 267 0 z m 611 163 l 222 163 l 278 372 l 556 372 l 611 163 z m 338 1038 l 160 1038 l 299 1254 l 535 1254 l 674 1038 l 496 1038 l 388 1186 l 446 1186 l 338 1038 z m 738 1189 l 599 1189 q 630 1242 621 1218 q 639 1285 639 1265 l 639 1285 q 629 1308 639 1300 q 596 1317 619 1317 l 596 1317 q 567 1315 582 1317 q 540 1308 553 1313 l 540 1308 l 540 1424 q 581 1428 553 1426 q 643 1431 608 1431 l 643 1431 q 756 1403 725 1431 q 788 1321 788 1375 l 788 1321 q 770 1243 788 1278 q 738 1189 753 1208 l 738 1189 z "},"Ẫ":{"ha":833,"x_min":19,"x_max":814,"o":"m 267 0 l 19 0 l 269 986 l 564 986 l 814 0 l 567 0 l 417 661 l 267 0 z m 611 163 l 222 163 l 278 372 l 556 372 l 611 163 z m 332 1038 l 154 1038 l 299 1249 l 535 1249 l 679 1038 l 501 1038 l 388 1183 l 446 1183 l 332 1038 z m 492 1299 l 492 1299 q 436 1306 461 1299 q 385 1336 411 1314 l 385 1336 q 366 1347 375 1343 q 347 1351 357 1351 l 347 1351 q 320 1339 333 1351 q 304 1292 307 1326 l 304 1292 l 185 1292 q 224 1435 185 1381 q 340 1490 264 1490 l 340 1490 q 398 1483 372 1490 q 449 1454 424 1475 l 449 1454 q 469 1440 461 1444 q 488 1436 478 1436 l 488 1436 q 516 1448 503 1436 q 531 1497 529 1460 l 531 1497 l 650 1497 q 610 1352 650 1406 q 492 1299 569 1299 z "},"Ä":{"ha":833,"x_min":19,"x_max":814,"o":"m 267 0 l 19 0 l 269 986 l 564 986 l 814 0 l 567 0 l 417 661 l 267 0 z m 611 163 l 222 163 l 278 372 l 556 372 l 611 163 z m 374 1061 l 124 1061 l 124 1250 l 374 1250 l 374 1061 z m 710 1061 l 460 1061 l 460 1250 l 710 1250 l 710 1061 z "},"Ạ":{"ha":833,"x_min":19,"x_max":814,"o":"m 267 0 l 19 0 l 269 986 l 564 986 l 814 0 l 567 0 l 417 661 l 267 0 z m 611 163 l 222 163 l 278 372 l 556 372 l 611 163 z m 525 -222 l 308 -222 l 308 -53 l 525 -53 l 525 -222 z "},"À":{"ha":833,"x_min":19,"x_max":814,"o":"m 267 0 l 19 0 l 269 986 l 564 986 l 814 0 l 567 0 l 417 661 l 267 0 z m 611 163 l 222 163 l 278 372 l 556 372 l 611 163 z m 528 1050 l 319 1050 l 194 1272 l 444 1272 l 528 1050 z "},"Ả":{"ha":833,"x_min":19,"x_max":814,"o":"m 267 0 l 19 0 l 269 986 l 564 986 l 814 0 l 567 0 l 417 661 l 267 0 z m 611 163 l 222 163 l 278 372 l 556 372 l 611 163 z m 492 1051 l 492 1051 l 339 1051 q 376 1103 364 1081 q 389 1146 389 1125 l 389 1146 q 379 1171 389 1163 q 344 1179 369 1179 l 344 1179 q 315 1177 331 1179 q 286 1171 299 1175 l 286 1171 l 286 1290 q 325 1296 297 1293 q 392 1299 353 1299 l 392 1299 q 511 1267 478 1299 q 544 1179 544 1236 l 544 1179 q 526 1102 544 1133 q 492 1051 508 1071 z "},"Ā":{"ha":833,"x_min":19,"x_max":814,"o":"m 267 0 l 19 0 l 269 986 l 564 986 l 814 0 l 567 0 l 417 661 l 267 0 z m 611 163 l 222 163 l 278 372 l 556 372 l 611 163 z m 625 1067 l 208 1067 l 208 1233 l 625 1233 l 625 1067 z "},"Ą":{"ha":833,"x_min":19,"x_max":864,"o":"m 267 0 l 19 0 l 269 986 l 564 986 l 814 0 l 567 0 l 417 661 l 267 0 z m 611 163 l 222 163 l 278 372 l 556 372 l 611 163 z m 694 -308 l 694 -308 q 581 -272 622 -308 q 539 -178 539 -235 l 539 -178 q 555 -104 539 -137 q 597 -36 571 -71 l 597 -36 l 647 28 l 814 0 l 772 -54 q 740 -101 750 -83 q 731 -133 731 -118 l 731 -133 q 741 -156 731 -147 q 767 -164 751 -164 l 767 -164 q 800 -157 783 -164 q 826 -143 817 -150 l 826 -143 l 864 -264 q 795 -294 842 -279 q 694 -308 749 -308 z "},"Å":{"ha":833,"x_min":19,"x_max":814,"o":"m 267 0 l 19 0 l 269 986 l 564 986 l 814 0 l 567 0 l 417 661 l 267 0 z m 611 163 l 222 163 l 278 372 l 556 372 l 611 163 z m 415 1033 l 415 1033 q 304 1076 349 1033 q 260 1183 260 1119 l 260 1183 q 304 1291 260 1249 q 415 1333 349 1333 l 415 1333 q 526 1291 482 1333 q 571 1183 571 1249 l 571 1183 q 526 1076 571 1119 q 415 1033 482 1033 z m 415 1128 l 415 1128 q 454 1143 440 1128 q 468 1183 468 1158 l 468 1183 q 454 1224 468 1208 q 415 1239 440 1239 l 415 1239 q 376 1224 390 1239 q 363 1183 363 1208 l 363 1183 q 376 1143 363 1158 q 415 1128 390 1128 z "},"Ã":{"ha":833,"x_min":19,"x_max":814,"o":"m 267 0 l 19 0 l 269 986 l 564 986 l 814 0 l 567 0 l 417 661 l 267 0 z m 611 163 l 222 163 l 278 372 l 556 372 l 611 163 z m 503 1061 l 503 1061 q 445 1072 469 1061 q 394 1103 421 1083 l 394 1103 q 364 1122 378 1115 q 336 1128 350 1128 l 336 1128 q 305 1111 318 1128 q 289 1053 292 1094 l 289 1053 l 181 1053 q 220 1218 183 1169 q 325 1267 257 1267 l 325 1267 q 388 1256 361 1267 q 442 1224 414 1244 l 442 1224 q 472 1206 458 1211 q 497 1200 486 1200 l 497 1200 q 529 1217 517 1200 q 544 1278 542 1235 l 544 1278 l 653 1278 q 613 1111 651 1161 q 503 1061 575 1061 z "},"Æ":{"ha":833,"x_min":6,"x_max":819,"o":"m 264 0 l 6 0 l 204 986 l 813 986 l 813 767 l 654 767 l 654 601 l 803 601 l 803 388 l 654 388 l 654 219 l 819 219 l 819 0 l 421 0 l 421 769 l 407 769 l 264 0 z m 483 164 l 250 164 l 299 372 l 483 372 l 483 164 z "},"B":{"ha":833,"x_min":75,"x_max":786,"o":"m 422 0 l 75 0 l 75 986 l 394 986 q 653 922 561 986 q 744 725 744 858 l 744 725 q 721 619 744 665 q 643 542 697 572 q 497 503 589 513 l 497 503 l 497 514 q 666 476 603 508 q 758 389 729 443 q 786 267 786 335 l 786 267 q 694 65 786 129 q 422 0 601 0 l 422 0 z m 325 396 l 325 214 l 422 215 q 503 240 475 217 q 531 303 531 263 l 531 303 q 503 372 531 347 q 422 396 475 396 l 422 396 l 325 396 z m 325 772 l 325 601 l 389 601 q 463 624 438 601 q 489 689 489 647 l 489 689 q 463 751 489 729 q 389 772 438 772 l 389 772 l 325 772 z "},"C":{"ha":833,"x_min":39,"x_max":789,"o":"m 425 -22 l 425 -22 q 217 40 303 -22 q 85 217 131 101 q 39 492 39 332 l 39 492 q 85 767 39 651 q 217 946 131 883 q 425 1008 303 1008 l 425 1008 q 672 907 578 1008 q 789 615 767 806 l 789 615 l 538 606 q 499 745 528 696 q 425 794 469 794 l 425 794 q 354 759 383 794 q 310 656 325 724 q 294 492 294 589 l 294 492 q 310 328 294 396 q 354 226 325 261 q 425 192 383 192 l 425 192 q 497 243 465 192 q 538 389 528 294 l 538 389 l 789 379 q 672 82 767 186 q 425 -22 578 -22 z "},"Ć":{"ha":833,"x_min":39,"x_max":789,"o":"m 425 -22 l 425 -22 q 217 40 303 -22 q 85 217 131 101 q 39 492 39 332 l 39 492 q 85 767 39 651 q 217 946 131 883 q 425 1008 303 1008 l 425 1008 q 672 907 578 1008 q 789 615 767 806 l 789 615 l 538 606 q 499 745 528 696 q 425 794 469 794 l 425 794 q 354 759 383 794 q 310 656 325 724 q 294 492 294 589 l 294 492 q 310 328 294 396 q 354 226 325 261 q 425 192 383 192 l 425 192 q 497 243 465 192 q 538 389 528 294 l 538 389 l 789 379 q 672 82 767 186 q 425 -22 578 -22 z m 529 1051 l 321 1051 l 404 1274 l 654 1274 l 529 1051 z "},"Č":{"ha":833,"x_min":39,"x_max":789,"o":"m 425 -22 l 425 -22 q 217 40 303 -22 q 85 217 131 101 q 39 492 39 332 l 39 492 q 85 767 39 651 q 217 946 131 883 q 425 1008 303 1008 l 425 1008 q 672 907 578 1008 q 789 615 767 806 l 789 615 l 538 606 q 499 745 528 696 q 425 794 469 794 l 425 794 q 354 759 383 794 q 310 656 325 724 q 294 492 294 589 l 294 492 q 310 328 294 396 q 354 226 325 261 q 425 192 383 192 l 425 192 q 497 243 465 192 q 538 389 528 294 l 538 389 l 789 379 q 672 82 767 186 q 425 -22 578 -22 z m 328 1051 l 189 1282 l 353 1282 l 444 1133 l 406 1133 l 497 1282 l 661 1282 l 522 1051 l 328 1051 z "},"Ç":{"ha":833,"x_min":39,"x_max":789,"o":"m 425 -22 l 425 -22 q 217 40 303 -22 q 85 217 131 101 q 39 492 39 332 l 39 492 q 85 767 39 651 q 217 946 131 883 q 425 1008 303 1008 l 425 1008 q 672 907 578 1008 q 789 615 767 806 l 789 615 l 538 606 q 499 745 528 696 q 425 794 469 794 l 425 794 q 354 759 383 794 q 310 656 325 724 q 294 492 294 589 l 294 492 q 310 328 294 396 q 354 226 325 261 q 425 192 383 192 l 425 192 q 497 243 465 192 q 538 389 528 294 l 538 389 l 789 379 q 672 82 767 186 q 425 -22 578 -22 z m 432 -333 l 432 -333 q 312 -301 360 -333 q 243 -214 264 -268 l 243 -214 l 349 -167 q 378 -203 360 -190 q 426 -217 396 -217 l 426 -217 q 471 -204 454 -217 q 488 -169 488 -192 l 488 -169 q 472 -133 488 -146 q 407 -119 456 -119 l 407 -119 l 339 -58 l 379 14 l 519 14 l 488 -39 q 590 -86 558 -47 q 621 -175 621 -125 l 621 -175 q 594 -267 621 -232 q 526 -317 568 -301 q 432 -333 483 -333 z "},"Ĉ":{"ha":833,"x_min":39,"x_max":789,"o":"m 425 -22 l 425 -22 q 217 40 303 -22 q 85 217 131 101 q 39 492 39 332 l 39 492 q 85 767 39 651 q 217 946 131 883 q 425 1008 303 1008 l 425 1008 q 672 907 578 1008 q 789 615 767 806 l 789 615 l 538 606 q 499 745 528 696 q 425 794 469 794 l 425 794 q 354 759 383 794 q 310 656 325 724 q 294 492 294 589 l 294 492 q 310 328 294 396 q 354 226 325 261 q 425 192 383 192 l 425 192 q 497 243 465 192 q 538 389 528 294 l 538 389 l 789 379 q 672 82 767 186 q 425 -22 578 -22 z m 353 1051 l 189 1051 l 328 1282 l 522 1282 l 661 1051 l 497 1051 l 406 1200 l 444 1200 l 353 1051 z "},"Ċ":{"ha":833,"x_min":39,"x_max":789,"o":"m 425 -22 l 425 -22 q 217 40 303 -22 q 85 217 131 101 q 39 492 39 332 l 39 492 q 85 767 39 651 q 217 946 131 883 q 425 1008 303 1008 l 425 1008 q 672 907 578 1008 q 789 615 767 806 l 789 615 l 538 606 q 499 745 528 696 q 425 794 469 794 l 425 794 q 354 759 383 794 q 310 656 325 724 q 294 492 294 589 l 294 492 q 310 328 294 396 q 354 226 325 261 q 425 192 383 192 l 425 192 q 497 243 465 192 q 538 389 528 294 l 538 389 l 789 379 q 672 82 767 186 q 425 -22 578 -22 z m 543 1061 l 307 1061 l 307 1244 l 543 1244 l 543 1061 z "},"D":{"ha":833,"x_min":75,"x_max":794,"o":"m 342 0 l 75 0 l 75 986 l 342 986 q 588 929 488 986 q 742 762 689 872 q 794 493 794 651 l 794 493 q 742 225 794 335 q 588 58 689 115 q 342 0 488 0 l 342 0 z m 325 767 l 325 219 l 350 219 q 492 288 444 219 q 539 493 539 356 l 539 493 q 492 699 539 631 q 350 767 444 767 l 350 767 l 325 767 z "},"Ď":{"ha":833,"x_min":75,"x_max":794,"o":"m 342 0 l 75 0 l 75 986 l 342 986 q 588 929 488 986 q 742 762 689 872 q 794 493 794 651 l 794 493 q 742 225 794 335 q 588 58 689 115 q 342 0 488 0 l 342 0 z m 325 767 l 325 219 l 350 219 q 492 288 444 219 q 539 493 539 356 l 539 493 q 492 699 539 631 q 350 767 444 767 l 350 767 l 325 767 z m 319 1051 l 181 1282 l 344 1282 l 436 1133 l 397 1133 l 489 1282 l 653 1282 l 514 1051 l 319 1051 z "},"Đ":{"ha":833,"x_min":0,"x_max":794,"o":"m 342 0 l 75 0 l 75 986 l 342 986 q 588 929 488 986 q 742 762 689 872 q 794 493 794 651 l 794 493 q 742 225 794 335 q 588 58 689 115 q 342 0 488 0 l 342 0 z m 325 767 l 325 219 l 350 219 q 492 288 444 219 q 539 493 539 356 l 539 493 q 492 699 539 631 q 350 767 444 767 l 350 767 l 325 767 z m 500 396 l 0 396 l 0 590 l 500 590 l 500 396 z "},"Ð":{"ha":833,"x_min":0,"x_max":794,"o":"m 342 0 l 75 0 l 75 986 l 342 986 q 588 929 488 986 q 742 762 689 872 q 794 493 794 651 l 794 493 q 742 225 794 335 q 588 58 689 115 q 342 0 488 0 l 342 0 z m 325 767 l 325 219 l 350 219 q 492 288 444 219 q 539 493 539 356 l 539 493 q 492 699 539 631 q 350 767 444 767 l 350 767 l 325 767 z m 500 396 l 0 396 l 0 590 l 500 590 l 500 396 z "},"E":{"ha":833,"x_min":111,"x_max":750,"o":"m 750 0 l 111 0 l 111 986 l 739 986 l 739 767 l 361 767 l 361 601 l 722 601 l 722 388 l 361 388 l 361 219 l 750 219 l 750 0 z "},"É":{"ha":833,"x_min":111,"x_max":750,"o":"m 750 0 l 111 0 l 111 986 l 739 986 l 739 767 l 361 767 l 361 601 l 722 601 l 722 388 l 361 388 l 361 219 l 750 219 l 750 0 z m 532 1053 l 324 1053 l 407 1275 l 657 1275 l 532 1053 z "},"Ě":{"ha":833,"x_min":111,"x_max":750,"o":"m 750 0 l 111 0 l 111 986 l 739 986 l 739 767 l 361 767 l 361 601 l 722 601 l 722 388 l 361 388 l 361 219 l 750 219 l 750 0 z m 331 1053 l 192 1283 l 356 1283 l 447 1135 l 408 1135 l 500 1283 l 664 1283 l 525 1053 l 331 1053 z "},"Ê":{"ha":833,"x_min":111,"x_max":750,"o":"m 750 0 l 111 0 l 111 986 l 739 986 l 739 767 l 361 767 l 361 601 l 722 601 l 722 388 l 361 388 l 361 219 l 750 219 l 750 0 z m 356 1053 l 192 1053 l 331 1283 l 525 1283 l 664 1053 l 500 1053 l 408 1201 l 447 1201 l 356 1053 z "},"Ế":{"ha":833,"x_min":111,"x_max":896,"o":"m 750 0 l 111 0 l 111 986 l 739 986 l 739 767 l 361 767 l 361 601 l 722 601 l 722 388 l 361 388 l 361 219 l 750 219 l 750 0 z m 349 1039 l 171 1039 l 310 1256 l 546 1256 l 685 1039 l 507 1039 l 399 1188 l 457 1188 l 349 1039 z m 779 1190 l 604 1190 l 679 1413 l 896 1413 l 779 1190 z "},"Ệ":{"ha":833,"x_min":111,"x_max":750,"o":"m 750 0 l 111 0 l 111 986 l 739 986 l 739 767 l 361 767 l 361 601 l 722 601 l 722 388 l 361 388 l 361 219 l 750 219 l 750 0 z m 536 -222 l 319 -222 l 319 -53 l 536 -53 l 536 -222 z m 356 1053 l 192 1053 l 331 1283 l 525 1283 l 664 1053 l 500 1053 l 408 1201 l 447 1201 l 356 1053 z "},"Ề":{"ha":833,"x_min":111,"x_max":854,"o":"m 750 0 l 111 0 l 111 986 l 739 986 l 739 767 l 361 767 l 361 601 l 722 601 l 722 388 l 361 388 l 361 219 l 750 219 l 750 0 z m 349 1039 l 171 1039 l 310 1256 l 546 1256 l 685 1039 l 507 1039 l 399 1188 l 457 1188 l 349 1039 z m 854 1190 l 679 1190 l 563 1413 l 779 1413 l 854 1190 z "},"Ể":{"ha":833,"x_min":111,"x_max":799,"o":"m 750 0 l 111 0 l 111 986 l 739 986 l 739 767 l 361 767 l 361 601 l 722 601 l 722 388 l 361 388 l 361 219 l 750 219 l 750 0 z m 349 1039 l 171 1039 l 310 1256 l 546 1256 l 685 1039 l 507 1039 l 399 1188 l 457 1188 l 349 1039 z m 749 1190 l 610 1190 q 641 1243 632 1219 q 650 1286 650 1267 l 650 1286 q 640 1310 650 1301 q 607 1318 631 1318 l 607 1318 q 578 1316 593 1318 q 551 1310 564 1314 l 551 1310 l 551 1425 q 592 1430 564 1428 q 654 1432 619 1432 l 654 1432 q 767 1404 736 1432 q 799 1322 799 1376 l 799 1322 q 781 1244 799 1279 q 749 1190 764 1210 l 749 1190 z "},"Ễ":{"ha":833,"x_min":111,"x_max":750,"o":"m 750 0 l 111 0 l 111 986 l 739 986 l 739 767 l 361 767 l 361 601 l 722 601 l 722 388 l 361 388 l 361 219 l 750 219 l 750 0 z m 343 1039 l 165 1039 l 310 1250 l 546 1250 l 690 1039 l 513 1039 l 399 1185 l 457 1185 l 343 1039 z m 503 1300 l 503 1300 q 447 1308 472 1300 q 396 1338 422 1315 l 396 1338 q 377 1349 386 1344 q 358 1353 368 1353 l 358 1353 q 331 1340 344 1353 q 315 1293 318 1328 l 315 1293 l 196 1293 q 235 1437 196 1382 q 351 1492 275 1492 l 351 1492 q 409 1484 383 1492 q 460 1456 435 1476 l 460 1456 q 481 1442 472 1446 q 499 1438 489 1438 l 499 1438 q 527 1449 514 1438 q 542 1499 540 1461 l 542 1499 l 661 1499 q 621 1353 661 1407 q 503 1300 581 1300 z "},"Ë":{"ha":833,"x_min":111,"x_max":750,"o":"m 750 0 l 111 0 l 111 986 l 739 986 l 739 767 l 361 767 l 361 601 l 722 601 l 722 388 l 361 388 l 361 219 l 750 219 l 750 0 z m 385 1063 l 135 1063 l 135 1251 l 385 1251 l 385 1063 z m 721 1063 l 471 1063 l 471 1251 l 721 1251 l 721 1063 z "},"Ė":{"ha":833,"x_min":111,"x_max":750,"o":"m 750 0 l 111 0 l 111 986 l 739 986 l 739 767 l 361 767 l 361 601 l 722 601 l 722 388 l 361 388 l 361 219 l 750 219 l 750 0 z m 546 1063 l 310 1063 l 310 1246 l 546 1246 l 546 1063 z "},"Ẹ":{"ha":833,"x_min":111,"x_max":750,"o":"m 750 0 l 111 0 l 111 986 l 739 986 l 739 767 l 361 767 l 361 601 l 722 601 l 722 388 l 361 388 l 361 219 l 750 219 l 750 0 z m 536 -222 l 319 -222 l 319 -53 l 536 -53 l 536 -222 z "},"È":{"ha":833,"x_min":111,"x_max":750,"o":"m 750 0 l 111 0 l 111 986 l 739 986 l 739 767 l 361 767 l 361 601 l 722 601 l 722 388 l 361 388 l 361 219 l 750 219 l 750 0 z m 539 1051 l 331 1051 l 206 1274 l 456 1274 l 539 1051 z "},"Ẻ":{"ha":833,"x_min":111,"x_max":750,"o":"m 750 0 l 111 0 l 111 986 l 739 986 l 739 767 l 361 767 l 361 601 l 722 601 l 722 388 l 361 388 l 361 219 l 750 219 l 750 0 z m 503 1053 l 503 1053 l 350 1053 q 388 1104 375 1082 q 400 1147 400 1126 l 400 1147 q 390 1172 400 1164 q 356 1181 381 1181 l 356 1181 q 326 1178 342 1181 q 297 1172 310 1176 l 297 1172 l 297 1292 q 336 1297 308 1294 q 403 1300 364 1300 l 403 1300 q 522 1269 489 1300 q 556 1181 556 1238 l 556 1181 q 538 1103 556 1135 q 503 1053 519 1072 z "},"Ē":{"ha":833,"x_min":111,"x_max":750,"o":"m 750 0 l 111 0 l 111 986 l 739 986 l 739 767 l 361 767 l 361 601 l 722 601 l 722 388 l 361 388 l 361 219 l 750 219 l 750 0 z m 636 1068 l 219 1068 l 219 1235 l 636 1235 l 636 1068 z "},"Ę":{"ha":833,"x_min":111,"x_max":800,"o":"m 750 0 l 111 0 l 111 986 l 739 986 l 739 767 l 361 767 l 361 601 l 722 601 l 722 388 l 361 388 l 361 219 l 750 219 l 750 0 z m 631 -308 l 631 -308 q 517 -272 558 -308 q 475 -178 475 -235 l 475 -178 q 491 -104 475 -137 q 533 -36 507 -71 l 533 -36 l 583 28 l 750 0 l 708 -54 q 676 -101 686 -83 q 667 -133 667 -118 l 667 -133 q 677 -156 667 -147 q 703 -164 688 -164 l 703 -164 q 736 -157 719 -164 q 763 -143 753 -150 l 763 -143 l 800 -264 q 731 -294 778 -279 q 631 -308 685 -308 z "},"Ẽ":{"ha":833,"x_min":111,"x_max":750,"o":"m 750 0 l 111 0 l 111 986 l 739 986 l 739 767 l 361 767 l 361 601 l 722 601 l 722 388 l 361 388 l 361 219 l 750 219 l 750 0 z m 514 1063 l 514 1063 q 456 1074 481 1063 q 406 1104 432 1085 l 406 1104 q 375 1123 389 1117 q 347 1129 361 1129 l 347 1129 q 316 1113 329 1129 q 300 1054 303 1096 l 300 1054 l 192 1054 q 231 1219 194 1171 q 336 1268 268 1268 l 336 1268 q 399 1257 372 1268 q 453 1225 425 1246 l 453 1225 q 483 1207 469 1213 q 508 1201 497 1201 l 508 1201 q 540 1219 528 1201 q 556 1279 553 1236 l 556 1279 l 664 1279 q 624 1113 663 1163 q 514 1063 586 1063 z "},"Ə":{"ha":833,"x_min":42,"x_max":797,"o":"m 418 -22 l 418 -22 q 210 35 294 -22 q 84 201 126 92 q 42 468 42 311 l 42 468 l 42 574 l 542 574 q 528 680 542 629 q 488 763 515 731 q 414 794 460 794 l 414 794 q 338 759 367 794 q 297 667 310 724 l 297 667 l 44 697 q 119 860 69 790 q 242 969 169 929 q 406 1008 315 1008 l 406 1008 q 617 947 529 1008 q 751 769 704 885 q 797 493 797 654 l 797 493 q 749 217 797 332 q 616 40 701 101 q 418 -22 531 -22 z m 419 192 l 419 192 q 487 214 460 192 q 528 278 514 236 q 542 376 542 319 l 542 376 l 303 376 q 318 273 303 314 q 360 212 333 232 q 419 192 388 192 z "},"F":{"ha":833,"x_min":125,"x_max":764,"o":"m 375 0 l 125 0 l 125 986 l 764 986 l 764 767 l 279 767 l 375 863 l 375 590 l 739 590 l 739 376 l 375 376 l 375 0 z "},"G":{"ha":833,"x_min":39,"x_max":792,"o":"m 422 -22 l 422 -22 q 219 40 306 -22 q 86 217 133 101 q 39 492 39 332 l 39 492 q 85 767 39 651 q 217 946 131 883 q 422 1008 303 1008 l 422 1008 q 599 968 525 1008 q 722 847 674 928 q 792 642 771 765 l 792 642 l 538 628 q 499 753 528 715 q 425 790 469 790 l 425 790 q 354 756 383 790 q 310 656 325 722 q 294 492 294 589 l 294 492 q 312 330 294 396 q 362 230 329 264 q 442 196 394 196 l 442 196 q 501 212 476 196 q 538 260 525 228 q 553 342 551 292 l 553 342 l 417 342 l 417 522 l 783 522 l 783 0 l 638 0 l 626 200 l 678 247 q 647 116 678 178 q 558 16 615 54 q 422 -22 501 -22 z "},"Ğ":{"ha":833,"x_min":39,"x_max":792,"o":"m 422 -22 l 422 -22 q 219 40 306 -22 q 86 217 133 101 q 39 492 39 332 l 39 492 q 85 767 39 651 q 217 946 131 883 q 422 1008 303 1008 l 422 1008 q 599 968 525 1008 q 722 847 674 928 q 792 642 771 765 l 792 642 l 538 628 q 499 753 528 715 q 425 790 469 790 l 425 790 q 354 756 383 790 q 310 656 325 722 q 294 492 294 589 l 294 492 q 312 330 294 396 q 362 230 329 264 q 442 196 394 196 l 442 196 q 501 212 476 196 q 538 260 525 228 q 553 342 551 292 l 553 342 l 417 342 l 417 522 l 783 522 l 783 0 l 638 0 l 626 200 l 678 247 q 647 116 678 178 q 558 16 615 54 q 422 -22 501 -22 z m 425 1047 l 425 1047 q 268 1108 329 1047 q 203 1269 207 1168 l 203 1269 l 339 1269 q 367 1199 343 1218 q 425 1181 392 1181 l 425 1181 q 483 1199 458 1181 q 511 1269 507 1218 l 511 1269 l 647 1269 q 582 1108 643 1168 q 425 1047 521 1047 z "},"Ǧ":{"ha":833,"x_min":39,"x_max":792,"o":"m 422 -22 l 422 -22 q 219 40 306 -22 q 86 217 133 101 q 39 492 39 332 l 39 492 q 85 767 39 651 q 217 946 131 883 q 422 1008 303 1008 l 422 1008 q 599 968 525 1008 q 722 847 674 928 q 792 642 771 765 l 792 642 l 538 628 q 499 753 528 715 q 425 790 469 790 l 425 790 q 354 756 383 790 q 310 656 325 722 q 294 492 294 589 l 294 492 q 312 330 294 396 q 362 230 329 264 q 442 196 394 196 l 442 196 q 501 212 476 196 q 538 260 525 228 q 553 342 551 292 l 553 342 l 417 342 l 417 522 l 783 522 l 783 0 l 638 0 l 626 200 l 678 247 q 647 116 678 178 q 558 16 615 54 q 422 -22 501 -22 z m 328 1051 l 189 1282 l 353 1282 l 444 1133 l 406 1133 l 497 1282 l 661 1282 l 522 1051 l 328 1051 z "},"Ĝ":{"ha":833,"x_min":39,"x_max":792,"o":"m 422 -22 l 422 -22 q 219 40 306 -22 q 86 217 133 101 q 39 492 39 332 l 39 492 q 85 767 39 651 q 217 946 131 883 q 422 1008 303 1008 l 422 1008 q 599 968 525 1008 q 722 847 674 928 q 792 642 771 765 l 792 642 l 538 628 q 499 753 528 715 q 425 790 469 790 l 425 790 q 354 756 383 790 q 310 656 325 722 q 294 492 294 589 l 294 492 q 312 330 294 396 q 362 230 329 264 q 442 196 394 196 l 442 196 q 501 212 476 196 q 538 260 525 228 q 553 342 551 292 l 553 342 l 417 342 l 417 522 l 783 522 l 783 0 l 638 0 l 626 200 l 678 247 q 647 116 678 178 q 558 16 615 54 q 422 -22 501 -22 z m 353 1051 l 189 1051 l 328 1282 l 522 1282 l 661 1051 l 497 1051 l 406 1200 l 444 1200 l 353 1051 z "},"Ģ":{"ha":833,"x_min":39,"x_max":792,"o":"m 422 -22 l 422 -22 q 219 40 306 -22 q 86 217 133 101 q 39 492 39 332 l 39 492 q 85 767 39 651 q 217 946 131 883 q 422 1008 303 1008 l 422 1008 q 599 968 525 1008 q 722 847 674 928 q 792 642 771 765 l 792 642 l 538 628 q 499 753 528 715 q 425 790 469 790 l 425 790 q 354 756 383 790 q 310 656 325 722 q 294 492 294 589 l 294 492 q 312 330 294 396 q 362 230 329 264 q 442 196 394 196 l 442 196 q 501 212 476 196 q 538 260 525 228 q 553 342 551 292 l 553 342 l 417 342 l 417 522 l 783 522 l 783 0 l 638 0 l 626 200 l 678 247 q 647 116 678 178 q 558 16 615 54 q 422 -22 501 -22 z m 417 -364 l 297 -364 l 389 -239 l 322 -239 l 322 -64 l 525 -64 l 525 -219 l 417 -364 z "},"Ġ":{"ha":833,"x_min":39,"x_max":792,"o":"m 422 -22 l 422 -22 q 219 40 306 -22 q 86 217 133 101 q 39 492 39 332 l 39 492 q 85 767 39 651 q 217 946 131 883 q 422 1008 303 1008 l 422 1008 q 599 968 525 1008 q 722 847 674 928 q 792 642 771 765 l 792 642 l 538 628 q 499 753 528 715 q 425 790 469 790 l 425 790 q 354 756 383 790 q 310 656 325 722 q 294 492 294 589 l 294 492 q 312 330 294 396 q 362 230 329 264 q 442 196 394 196 l 442 196 q 501 212 476 196 q 538 260 525 228 q 553 342 551 292 l 553 342 l 417 342 l 417 522 l 783 522 l 783 0 l 638 0 l 626 200 l 678 247 q 647 116 678 178 q 558 16 615 54 q 422 -22 501 -22 z m 543 1061 l 307 1061 l 307 1244 l 543 1244 l 543 1061 z "},"Ḡ":{"ha":833,"x_min":39,"x_max":792,"o":"m 422 -22 l 422 -22 q 219 40 306 -22 q 86 217 133 101 q 39 492 39 332 l 39 492 q 85 767 39 651 q 217 946 131 883 q 422 1008 303 1008 l 422 1008 q 599 968 525 1008 q 722 847 674 928 q 792 642 771 765 l 792 642 l 538 628 q 499 753 528 715 q 425 790 469 790 l 425 790 q 354 756 383 790 q 310 656 325 722 q 294 492 294 589 l 294 492 q 312 330 294 396 q 362 230 329 264 q 442 196 394 196 l 442 196 q 501 212 476 196 q 538 260 525 228 q 553 342 551 292 l 553 342 l 417 342 l 417 522 l 783 522 l 783 0 l 638 0 l 626 200 l 678 247 q 647 116 678 178 q 558 16 615 54 q 422 -22 501 -22 z m 633 1067 l 217 1067 l 217 1233 l 633 1233 l 633 1067 z "},"Ǥ":{"ha":833,"x_min":19,"x_max":819,"o":"m 417 -22 l 417 -22 q 207 37 296 -22 q 69 210 118 96 q 19 492 19 325 l 19 492 q 63 763 19 647 q 191 944 106 879 q 403 1008 276 1008 l 403 1008 q 592 965 515 1008 q 713 840 668 922 q 772 642 757 758 l 772 642 l 518 628 q 483 751 508 707 q 406 794 457 794 l 406 794 q 335 760 364 794 q 290 658 306 725 q 275 492 275 590 l 275 492 q 288 328 275 394 q 333 229 301 263 q 417 196 364 196 l 417 196 q 488 211 461 196 q 528 271 515 226 q 542 403 542 315 l 542 403 l 403 403 l 403 522 l 772 522 l 772 444 q 683 90 772 201 q 417 -22 594 -22 z m 819 253 l 403 253 l 403 356 l 819 356 l 819 253 z "},"H":{"ha":833,"x_min":56,"x_max":778,"o":"m 306 0 l 56 0 l 56 986 l 306 986 l 306 526 l 224 606 l 610 606 l 528 526 l 528 986 l 778 986 l 778 0 l 528 0 l 528 465 l 610 386 l 224 386 l 306 465 l 306 0 z "},"Ħ":{"ha":833,"x_min":14,"x_max":819,"o":"m 306 0 l 56 0 l 56 986 l 306 986 l 306 526 l 224 606 l 610 606 l 528 526 l 528 986 l 778 986 l 778 0 l 528 0 l 528 465 l 610 386 l 224 386 l 306 465 l 306 0 z m 819 714 l 14 714 l 14 897 l 819 897 l 819 714 z "},"Ĥ":{"ha":833,"x_min":56,"x_max":778,"o":"m 306 0 l 56 0 l 56 986 l 306 986 l 306 526 l 224 606 l 610 606 l 528 526 l 528 986 l 778 986 l 778 0 l 528 0 l 528 465 l 610 386 l 224 386 l 306 465 l 306 0 z m 344 1051 l 181 1051 l 319 1282 l 514 1282 l 653 1051 l 489 1051 l 397 1200 l 436 1200 l 344 1051 z "},"I":{"ha":833,"x_min":97,"x_max":736,"o":"m 736 0 l 97 0 l 97 219 l 292 219 l 292 767 l 97 767 l 97 986 l 736 986 l 736 767 l 542 767 l 542 219 l 736 219 l 736 0 z "},"Í":{"ha":833,"x_min":97,"x_max":736,"o":"m 736 0 l 97 0 l 97 219 l 292 219 l 292 767 l 97 767 l 97 986 l 736 986 l 736 767 l 542 767 l 542 219 l 736 219 l 736 0 z m 521 1051 l 313 1051 l 396 1274 l 646 1274 l 521 1051 z "},"Î":{"ha":833,"x_min":97,"x_max":736,"o":"m 736 0 l 97 0 l 97 219 l 292 219 l 292 767 l 97 767 l 97 986 l 736 986 l 736 767 l 542 767 l 542 219 l 736 219 l 736 0 z m 344 1051 l 181 1051 l 319 1282 l 514 1282 l 653 1051 l 489 1051 l 397 1200 l 436 1200 l 344 1051 z "},"Ï":{"ha":833,"x_min":97,"x_max":736,"o":"m 736 0 l 97 0 l 97 219 l 292 219 l 292 767 l 97 767 l 97 986 l 736 986 l 736 767 l 542 767 l 542 219 l 736 219 l 736 0 z m 374 1061 l 124 1061 l 124 1250 l 374 1250 l 374 1061 z m 710 1061 l 460 1061 l 460 1250 l 710 1250 l 710 1061 z "},"İ":{"ha":833,"x_min":97,"x_max":736,"o":"m 736 0 l 97 0 l 97 219 l 292 219 l 292 767 l 97 767 l 97 986 l 736 986 l 736 767 l 542 767 l 542 219 l 736 219 l 736 0 z m 535 1061 l 299 1061 l 299 1244 l 535 1244 l 535 1061 z "},"Ị":{"ha":833,"x_min":97,"x_max":736,"o":"m 736 0 l 97 0 l 97 219 l 292 219 l 292 767 l 97 767 l 97 986 l 736 986 l 736 767 l 542 767 l 542 219 l 736 219 l 736 0 z m 525 -222 l 308 -222 l 308 -53 l 525 -53 l 525 -222 z "},"Ì":{"ha":833,"x_min":97,"x_max":736,"o":"m 736 0 l 97 0 l 97 219 l 292 219 l 292 767 l 97 767 l 97 986 l 736 986 l 736 767 l 542 767 l 542 219 l 736 219 l 736 0 z m 528 1050 l 319 1050 l 194 1272 l 444 1272 l 528 1050 z "},"Ỉ":{"ha":833,"x_min":97,"x_max":736,"o":"m 736 0 l 97 0 l 97 219 l 292 219 l 292 767 l 97 767 l 97 986 l 736 986 l 736 767 l 542 767 l 542 219 l 736 219 l 736 0 z m 492 1051 l 492 1051 l 339 1051 q 376 1103 364 1081 q 389 1146 389 1125 l 389 1146 q 379 1171 389 1163 q 344 1179 369 1179 l 344 1179 q 315 1177 331 1179 q 286 1171 299 1175 l 286 1171 l 286 1290 q 325 1296 297 1293 q 392 1299 353 1299 l 392 1299 q 511 1267 478 1299 q 544 1179 544 1236 l 544 1179 q 526 1102 544 1133 q 492 1051 508 1071 z "},"Ī":{"ha":833,"x_min":97,"x_max":736,"o":"m 736 0 l 97 0 l 97 219 l 292 219 l 292 767 l 97 767 l 97 986 l 736 986 l 736 767 l 542 767 l 542 219 l 736 219 l 736 0 z m 625 1067 l 208 1067 l 208 1233 l 625 1233 l 625 1067 z "},"Į":{"ha":833,"x_min":97,"x_max":786,"o":"m 736 0 l 97 0 l 97 219 l 292 219 l 292 767 l 97 767 l 97 986 l 736 986 l 736 767 l 542 767 l 542 219 l 736 219 l 736 0 z m 617 -308 l 617 -308 q 503 -272 544 -308 q 461 -178 461 -235 l 461 -178 q 477 -104 461 -137 q 519 -36 493 -71 l 519 -36 l 569 28 l 736 0 l 694 -54 q 663 -101 672 -83 q 653 -133 653 -118 l 653 -133 q 663 -156 653 -147 q 689 -164 674 -164 l 689 -164 q 722 -157 706 -164 q 749 -143 739 -150 l 749 -143 l 786 -264 q 717 -294 764 -279 q 617 -308 671 -308 z "},"Ĩ":{"ha":833,"x_min":97,"x_max":736,"o":"m 736 0 l 97 0 l 97 219 l 292 219 l 292 767 l 97 767 l 97 986 l 736 986 l 736 767 l 542 767 l 542 219 l 736 219 l 736 0 z m 503 1061 l 503 1061 q 445 1072 469 1061 q 394 1103 421 1083 l 394 1103 q 364 1122 378 1115 q 336 1128 350 1128 l 336 1128 q 305 1111 318 1128 q 289 1053 292 1094 l 289 1053 l 181 1053 q 220 1218 183 1169 q 325 1267 257 1267 l 325 1267 q 388 1256 361 1267 q 442 1224 414 1244 l 442 1224 q 472 1206 458 1211 q 497 1200 486 1200 l 497 1200 q 529 1217 517 1200 q 544 1278 542 1235 l 544 1278 l 653 1278 q 613 1111 651 1161 q 503 1061 575 1061 z "},"J":{"ha":833,"x_min":42,"x_max":722,"o":"m 385 -22 l 385 -22 q 200 24 276 -22 q 83 157 124 69 q 42 369 43 244 l 42 369 l 294 381 q 318 235 297 279 q 386 192 339 192 l 386 192 q 453 228 433 192 q 472 350 472 265 l 472 350 l 472 986 l 722 986 l 722 350 q 635 74 722 171 q 385 -22 547 -22 z "},"Ĵ":{"ha":833,"x_min":42,"x_max":854,"o":"m 385 -22 l 385 -22 q 200 24 276 -22 q 83 157 124 69 q 42 369 43 244 l 42 369 l 294 381 q 318 235 297 279 q 386 192 339 192 l 386 192 q 453 228 433 192 q 472 350 472 265 l 472 350 l 472 986 l 722 986 l 722 350 q 635 74 722 171 q 385 -22 547 -22 z m 546 1051 l 382 1051 l 521 1282 l 715 1282 l 854 1051 l 690 1051 l 599 1200 l 638 1200 l 546 1051 z "},"K":{"ha":833,"x_min":56,"x_max":792,"o":"m 792 986 l 292 233 l 292 622 l 497 986 l 792 986 z m 306 0 l 56 0 l 56 986 l 306 986 l 306 0 z m 792 0 l 528 0 l 333 431 l 500 583 l 792 0 z "},"Ǩ":{"ha":833,"x_min":56,"x_max":792,"o":"m 792 986 l 292 233 l 292 622 l 497 986 l 792 986 z m 306 0 l 56 0 l 56 986 l 306 986 l 306 0 z m 792 0 l 528 0 l 333 431 l 500 583 l 792 0 z m 283 1051 l 144 1282 l 308 1282 l 400 1133 l 361 1133 l 453 1282 l 617 1282 l 478 1051 l 283 1051 z "},"Ķ":{"ha":833,"x_min":56,"x_max":792,"o":"m 792 986 l 292 233 l 292 622 l 497 986 l 792 986 z m 306 0 l 56 0 l 56 986 l 306 986 l 306 0 z m 792 0 l 528 0 l 333 431 l 500 583 l 792 0 z m 382 -364 l 263 -364 l 354 -239 l 288 -239 l 288 -64 l 490 -64 l 490 -219 l 382 -364 z "},"L":{"ha":833,"x_min":125,"x_max":764,"o":"m 764 0 l 125 0 l 125 986 l 375 986 l 375 57 l 172 219 l 764 219 l 764 0 z "},"Ĺ":{"ha":833,"x_min":125,"x_max":764,"o":"m 764 0 l 125 0 l 125 986 l 375 986 l 375 57 l 172 219 l 764 219 l 764 0 z m 342 1051 l 133 1051 l 217 1274 l 467 1274 l 342 1051 z "},"Ľ":{"ha":833,"x_min":125,"x_max":781,"o":"m 764 0 l 125 0 l 125 986 l 375 986 l 375 57 l 172 219 l 764 219 l 764 0 z m 694 560 l 528 560 l 572 986 l 781 986 l 694 560 z "},"Ļ":{"ha":833,"x_min":125,"x_max":764,"o":"m 764 0 l 125 0 l 125 986 l 375 986 l 375 57 l 172 219 l 764 219 l 764 0 z m 438 -364 l 318 -364 l 410 -239 l 343 -239 l 343 -64 l 546 -64 l 546 -219 l 438 -364 z "},"Ł":{"ha":833,"x_min":14,"x_max":764,"o":"m 764 0 l 125 0 l 125 986 l 375 986 l 375 57 l 172 219 l 764 219 l 764 0 z m 556 569 l 14 318 l 14 485 l 556 736 l 556 569 z "},"M":{"ha":833,"x_min":56,"x_max":778,"o":"m 481 153 l 353 153 l 244 625 l 278 633 l 278 0 l 56 0 l 56 986 l 306 986 l 442 486 l 392 486 l 528 986 l 778 986 l 778 0 l 556 0 l 556 633 l 589 625 l 481 153 z "},"N":{"ha":833,"x_min":83,"x_max":750,"o":"m 319 0 l 83 0 l 83 986 l 292 986 l 553 403 l 514 394 l 514 986 l 750 986 l 750 0 l 542 0 l 281 583 l 319 592 l 319 0 z "},"Ń":{"ha":833,"x_min":83,"x_max":750,"o":"m 319 0 l 83 0 l 83 986 l 292 986 l 553 403 l 514 394 l 514 986 l 750 986 l 750 0 l 542 0 l 281 583 l 319 592 l 319 0 z m 521 1051 l 313 1051 l 396 1274 l 646 1274 l 521 1051 z "},"Ň":{"ha":833,"x_min":83,"x_max":750,"o":"m 319 0 l 83 0 l 83 986 l 292 986 l 553 403 l 514 394 l 514 986 l 750 986 l 750 0 l 542 0 l 281 583 l 319 592 l 319 0 z m 319 1051 l 181 1282 l 344 1282 l 436 1133 l 397 1133 l 489 1282 l 653 1282 l 514 1051 l 319 1051 z "},"Ņ":{"ha":833,"x_min":83,"x_max":750,"o":"m 319 0 l 83 0 l 83 986 l 292 986 l 553 403 l 514 394 l 514 986 l 750 986 l 750 0 l 542 0 l 281 583 l 319 592 l 319 0 z m 410 -364 l 290 -364 l 382 -239 l 315 -239 l 315 -64 l 518 -64 l 518 -219 l 410 -364 z "},"Ñ":{"ha":833,"x_min":83,"x_max":750,"o":"m 319 0 l 83 0 l 83 986 l 292 986 l 553 403 l 514 394 l 514 986 l 750 986 l 750 0 l 542 0 l 281 583 l 319 592 l 319 0 z m 503 1061 l 503 1061 q 445 1072 469 1061 q 394 1103 421 1083 l 394 1103 q 364 1122 378 1115 q 336 1128 350 1128 l 336 1128 q 305 1111 318 1128 q 289 1053 292 1094 l 289 1053 l 181 1053 q 220 1218 183 1169 q 325 1267 257 1267 l 325 1267 q 388 1256 361 1267 q 442 1224 414 1244 l 442 1224 q 472 1206 458 1211 q 497 1200 486 1200 l 497 1200 q 529 1217 517 1200 q 544 1278 542 1235 l 544 1278 l 653 1278 q 613 1111 651 1161 q 503 1061 575 1061 z "},"Ŋ":{"ha":833,"x_min":83,"x_max":750,"o":"m 542 -208 l 389 -208 l 389 -28 l 508 -28 q 533 -21 525 -28 q 542 0 542 -14 l 542 0 l 542 150 l 750 150 l 750 -8 q 692 -153 750 -97 q 542 -208 635 -208 l 542 -208 z m 319 0 l 83 0 l 83 986 l 292 986 l 553 403 l 514 394 l 514 986 l 750 986 l 750 0 l 542 0 l 281 583 l 319 592 l 319 0 z "},"O":{"ha":833,"x_min":39,"x_max":794,"o":"m 417 -22 l 417 -22 q 212 38 296 -22 q 83 212 128 97 q 39 492 39 326 l 39 492 q 83 772 39 657 q 212 948 128 888 q 417 1008 296 1008 l 417 1008 q 622 948 538 1008 q 751 772 707 888 q 794 492 794 657 l 794 492 q 751 212 794 326 q 622 38 707 97 q 417 -22 538 -22 z m 417 192 l 417 192 q 485 221 458 192 q 526 316 513 250 q 539 492 539 382 l 539 492 q 526 668 539 601 q 485 765 513 735 q 417 794 458 794 l 417 794 q 349 765 376 794 q 308 668 321 735 q 294 492 294 601 l 294 492 q 308 316 294 382 q 349 221 321 250 q 417 192 376 192 z "},"Ó":{"ha":833,"x_min":39,"x_max":794,"o":"m 417 -22 l 417 -22 q 212 38 296 -22 q 83 212 128 97 q 39 492 39 326 l 39 492 q 83 772 39 657 q 212 948 128 888 q 417 1008 296 1008 l 417 1008 q 622 948 538 1008 q 751 772 707 888 q 794 492 794 657 l 794 492 q 751 212 794 326 q 622 38 707 97 q 417 -22 538 -22 z m 417 192 l 417 192 q 485 221 458 192 q 526 316 513 250 q 539 492 539 382 l 539 492 q 526 668 539 601 q 485 765 513 735 q 417 794 458 794 l 417 794 q 349 765 376 794 q 308 668 321 735 q 294 492 294 601 l 294 492 q 308 316 294 382 q 349 221 321 250 q 417 192 376 192 z m 521 1051 l 313 1051 l 396 1274 l 646 1274 l 521 1051 z "},"Ô":{"ha":833,"x_min":39,"x_max":794,"o":"m 417 -22 l 417 -22 q 212 38 296 -22 q 83 212 128 97 q 39 492 39 326 l 39 492 q 83 772 39 657 q 212 948 128 888 q 417 1008 296 1008 l 417 1008 q 622 948 538 1008 q 751 772 707 888 q 794 492 794 657 l 794 492 q 751 212 794 326 q 622 38 707 97 q 417 -22 538 -22 z m 417 192 l 417 192 q 485 221 458 192 q 526 316 513 250 q 539 492 539 382 l 539 492 q 526 668 539 601 q 485 765 513 735 q 417 794 458 794 l 417 794 q 349 765 376 794 q 308 668 321 735 q 294 492 294 601 l 294 492 q 308 316 294 382 q 349 221 321 250 q 417 192 376 192 z m 344 1051 l 181 1051 l 319 1282 l 514 1282 l 653 1051 l 489 1051 l 397 1200 l 436 1200 l 344 1051 z "},"Ố":{"ha":833,"x_min":39,"x_max":885,"o":"m 417 -22 l 417 -22 q 212 38 296 -22 q 83 212 128 97 q 39 492 39 326 l 39 492 q 83 772 39 657 q 212 948 128 888 q 417 1008 296 1008 l 417 1008 q 622 948 538 1008 q 751 772 707 888 q 794 492 794 657 l 794 492 q 751 212 794 326 q 622 38 707 97 q 417 -22 538 -22 z m 417 192 l 417 192 q 485 221 458 192 q 526 316 513 250 q 539 492 539 382 l 539 492 q 526 668 539 601 q 485 765 513 735 q 417 794 458 794 l 417 794 q 349 765 376 794 q 308 668 321 735 q 294 492 294 601 l 294 492 q 308 316 294 382 q 349 221 321 250 q 417 192 376 192 z m 338 1038 l 160 1038 l 299 1254 l 535 1254 l 674 1038 l 496 1038 l 388 1186 l 446 1186 l 338 1038 z m 768 1189 l 593 1189 l 668 1411 l 885 1411 l 768 1189 z "},"Ộ":{"ha":833,"x_min":39,"x_max":794,"o":"m 417 -22 l 417 -22 q 212 38 296 -22 q 83 212 128 97 q 39 492 39 326 l 39 492 q 83 772 39 657 q 212 948 128 888 q 417 1008 296 1008 l 417 1008 q 622 948 538 1008 q 751 772 707 888 q 794 492 794 657 l 794 492 q 751 212 794 326 q 622 38 707 97 q 417 -22 538 -22 z m 417 192 l 417 192 q 485 221 458 192 q 526 316 513 250 q 539 492 539 382 l 539 492 q 526 668 539 601 q 485 765 513 735 q 417 794 458 794 l 417 794 q 349 765 376 794 q 308 668 321 735 q 294 492 294 601 l 294 492 q 308 316 294 382 q 349 221 321 250 q 417 192 376 192 z m 525 -222 l 308 -222 l 308 -53 l 525 -53 l 525 -222 z m 344 1051 l 181 1051 l 319 1282 l 514 1282 l 653 1051 l 489 1051 l 397 1200 l 436 1200 l 344 1051 z "},"Ồ":{"ha":833,"x_min":39,"x_max":843,"o":"m 417 -22 l 417 -22 q 212 38 296 -22 q 83 212 128 97 q 39 492 39 326 l 39 492 q 83 772 39 657 q 212 948 128 888 q 417 1008 296 1008 l 417 1008 q 622 948 538 1008 q 751 772 707 888 q 794 492 794 657 l 794 492 q 751 212 794 326 q 622 38 707 97 q 417 -22 538 -22 z m 417 192 l 417 192 q 485 221 458 192 q 526 316 513 250 q 539 492 539 382 l 539 492 q 526 668 539 601 q 485 765 513 735 q 417 794 458 794 l 417 794 q 349 765 376 794 q 308 668 321 735 q 294 492 294 601 l 294 492 q 308 316 294 382 q 349 221 321 250 q 417 192 376 192 z m 338 1038 l 160 1038 l 299 1254 l 535 1254 l 674 1038 l 496 1038 l 388 1186 l 446 1186 l 338 1038 z m 843 1189 l 668 1189 l 551 1411 l 768 1411 l 843 1189 z "},"Ổ":{"ha":833,"x_min":39,"x_max":794,"o":"m 417 -22 l 417 -22 q 212 38 296 -22 q 83 212 128 97 q 39 492 39 326 l 39 492 q 83 772 39 657 q 212 948 128 888 q 417 1008 296 1008 l 417 1008 q 622 948 538 1008 q 751 772 707 888 q 794 492 794 657 l 794 492 q 751 212 794 326 q 622 38 707 97 q 417 -22 538 -22 z m 417 192 l 417 192 q 485 221 458 192 q 526 316 513 250 q 539 492 539 382 l 539 492 q 526 668 539 601 q 485 765 513 735 q 417 794 458 794 l 417 794 q 349 765 376 794 q 308 668 321 735 q 294 492 294 601 l 294 492 q 308 316 294 382 q 349 221 321 250 q 417 192 376 192 z m 338 1038 l 160 1038 l 299 1254 l 535 1254 l 674 1038 l 496 1038 l 388 1186 l 446 1186 l 338 1038 z m 738 1189 l 599 1189 q 630 1242 621 1218 q 639 1285 639 1265 l 639 1285 q 629 1308 639 1300 q 596 1317 619 1317 l 596 1317 q 567 1315 582 1317 q 540 1308 553 1313 l 540 1308 l 540 1424 q 581 1428 553 1426 q 643 1431 608 1431 l 643 1431 q 756 1403 725 1431 q 788 1321 788 1375 l 788 1321 q 770 1243 788 1278 q 738 1189 753 1208 l 738 1189 z "},"Ỗ":{"ha":833,"x_min":39,"x_max":794,"o":"m 417 -22 l 417 -22 q 212 38 296 -22 q 83 212 128 97 q 39 492 39 326 l 39 492 q 83 772 39 657 q 212 948 128 888 q 417 1008 296 1008 l 417 1008 q 622 948 538 1008 q 751 772 707 888 q 794 492 794 657 l 794 492 q 751 212 794 326 q 622 38 707 97 q 417 -22 538 -22 z m 417 192 l 417 192 q 485 221 458 192 q 526 316 513 250 q 539 492 539 382 l 539 492 q 526 668 539 601 q 485 765 513 735 q 417 794 458 794 l 417 794 q 349 765 376 794 q 308 668 321 735 q 294 492 294 601 l 294 492 q 308 316 294 382 q 349 221 321 250 q 417 192 376 192 z m 332 1038 l 154 1038 l 299 1249 l 535 1249 l 679 1038 l 501 1038 l 388 1183 l 446 1183 l 332 1038 z m 492 1299 l 492 1299 q 436 1306 461 1299 q 385 1336 411 1314 l 385 1336 q 366 1347 375 1343 q 347 1351 357 1351 l 347 1351 q 320 1339 333 1351 q 304 1292 307 1326 l 304 1292 l 185 1292 q 224 1435 185 1381 q 340 1490 264 1490 l 340 1490 q 398 1483 372 1490 q 449 1454 424 1475 l 449 1454 q 469 1440 461 1444 q 488 1436 478 1436 l 488 1436 q 516 1448 503 1436 q 531 1497 529 1460 l 531 1497 l 650 1497 q 610 1352 650 1406 q 492 1299 569 1299 z "},"Ö":{"ha":833,"x_min":39,"x_max":794,"o":"m 417 -22 l 417 -22 q 212 38 296 -22 q 83 212 128 97 q 39 492 39 326 l 39 492 q 83 772 39 657 q 212 948 128 888 q 417 1008 296 1008 l 417 1008 q 622 948 538 1008 q 751 772 707 888 q 794 492 794 657 l 794 492 q 751 212 794 326 q 622 38 707 97 q 417 -22 538 -22 z m 417 192 l 417 192 q 485 221 458 192 q 526 316 513 250 q 539 492 539 382 l 539 492 q 526 668 539 601 q 485 765 513 735 q 417 794 458 794 l 417 794 q 349 765 376 794 q 308 668 321 735 q 294 492 294 601 l 294 492 q 308 316 294 382 q 349 221 321 250 q 417 192 376 192 z m 374 1061 l 124 1061 l 124 1250 l 374 1250 l 374 1061 z m 710 1061 l 460 1061 l 460 1250 l 710 1250 l 710 1061 z "},"Ọ":{"ha":833,"x_min":39,"x_max":794,"o":"m 417 -22 l 417 -22 q 212 38 296 -22 q 83 212 128 97 q 39 492 39 326 l 39 492 q 83 772 39 657 q 212 948 128 888 q 417 1008 296 1008 l 417 1008 q 622 948 538 1008 q 751 772 707 888 q 794 492 794 657 l 794 492 q 751 212 794 326 q 622 38 707 97 q 417 -22 538 -22 z m 417 192 l 417 192 q 485 221 458 192 q 526 316 513 250 q 539 492 539 382 l 539 492 q 526 668 539 601 q 485 765 513 735 q 417 794 458 794 l 417 794 q 349 765 376 794 q 308 668 321 735 q 294 492 294 601 l 294 492 q 308 316 294 382 q 349 221 321 250 q 417 192 376 192 z m 525 -222 l 308 -222 l 308 -53 l 525 -53 l 525 -222 z "},"Ò":{"ha":833,"x_min":39,"x_max":794,"o":"m 417 -22 l 417 -22 q 212 38 296 -22 q 83 212 128 97 q 39 492 39 326 l 39 492 q 83 772 39 657 q 212 948 128 888 q 417 1008 296 1008 l 417 1008 q 622 948 538 1008 q 751 772 707 888 q 794 492 794 657 l 794 492 q 751 212 794 326 q 622 38 707 97 q 417 -22 538 -22 z m 417 192 l 417 192 q 485 221 458 192 q 526 316 513 250 q 539 492 539 382 l 539 492 q 526 668 539 601 q 485 765 513 735 q 417 794 458 794 l 417 794 q 349 765 376 794 q 308 668 321 735 q 294 492 294 601 l 294 492 q 308 316 294 382 q 349 221 321 250 q 417 192 376 192 z m 528 1050 l 319 1050 l 194 1272 l 444 1272 l 528 1050 z "},"Ỏ":{"ha":833,"x_min":39,"x_max":794,"o":"m 417 -22 l 417 -22 q 212 38 296 -22 q 83 212 128 97 q 39 492 39 326 l 39 492 q 83 772 39 657 q 212 948 128 888 q 417 1008 296 1008 l 417 1008 q 622 948 538 1008 q 751 772 707 888 q 794 492 794 657 l 794 492 q 751 212 794 326 q 622 38 707 97 q 417 -22 538 -22 z m 417 192 l 417 192 q 485 221 458 192 q 526 316 513 250 q 539 492 539 382 l 539 492 q 526 668 539 601 q 485 765 513 735 q 417 794 458 794 l 417 794 q 349 765 376 794 q 308 668 321 735 q 294 492 294 601 l 294 492 q 308 316 294 382 q 349 221 321 250 q 417 192 376 192 z m 492 1051 l 492 1051 l 339 1051 q 376 1103 364 1081 q 389 1146 389 1125 l 389 1146 q 379 1171 389 1163 q 344 1179 369 1179 l 344 1179 q 315 1177 331 1179 q 286 1171 299 1175 l 286 1171 l 286 1290 q 325 1296 297 1293 q 392 1299 353 1299 l 392 1299 q 511 1267 478 1299 q 544 1179 544 1236 l 544 1179 q 526 1102 544 1133 q 492 1051 508 1071 z "},"Ơ":{"ha":833,"x_min":39,"x_max":833,"o":"m 417 -22 l 417 -22 q 212 38 296 -22 q 83 212 128 97 q 39 492 39 326 l 39 492 q 83 772 39 657 q 212 948 128 888 q 417 1008 296 1008 l 417 1008 q 622 948 538 1008 q 751 772 707 888 q 794 492 794 657 l 794 492 q 751 212 794 326 q 622 38 707 97 q 417 -22 538 -22 z m 417 192 l 417 192 q 485 221 458 192 q 526 316 513 250 q 539 492 539 382 l 539 492 q 526 668 539 601 q 485 765 513 735 q 417 794 458 794 l 417 794 q 349 765 376 794 q 308 668 321 735 q 294 492 294 601 l 294 492 q 308 316 294 382 q 349 221 321 250 q 417 192 376 192 z m 581 875 l 489 875 l 478 986 l 549 986 q 613 1006 590 986 q 635 1067 635 1025 l 635 1067 q 628 1142 635 1103 q 615 1206 622 1181 l 615 1206 l 814 1206 q 828 1143 822 1179 q 833 1067 833 1107 l 833 1067 q 775 922 833 968 q 581 875 717 875 l 581 875 z "},"Ớ":{"ha":833,"x_min":39,"x_max":833,"o":"m 417 -22 l 417 -22 q 212 38 296 -22 q 83 212 128 97 q 39 492 39 326 l 39 492 q 83 772 39 657 q 212 948 128 888 q 417 1008 296 1008 l 417 1008 q 622 948 538 1008 q 751 772 707 888 q 794 492 794 657 l 794 492 q 751 212 794 326 q 622 38 707 97 q 417 -22 538 -22 z m 417 192 l 417 192 q 485 221 458 192 q 526 316 513 250 q 539 492 539 382 l 539 492 q 526 668 539 601 q 485 765 513 735 q 417 794 458 794 l 417 794 q 349 765 376 794 q 308 668 321 735 q 294 492 294 601 l 294 492 q 308 316 294 382 q 349 221 321 250 q 417 192 376 192 z m 581 875 l 489 875 l 478 986 l 549 986 q 613 1006 590 986 q 635 1067 635 1025 l 635 1067 q 628 1142 635 1103 q 615 1206 622 1181 l 615 1206 l 814 1206 q 828 1143 822 1179 q 833 1067 833 1107 l 833 1067 q 775 922 833 968 q 581 875 717 875 l 581 875 z m 479 1051 l 271 1051 l 354 1274 l 604 1274 l 479 1051 z "},"Ợ":{"ha":833,"x_min":39,"x_max":833,"o":"m 417 -22 l 417 -22 q 212 38 296 -22 q 83 212 128 97 q 39 492 39 326 l 39 492 q 83 772 39 657 q 212 948 128 888 q 417 1008 296 1008 l 417 1008 q 622 948 538 1008 q 751 772 707 888 q 794 492 794 657 l 794 492 q 751 212 794 326 q 622 38 707 97 q 417 -22 538 -22 z m 417 192 l 417 192 q 485 221 458 192 q 526 316 513 250 q 539 492 539 382 l 539 492 q 526 668 539 601 q 485 765 513 735 q 417 794 458 794 l 417 794 q 349 765 376 794 q 308 668 321 735 q 294 492 294 601 l 294 492 q 308 316 294 382 q 349 221 321 250 q 417 192 376 192 z m 581 875 l 489 875 l 478 986 l 549 986 q 613 1006 590 986 q 635 1067 635 1025 l 635 1067 q 628 1142 635 1103 q 615 1206 622 1181 l 615 1206 l 814 1206 q 828 1143 822 1179 q 833 1067 833 1107 l 833 1067 q 775 922 833 968 q 581 875 717 875 l 581 875 z m 525 -222 l 308 -222 l 308 -53 l 525 -53 l 525 -222 z "},"Ờ":{"ha":833,"x_min":39,"x_max":833,"o":"m 417 -22 l 417 -22 q 212 38 296 -22 q 83 212 128 97 q 39 492 39 326 l 39 492 q 83 772 39 657 q 212 948 128 888 q 417 1008 296 1008 l 417 1008 q 622 948 538 1008 q 751 772 707 888 q 794 492 794 657 l 794 492 q 751 212 794 326 q 622 38 707 97 q 417 -22 538 -22 z m 417 192 l 417 192 q 485 221 458 192 q 526 316 513 250 q 539 492 539 382 l 539 492 q 526 668 539 601 q 485 765 513 735 q 417 794 458 794 l 417 794 q 349 765 376 794 q 308 668 321 735 q 294 492 294 601 l 294 492 q 308 316 294 382 q 349 221 321 250 q 417 192 376 192 z m 581 875 l 489 875 l 478 986 l 549 986 q 613 1006 590 986 q 635 1067 635 1025 l 635 1067 q 628 1142 635 1103 q 615 1206 622 1181 l 615 1206 l 814 1206 q 828 1143 822 1179 q 833 1067 833 1107 l 833 1067 q 775 922 833 968 q 581 875 717 875 l 581 875 z m 486 1050 l 278 1050 l 153 1272 l 403 1272 l 486 1050 z "},"Ở":{"ha":833,"x_min":39,"x_max":833,"o":"m 417 -22 l 417 -22 q 212 38 296 -22 q 83 212 128 97 q 39 492 39 326 l 39 492 q 83 772 39 657 q 212 948 128 888 q 417 1008 296 1008 l 417 1008 q 622 948 538 1008 q 751 772 707 888 q 794 492 794 657 l 794 492 q 751 212 794 326 q 622 38 707 97 q 417 -22 538 -22 z m 417 192 l 417 192 q 485 221 458 192 q 526 316 513 250 q 539 492 539 382 l 539 492 q 526 668 539 601 q 485 765 513 735 q 417 794 458 794 l 417 794 q 349 765 376 794 q 308 668 321 735 q 294 492 294 601 l 294 492 q 308 316 294 382 q 349 221 321 250 q 417 192 376 192 z m 581 875 l 489 875 l 478 986 l 549 986 q 613 1006 590 986 q 635 1067 635 1025 l 635 1067 q 628 1142 635 1103 q 615 1206 622 1181 l 615 1206 l 814 1206 q 828 1143 822 1179 q 833 1067 833 1107 l 833 1067 q 775 922 833 968 q 581 875 717 875 l 581 875 z m 450 1051 l 450 1051 l 297 1051 q 335 1103 322 1081 q 347 1146 347 1125 l 347 1146 q 338 1171 347 1163 q 303 1179 328 1179 l 303 1179 q 273 1177 289 1179 q 244 1171 257 1175 l 244 1171 l 244 1290 q 283 1296 256 1293 q 350 1299 311 1299 l 350 1299 q 469 1267 436 1299 q 503 1179 503 1236 l 503 1179 q 485 1102 503 1133 q 450 1051 467 1071 z "},"Ỡ":{"ha":833,"x_min":39,"x_max":833,"o":"m 417 -22 l 417 -22 q 212 38 296 -22 q 83 212 128 97 q 39 492 39 326 l 39 492 q 83 772 39 657 q 212 948 128 888 q 417 1008 296 1008 l 417 1008 q 622 948 538 1008 q 751 772 707 888 q 794 492 794 657 l 794 492 q 751 212 794 326 q 622 38 707 97 q 417 -22 538 -22 z m 417 192 l 417 192 q 485 221 458 192 q 526 316 513 250 q 539 492 539 382 l 539 492 q 526 668 539 601 q 485 765 513 735 q 417 794 458 794 l 417 794 q 349 765 376 794 q 308 668 321 735 q 294 492 294 601 l 294 492 q 308 316 294 382 q 349 221 321 250 q 417 192 376 192 z m 581 875 l 489 875 l 478 986 l 549 986 q 613 1006 590 986 q 635 1067 635 1025 l 635 1067 q 628 1142 635 1103 q 615 1206 622 1181 l 615 1206 l 814 1206 q 828 1143 822 1179 q 833 1067 833 1107 l 833 1067 q 775 922 833 968 q 581 875 717 875 l 581 875 z m 461 1061 l 461 1061 q 403 1072 428 1061 q 353 1103 379 1083 l 353 1103 q 322 1122 336 1115 q 294 1128 308 1128 l 294 1128 q 263 1111 276 1128 q 247 1053 250 1094 l 247 1053 l 139 1053 q 178 1218 142 1169 q 283 1267 215 1267 l 283 1267 q 346 1256 319 1267 q 400 1224 372 1244 l 400 1224 q 431 1206 417 1211 q 456 1200 444 1200 l 456 1200 q 488 1217 475 1200 q 503 1278 500 1235 l 503 1278 l 611 1278 q 572 1111 610 1161 q 461 1061 533 1061 z "},"Ő":{"ha":833,"x_min":39,"x_max":794,"o":"m 417 -22 l 417 -22 q 212 38 296 -22 q 83 212 128 97 q 39 492 39 326 l 39 492 q 83 772 39 657 q 212 948 128 888 q 417 1008 296 1008 l 417 1008 q 622 948 538 1008 q 751 772 707 888 q 794 492 794 657 l 794 492 q 751 212 794 326 q 622 38 707 97 q 417 -22 538 -22 z m 417 192 l 417 192 q 485 221 458 192 q 526 316 513 250 q 539 492 539 382 l 539 492 q 526 668 539 601 q 485 765 513 735 q 417 794 458 794 l 417 794 q 349 765 376 794 q 308 668 321 735 q 294 492 294 601 l 294 492 q 308 316 294 382 q 349 221 321 250 q 417 192 376 192 z m 375 1047 l 167 1047 l 250 1269 l 500 1269 l 375 1047 z m 653 1047 l 444 1047 l 528 1269 l 778 1269 l 653 1047 z "},"Ō":{"ha":833,"x_min":39,"x_max":794,"o":"m 417 -22 l 417 -22 q 212 38 296 -22 q 83 212 128 97 q 39 492 39 326 l 39 492 q 83 772 39 657 q 212 948 128 888 q 417 1008 296 1008 l 417 1008 q 622 948 538 1008 q 751 772 707 888 q 794 492 794 657 l 794 492 q 751 212 794 326 q 622 38 707 97 q 417 -22 538 -22 z m 417 192 l 417 192 q 485 221 458 192 q 526 316 513 250 q 539 492 539 382 l 539 492 q 526 668 539 601 q 485 765 513 735 q 417 794 458 794 l 417 794 q 349 765 376 794 q 308 668 321 735 q 294 492 294 601 l 294 492 q 308 316 294 382 q 349 221 321 250 q 417 192 376 192 z m 625 1067 l 208 1067 l 208 1233 l 625 1233 l 625 1067 z "},"Ø":{"ha":833,"x_min":28,"x_max":806,"o":"m 417 -22 l 417 -22 q 212 38 296 -22 q 83 212 128 97 q 39 492 39 326 l 39 492 q 83 772 39 657 q 212 948 128 888 q 417 1008 296 1008 l 417 1008 q 622 948 538 1008 q 751 772 707 888 q 794 492 794 657 l 794 492 q 751 212 794 326 q 622 38 707 97 q 417 -22 538 -22 z m 417 192 l 417 192 q 485 221 458 192 q 526 316 513 250 q 539 492 539 382 l 539 492 q 526 668 539 601 q 485 765 513 735 q 417 794 458 794 l 417 794 q 349 765 376 794 q 308 668 321 735 q 294 492 294 601 l 294 492 q 308 316 294 382 q 349 221 321 250 q 417 192 376 192 z m 208 -22 l 28 -22 l 625 1008 l 806 1008 l 208 -22 z "},"Õ":{"ha":833,"x_min":39,"x_max":794,"o":"m 417 -22 l 417 -22 q 212 38 296 -22 q 83 212 128 97 q 39 492 39 326 l 39 492 q 83 772 39 657 q 212 948 128 888 q 417 1008 296 1008 l 417 1008 q 622 948 538 1008 q 751 772 707 888 q 794 492 794 657 l 794 492 q 751 212 794 326 q 622 38 707 97 q 417 -22 538 -22 z m 417 192 l 417 192 q 485 221 458 192 q 526 316 513 250 q 539 492 539 382 l 539 492 q 526 668 539 601 q 485 765 513 735 q 417 794 458 794 l 417 794 q 349 765 376 794 q 308 668 321 735 q 294 492 294 601 l 294 492 q 308 316 294 382 q 349 221 321 250 q 417 192 376 192 z m 503 1061 l 503 1061 q 445 1072 469 1061 q 394 1103 421 1083 l 394 1103 q 364 1122 378 1115 q 336 1128 350 1128 l 336 1128 q 305 1111 318 1128 q 289 1053 292 1094 l 289 1053 l 181 1053 q 220 1218 183 1169 q 325 1267 257 1267 l 325 1267 q 388 1256 361 1267 q 442 1224 414 1244 l 442 1224 q 472 1206 458 1211 q 497 1200 486 1200 l 497 1200 q 529 1217 517 1200 q 544 1278 542 1235 l 544 1278 l 653 1278 q 613 1111 651 1161 q 503 1061 575 1061 z "},"Œ":{"ha":833,"x_min":11,"x_max":822,"o":"m 292 -22 l 292 -22 q 86 103 161 -22 q 11 493 11 229 l 11 493 q 86 883 11 758 q 292 1008 161 1008 l 292 1008 q 413 967 361 1008 q 498 854 464 926 q 549 689 532 782 q 567 492 567 596 l 567 492 q 549 294 567 388 q 498 131 532 201 q 413 19 464 60 q 292 -22 361 -22 z m 311 192 l 311 192 q 346 218 333 192 q 364 310 358 244 q 369 493 369 375 l 369 493 q 364 676 369 611 q 346 768 358 742 q 311 794 333 794 l 311 794 q 277 768 290 794 q 258 676 264 742 q 253 493 253 611 l 253 493 q 258 310 253 375 q 277 218 264 244 q 311 192 290 192 z m 822 0 l 436 0 l 436 986 l 811 986 l 811 767 l 629 767 l 629 601 l 794 601 l 794 388 l 629 388 l 629 219 l 822 219 l 822 0 z "},"P":{"ha":833,"x_min":97,"x_max":778,"o":"m 347 0 l 97 0 l 97 986 l 428 986 q 608 944 529 986 q 733 828 688 901 q 778 658 778 754 l 778 658 q 733 490 778 563 q 608 375 688 417 q 428 333 529 333 l 428 333 l 347 333 l 347 0 z m 347 767 l 347 553 l 403 553 q 492 579 463 553 q 522 658 522 606 l 522 658 q 492 740 522 713 q 403 767 463 767 l 403 767 l 347 767 z "},"Þ":{"ha":833,"x_min":97,"x_max":792,"o":"m 438 192 l 144 192 l 144 408 l 428 408 q 507 433 478 408 q 536 508 536 458 l 536 508 q 507 584 536 560 q 428 608 478 608 l 428 608 l 144 608 l 144 825 l 438 825 q 631 785 553 825 q 751 674 710 744 q 792 510 792 603 l 792 510 q 751 344 792 417 q 631 232 710 272 q 438 192 553 192 l 438 192 z m 347 0 l 97 0 l 97 986 l 347 986 l 347 0 z "},"Q":{"ha":833,"x_min":39,"x_max":794,"o":"m 574 -167 l 435 -167 l 349 361 l 488 361 l 574 -167 z m 417 -22 l 417 -22 q 212 38 296 -22 q 83 212 128 97 q 39 492 39 326 l 39 492 q 83 772 39 657 q 212 948 128 888 q 417 1008 296 1008 l 417 1008 q 622 948 538 1008 q 751 772 707 888 q 794 492 794 657 l 794 492 q 751 212 794 326 q 622 38 707 97 q 417 -22 538 -22 z m 417 192 l 417 192 q 479 200 456 192 q 516 238 503 208 q 534 327 529 267 q 539 492 539 388 l 539 492 q 526 668 539 601 q 485 765 513 735 q 417 794 458 794 l 417 794 q 349 765 376 794 q 308 668 321 735 q 294 492 294 601 l 294 492 q 308 303 294 368 q 349 215 321 239 q 417 192 376 192 z "},"R":{"ha":833,"x_min":78,"x_max":769,"o":"m 328 0 l 78 0 l 78 986 l 408 986 q 660 906 571 986 q 750 689 750 825 l 750 689 q 720 559 750 614 q 636 473 690 504 q 511 436 582 442 l 511 436 l 506 456 q 681 411 624 456 q 747 269 739 367 l 747 269 l 769 0 l 517 0 l 503 192 q 485 284 499 254 q 443 323 471 314 q 369 332 415 332 l 369 332 l 328 332 l 328 0 z m 328 767 l 328 551 l 397 551 q 469 580 444 551 q 494 660 494 608 l 494 660 q 469 739 494 711 q 397 767 444 767 l 397 767 l 328 767 z "},"Ŕ":{"ha":833,"x_min":78,"x_max":769,"o":"m 328 0 l 78 0 l 78 986 l 408 986 q 660 906 571 986 q 750 689 750 825 l 750 689 q 720 559 750 614 q 636 473 690 504 q 511 436 582 442 l 511 436 l 506 456 q 681 411 624 456 q 747 269 739 367 l 747 269 l 769 0 l 517 0 l 503 192 q 485 284 499 254 q 443 323 471 314 q 369 332 415 332 l 369 332 l 328 332 l 328 0 z m 328 767 l 328 551 l 397 551 q 469 580 444 551 q 494 660 494 608 l 494 660 q 469 739 494 711 q 397 767 444 767 l 397 767 l 328 767 z m 506 1051 l 297 1051 l 381 1274 l 631 1274 l 506 1051 z "},"Ř":{"ha":833,"x_min":78,"x_max":769,"o":"m 328 0 l 78 0 l 78 986 l 408 986 q 660 906 571 986 q 750 689 750 825 l 750 689 q 720 559 750 614 q 636 473 690 504 q 511 436 582 442 l 511 436 l 506 456 q 681 411 624 456 q 747 269 739 367 l 747 269 l 769 0 l 517 0 l 503 192 q 485 284 499 254 q 443 323 471 314 q 369 332 415 332 l 369 332 l 328 332 l 328 0 z m 328 767 l 328 551 l 397 551 q 469 580 444 551 q 494 660 494 608 l 494 660 q 469 739 494 711 q 397 767 444 767 l 397 767 l 328 767 z m 304 1051 l 165 1282 l 329 1282 l 421 1133 l 382 1133 l 474 1282 l 638 1282 l 499 1051 l 304 1051 z "},"Ŗ":{"ha":833,"x_min":78,"x_max":769,"o":"m 328 0 l 78 0 l 78 986 l 408 986 q 660 906 571 986 q 750 689 750 825 l 750 689 q 720 559 750 614 q 636 473 690 504 q 511 436 582 442 l 511 436 l 506 456 q 681 411 624 456 q 747 269 739 367 l 747 269 l 769 0 l 517 0 l 503 192 q 485 284 499 254 q 443 323 471 314 q 369 332 415 332 l 369 332 l 328 332 l 328 0 z m 328 767 l 328 551 l 397 551 q 469 580 444 551 q 494 660 494 608 l 494 660 q 469 739 494 711 q 397 767 444 767 l 397 767 l 328 767 z m 404 -364 l 285 -364 l 376 -239 l 310 -239 l 310 -64 l 513 -64 l 513 -219 l 404 -364 z "},"S":{"ha":833,"x_min":56,"x_max":778,"o":"m 419 -22 l 419 -22 q 224 21 303 -22 q 105 146 146 64 q 56 346 64 228 l 56 346 l 303 357 q 328 263 311 300 q 372 209 346 226 q 435 192 399 192 l 435 192 q 483 201 463 192 q 516 228 504 210 q 528 272 528 246 l 528 272 q 512 328 528 304 q 460 369 496 351 q 364 403 424 388 l 364 403 q 203 463 268 428 q 105 553 138 497 q 72 697 72 610 l 72 697 q 112 863 72 793 q 229 971 151 933 q 419 1008 307 1008 l 419 1008 q 604 971 528 1008 q 723 858 681 933 q 771 667 765 782 l 771 667 l 521 657 q 500 733 515 703 q 461 779 485 764 q 407 794 438 794 l 407 794 q 345 774 368 794 q 322 714 322 753 l 322 714 q 338 663 322 685 q 392 624 354 642 q 497 589 431 607 l 497 589 q 664 519 603 561 q 751 419 725 476 q 778 286 778 361 l 778 286 q 736 122 778 190 q 615 15 694 53 q 419 -22 535 -22 z "},"Ś":{"ha":833,"x_min":56,"x_max":778,"o":"m 419 -22 l 419 -22 q 224 21 303 -22 q 105 146 146 64 q 56 346 64 228 l 56 346 l 303 357 q 328 263 311 300 q 372 209 346 226 q 435 192 399 192 l 435 192 q 483 201 463 192 q 516 228 504 210 q 528 272 528 246 l 528 272 q 512 328 528 304 q 460 369 496 351 q 364 403 424 388 l 364 403 q 203 463 268 428 q 105 553 138 497 q 72 697 72 610 l 72 697 q 112 863 72 793 q 229 971 151 933 q 419 1008 307 1008 l 419 1008 q 604 971 528 1008 q 723 858 681 933 q 771 667 765 782 l 771 667 l 521 657 q 500 733 515 703 q 461 779 485 764 q 407 794 438 794 l 407 794 q 345 774 368 794 q 322 714 322 753 l 322 714 q 338 663 322 685 q 392 624 354 642 q 497 589 431 607 l 497 589 q 664 519 603 561 q 751 419 725 476 q 778 286 778 361 l 778 286 q 736 122 778 190 q 615 15 694 53 q 419 -22 535 -22 z m 528 1051 l 319 1051 l 403 1274 l 653 1274 l 528 1051 z "},"Š":{"ha":833,"x_min":56,"x_max":778,"o":"m 419 -22 l 419 -22 q 224 21 303 -22 q 105 146 146 64 q 56 346 64 228 l 56 346 l 303 357 q 328 263 311 300 q 372 209 346 226 q 435 192 399 192 l 435 192 q 483 201 463 192 q 516 228 504 210 q 528 272 528 246 l 528 272 q 512 328 528 304 q 460 369 496 351 q 364 403 424 388 l 364 403 q 203 463 268 428 q 105 553 138 497 q 72 697 72 610 l 72 697 q 112 863 72 793 q 229 971 151 933 q 419 1008 307 1008 l 419 1008 q 604 971 528 1008 q 723 858 681 933 q 771 667 765 782 l 771 667 l 521 657 q 500 733 515 703 q 461 779 485 764 q 407 794 438 794 l 407 794 q 345 774 368 794 q 322 714 322 753 l 322 714 q 338 663 322 685 q 392 624 354 642 q 497 589 431 607 l 497 589 q 664 519 603 561 q 751 419 725 476 q 778 286 778 361 l 778 286 q 736 122 778 190 q 615 15 694 53 q 419 -22 535 -22 z m 326 1051 l 188 1282 l 351 1282 l 443 1133 l 404 1133 l 496 1282 l 660 1282 l 521 1051 l 326 1051 z "},"Ş":{"ha":833,"x_min":56,"x_max":778,"o":"m 419 -22 l 419 -22 q 224 21 303 -22 q 105 146 146 64 q 56 346 64 228 l 56 346 l 303 357 q 328 263 311 300 q 372 209 346 226 q 435 192 399 192 l 435 192 q 483 201 463 192 q 516 228 504 210 q 528 272 528 246 l 528 272 q 512 328 528 304 q 460 369 496 351 q 364 403 424 388 l 364 403 q 203 463 268 428 q 105 553 138 497 q 72 697 72 610 l 72 697 q 112 863 72 793 q 229 971 151 933 q 419 1008 307 1008 l 419 1008 q 604 971 528 1008 q 723 858 681 933 q 771 667 765 782 l 771 667 l 521 657 q 500 733 515 703 q 461 779 485 764 q 407 794 438 794 l 407 794 q 345 774 368 794 q 322 714 322 753 l 322 714 q 338 663 322 685 q 392 624 354 642 q 497 589 431 607 l 497 589 q 664 519 603 561 q 751 419 725 476 q 778 286 778 361 l 778 286 q 736 122 778 190 q 615 15 694 53 q 419 -22 535 -22 z m 426 -333 l 426 -333 q 306 -301 354 -333 q 238 -214 258 -268 l 238 -214 l 343 -167 q 372 -203 354 -190 q 421 -217 390 -217 l 421 -217 q 465 -204 449 -217 q 482 -169 482 -192 l 482 -169 q 466 -133 482 -146 q 401 -119 450 -119 l 401 -119 l 333 -58 l 374 14 l 514 14 l 482 -39 q 584 -86 553 -47 q 615 -175 615 -125 l 615 -175 q 589 -267 615 -232 q 520 -317 563 -301 q 426 -333 478 -333 z "},"Ŝ":{"ha":833,"x_min":56,"x_max":778,"o":"m 419 -22 l 419 -22 q 224 21 303 -22 q 105 146 146 64 q 56 346 64 228 l 56 346 l 303 357 q 328 263 311 300 q 372 209 346 226 q 435 192 399 192 l 435 192 q 483 201 463 192 q 516 228 504 210 q 528 272 528 246 l 528 272 q 512 328 528 304 q 460 369 496 351 q 364 403 424 388 l 364 403 q 203 463 268 428 q 105 553 138 497 q 72 697 72 610 l 72 697 q 112 863 72 793 q 229 971 151 933 q 419 1008 307 1008 l 419 1008 q 604 971 528 1008 q 723 858 681 933 q 771 667 765 782 l 771 667 l 521 657 q 500 733 515 703 q 461 779 485 764 q 407 794 438 794 l 407 794 q 345 774 368 794 q 322 714 322 753 l 322 714 q 338 663 322 685 q 392 624 354 642 q 497 589 431 607 l 497 589 q 664 519 603 561 q 751 419 725 476 q 778 286 778 361 l 778 286 q 736 122 778 190 q 615 15 694 53 q 419 -22 535 -22 z m 351 1051 l 188 1051 l 326 1282 l 521 1282 l 660 1051 l 496 1051 l 404 1200 l 443 1200 l 351 1051 z "},"Ș":{"ha":833,"x_min":56,"x_max":778,"o":"m 419 -22 l 419 -22 q 224 21 303 -22 q 105 146 146 64 q 56 346 64 228 l 56 346 l 303 357 q 328 263 311 300 q 372 209 346 226 q 435 192 399 192 l 435 192 q 483 201 463 192 q 516 228 504 210 q 528 272 528 246 l 528 272 q 512 328 528 304 q 460 369 496 351 q 364 403 424 388 l 364 403 q 203 463 268 428 q 105 553 138 497 q 72 697 72 610 l 72 697 q 112 863 72 793 q 229 971 151 933 q 419 1008 307 1008 l 419 1008 q 604 971 528 1008 q 723 858 681 933 q 771 667 765 782 l 771 667 l 521 657 q 500 733 515 703 q 461 779 485 764 q 407 794 438 794 l 407 794 q 345 774 368 794 q 322 714 322 753 l 322 714 q 338 663 322 685 q 392 624 354 642 q 497 589 431 607 l 497 589 q 664 519 603 561 q 751 419 725 476 q 778 286 778 361 l 778 286 q 736 122 778 190 q 615 15 694 53 q 419 -22 535 -22 z m 419 -364 l 300 -364 l 392 -239 l 325 -239 l 325 -64 l 528 -64 l 528 -219 l 419 -364 z "},"ẞ":{"ha":833,"x_min":14,"x_max":819,"o":"m 264 0 l 14 0 l 14 632 q 104 894 14 803 q 358 986 194 986 l 358 986 l 778 986 l 778 760 l 586 575 q 713 530 661 565 q 792 437 765 494 q 819 301 819 379 l 819 301 q 779 135 819 203 q 660 34 739 68 q 464 0 581 0 l 464 0 l 310 0 l 310 218 l 440 218 q 515 226 488 218 q 553 256 542 235 q 564 313 564 276 l 564 313 q 534 386 564 363 q 440 410 504 410 l 440 410 l 365 410 l 365 583 l 528 768 l 386 768 q 293 735 322 768 q 264 632 264 703 l 264 632 l 264 0 z "},"T":{"ha":833,"x_min":56,"x_max":778,"o":"m 542 0 l 292 0 l 292 767 l 56 767 l 56 986 l 778 986 l 778 767 l 542 767 l 542 0 z "},"Ŧ":{"ha":833,"x_min":56,"x_max":778,"o":"m 542 0 l 292 0 l 292 767 l 56 767 l 56 986 l 778 986 l 778 767 l 542 767 l 542 0 z m 667 336 l 167 336 l 167 531 l 667 531 l 667 336 z "},"Ť":{"ha":833,"x_min":56,"x_max":778,"o":"m 542 0 l 292 0 l 292 767 l 56 767 l 56 986 l 778 986 l 778 767 l 542 767 l 542 0 z m 319 1051 l 181 1282 l 344 1282 l 436 1133 l 397 1133 l 489 1282 l 653 1282 l 514 1051 l 319 1051 z "},"Ţ":{"ha":833,"x_min":56,"x_max":778,"o":"m 542 0 l 292 0 l 292 767 l 56 767 l 56 986 l 778 986 l 778 767 l 542 767 l 542 0 z m 417 -333 l 417 -333 q 297 -301 344 -333 q 228 -214 249 -268 l 228 -214 l 333 -167 q 363 -203 344 -190 q 411 -217 381 -217 l 411 -217 q 456 -204 439 -217 q 472 -169 472 -192 l 472 -169 q 456 -133 472 -146 q 392 -119 440 -119 l 392 -119 l 324 -58 l 364 14 l 504 14 l 472 -39 q 574 -86 543 -47 q 606 -175 606 -125 l 606 -175 q 579 -267 606 -232 q 510 -317 553 -301 q 417 -333 468 -333 z "},"Ț":{"ha":833,"x_min":56,"x_max":778,"o":"m 542 0 l 292 0 l 292 767 l 56 767 l 56 986 l 778 986 l 778 767 l 542 767 l 542 0 z m 410 -364 l 290 -364 l 382 -239 l 315 -239 l 315 -64 l 518 -64 l 518 -219 l 410 -364 z "},"U":{"ha":833,"x_min":69,"x_max":764,"o":"m 417 -22 l 417 -22 q 160 68 250 -22 q 69 339 69 158 l 69 339 l 69 988 l 319 988 l 319 311 q 344 224 319 256 q 417 192 369 192 l 417 192 q 489 224 464 192 q 514 311 514 256 l 514 311 l 514 988 l 764 988 l 764 339 q 674 68 764 158 q 417 -22 583 -22 z "},"Ú":{"ha":833,"x_min":69,"x_max":764,"o":"m 417 -22 l 417 -22 q 160 68 250 -22 q 69 339 69 158 l 69 339 l 69 988 l 319 988 l 319 311 q 344 224 319 256 q 417 192 369 192 l 417 192 q 489 224 464 192 q 514 311 514 256 l 514 311 l 514 988 l 764 988 l 764 339 q 674 68 764 158 q 417 -22 583 -22 z m 521 1051 l 313 1051 l 396 1274 l 646 1274 l 521 1051 z "},"Ŭ":{"ha":833,"x_min":69,"x_max":764,"o":"m 417 -22 l 417 -22 q 160 68 250 -22 q 69 339 69 158 l 69 339 l 69 988 l 319 988 l 319 311 q 344 224 319 256 q 417 192 369 192 l 417 192 q 489 224 464 192 q 514 311 514 256 l 514 311 l 514 988 l 764 988 l 764 339 q 674 68 764 158 q 417 -22 583 -22 z m 417 1047 l 417 1047 q 260 1108 321 1047 q 194 1269 199 1168 l 194 1269 l 331 1269 q 359 1199 335 1218 q 417 1181 383 1181 l 417 1181 q 474 1199 450 1181 q 503 1269 499 1218 l 503 1269 l 639 1269 q 574 1108 635 1168 q 417 1047 513 1047 z "},"Û":{"ha":833,"x_min":69,"x_max":764,"o":"m 417 -22 l 417 -22 q 160 68 250 -22 q 69 339 69 158 l 69 339 l 69 988 l 319 988 l 319 311 q 344 224 319 256 q 417 192 369 192 l 417 192 q 489 224 464 192 q 514 311 514 256 l 514 311 l 514 988 l 764 988 l 764 339 q 674 68 764 158 q 417 -22 583 -22 z m 344 1051 l 181 1051 l 319 1282 l 514 1282 l 653 1051 l 489 1051 l 397 1200 l 436 1200 l 344 1051 z "},"Ü":{"ha":833,"x_min":69,"x_max":764,"o":"m 417 -22 l 417 -22 q 160 68 250 -22 q 69 339 69 158 l 69 339 l 69 988 l 319 988 l 319 311 q 344 224 319 256 q 417 192 369 192 l 417 192 q 489 224 464 192 q 514 311 514 256 l 514 311 l 514 988 l 764 988 l 764 339 q 674 68 764 158 q 417 -22 583 -22 z m 374 1061 l 124 1061 l 124 1250 l 374 1250 l 374 1061 z m 710 1061 l 460 1061 l 460 1250 l 710 1250 l 710 1061 z "},"Ụ":{"ha":833,"x_min":69,"x_max":764,"o":"m 417 -22 l 417 -22 q 160 68 250 -22 q 69 339 69 158 l 69 339 l 69 988 l 319 988 l 319 311 q 344 224 319 256 q 417 192 369 192 l 417 192 q 489 224 464 192 q 514 311 514 256 l 514 311 l 514 988 l 764 988 l 764 339 q 674 68 764 158 q 417 -22 583 -22 z m 525 -222 l 308 -222 l 308 -53 l 525 -53 l 525 -222 z "},"Ù":{"ha":833,"x_min":69,"x_max":764,"o":"m 417 -22 l 417 -22 q 160 68 250 -22 q 69 339 69 158 l 69 339 l 69 988 l 319 988 l 319 311 q 344 224 319 256 q 417 192 369 192 l 417 192 q 489 224 464 192 q 514 311 514 256 l 514 311 l 514 988 l 764 988 l 764 339 q 674 68 764 158 q 417 -22 583 -22 z m 528 1050 l 319 1050 l 194 1272 l 444 1272 l 528 1050 z "},"Ủ":{"ha":833,"x_min":69,"x_max":764,"o":"m 417 -22 l 417 -22 q 160 68 250 -22 q 69 339 69 158 l 69 339 l 69 988 l 319 988 l 319 311 q 344 224 319 256 q 417 192 369 192 l 417 192 q 489 224 464 192 q 514 311 514 256 l 514 311 l 514 988 l 764 988 l 764 339 q 674 68 764 158 q 417 -22 583 -22 z m 492 1051 l 492 1051 l 339 1051 q 376 1103 364 1081 q 389 1146 389 1125 l 389 1146 q 379 1171 389 1163 q 344 1179 369 1179 l 344 1179 q 315 1177 331 1179 q 286 1171 299 1175 l 286 1171 l 286 1290 q 325 1296 297 1293 q 392 1299 353 1299 l 392 1299 q 511 1267 478 1299 q 544 1179 544 1236 l 544 1179 q 526 1102 544 1133 q 492 1051 508 1071 z "},"Ư":{"ha":833,"x_min":22,"x_max":811,"o":"m 364 -22 l 364 -22 q 112 68 201 -22 q 22 339 22 158 l 22 339 l 22 986 l 272 986 l 272 311 q 296 224 272 256 q 364 192 319 192 l 364 192 q 432 224 408 192 q 456 311 456 256 l 456 311 l 456 986 l 706 986 l 706 339 q 616 68 706 158 q 364 -22 526 -22 z m 558 875 l 467 875 l 456 986 l 526 986 q 590 1006 568 986 q 613 1067 613 1025 l 613 1067 q 606 1142 613 1103 q 593 1206 600 1181 l 593 1206 l 792 1206 q 806 1143 800 1179 q 811 1067 811 1107 l 811 1067 q 753 922 811 968 q 558 875 694 875 l 558 875 z "},"Ứ":{"ha":833,"x_min":22,"x_max":811,"o":"m 364 -22 l 364 -22 q 112 68 201 -22 q 22 339 22 158 l 22 339 l 22 986 l 272 986 l 272 311 q 296 224 272 256 q 364 192 319 192 l 364 192 q 432 224 408 192 q 456 311 456 256 l 456 311 l 456 986 l 706 986 l 706 339 q 616 68 706 158 q 364 -22 526 -22 z m 558 875 l 467 875 l 456 986 l 526 986 q 590 1006 568 986 q 613 1067 613 1025 l 613 1067 q 606 1142 613 1103 q 593 1206 600 1181 l 593 1206 l 792 1206 q 806 1143 800 1179 q 811 1067 811 1107 l 811 1067 q 753 922 811 968 q 558 875 694 875 l 558 875 z m 440 1051 l 232 1051 l 315 1274 l 565 1274 l 440 1051 z "},"Ự":{"ha":833,"x_min":22,"x_max":811,"o":"m 364 -22 l 364 -22 q 112 68 201 -22 q 22 339 22 158 l 22 339 l 22 986 l 272 986 l 272 311 q 296 224 272 256 q 364 192 319 192 l 364 192 q 432 224 408 192 q 456 311 456 256 l 456 311 l 456 986 l 706 986 l 706 339 q 616 68 706 158 q 364 -22 526 -22 z m 558 875 l 467 875 l 456 986 l 526 986 q 590 1006 568 986 q 613 1067 613 1025 l 613 1067 q 606 1142 613 1103 q 593 1206 600 1181 l 593 1206 l 792 1206 q 806 1143 800 1179 q 811 1067 811 1107 l 811 1067 q 753 922 811 968 q 558 875 694 875 l 558 875 z m 472 -222 l 256 -222 l 256 -53 l 472 -53 l 472 -222 z "},"Ừ":{"ha":833,"x_min":22,"x_max":811,"o":"m 364 -22 l 364 -22 q 112 68 201 -22 q 22 339 22 158 l 22 339 l 22 986 l 272 986 l 272 311 q 296 224 272 256 q 364 192 319 192 l 364 192 q 432 224 408 192 q 456 311 456 256 l 456 311 l 456 986 l 706 986 l 706 339 q 616 68 706 158 q 364 -22 526 -22 z m 558 875 l 467 875 l 456 986 l 526 986 q 590 1006 568 986 q 613 1067 613 1025 l 613 1067 q 606 1142 613 1103 q 593 1206 600 1181 l 593 1206 l 792 1206 q 806 1143 800 1179 q 811 1067 811 1107 l 811 1067 q 753 922 811 968 q 558 875 694 875 l 558 875 z m 447 1050 l 239 1050 l 114 1272 l 364 1272 l 447 1050 z "},"Ử":{"ha":833,"x_min":22,"x_max":811,"o":"m 364 -22 l 364 -22 q 112 68 201 -22 q 22 339 22 158 l 22 339 l 22 986 l 272 986 l 272 311 q 296 224 272 256 q 364 192 319 192 l 364 192 q 432 224 408 192 q 456 311 456 256 l 456 311 l 456 986 l 706 986 l 706 339 q 616 68 706 158 q 364 -22 526 -22 z m 558 875 l 467 875 l 456 986 l 526 986 q 590 1006 568 986 q 613 1067 613 1025 l 613 1067 q 606 1142 613 1103 q 593 1206 600 1181 l 593 1206 l 792 1206 q 806 1143 800 1179 q 811 1067 811 1107 l 811 1067 q 753 922 811 968 q 558 875 694 875 l 558 875 z m 411 1051 l 411 1051 l 258 1051 q 296 1103 283 1081 q 308 1146 308 1125 l 308 1146 q 299 1171 308 1163 q 264 1179 289 1179 l 264 1179 q 234 1177 250 1179 q 206 1171 218 1175 l 206 1171 l 206 1290 q 244 1296 217 1293 q 311 1299 272 1299 l 311 1299 q 431 1267 397 1299 q 464 1179 464 1236 l 464 1179 q 446 1102 464 1133 q 411 1051 428 1071 z "},"Ữ":{"ha":833,"x_min":22,"x_max":811,"o":"m 364 -22 l 364 -22 q 112 68 201 -22 q 22 339 22 158 l 22 339 l 22 986 l 272 986 l 272 311 q 296 224 272 256 q 364 192 319 192 l 364 192 q 432 224 408 192 q 456 311 456 256 l 456 311 l 456 986 l 706 986 l 706 339 q 616 68 706 158 q 364 -22 526 -22 z m 558 875 l 467 875 l 456 986 l 526 986 q 590 1006 568 986 q 613 1067 613 1025 l 613 1067 q 606 1142 613 1103 q 593 1206 600 1181 l 593 1206 l 792 1206 q 806 1143 800 1179 q 811 1067 811 1107 l 811 1067 q 753 922 811 968 q 558 875 694 875 l 558 875 z m 422 1061 l 422 1061 q 365 1072 389 1061 q 314 1103 340 1083 l 314 1103 q 283 1122 297 1115 q 256 1128 269 1128 l 256 1128 q 224 1111 238 1128 q 208 1053 211 1094 l 208 1053 l 100 1053 q 140 1218 103 1169 q 244 1267 176 1267 l 244 1267 q 307 1256 281 1267 q 361 1224 333 1244 l 361 1224 q 392 1206 378 1211 q 417 1200 406 1200 l 417 1200 q 449 1217 436 1200 q 464 1278 461 1235 l 464 1278 l 572 1278 q 533 1111 571 1161 q 422 1061 494 1061 z "},"Ű":{"ha":833,"x_min":69,"x_max":778,"o":"m 417 -22 l 417 -22 q 160 68 250 -22 q 69 339 69 158 l 69 339 l 69 988 l 319 988 l 319 311 q 344 224 319 256 q 417 192 369 192 l 417 192 q 489 224 464 192 q 514 311 514 256 l 514 311 l 514 988 l 764 988 l 764 339 q 674 68 764 158 q 417 -22 583 -22 z m 375 1047 l 167 1047 l 250 1269 l 500 1269 l 375 1047 z m 653 1047 l 444 1047 l 528 1269 l 778 1269 l 653 1047 z "},"Ū":{"ha":833,"x_min":69,"x_max":764,"o":"m 417 -22 l 417 -22 q 160 68 250 -22 q 69 339 69 158 l 69 339 l 69 988 l 319 988 l 319 311 q 344 224 319 256 q 417 192 369 192 l 417 192 q 489 224 464 192 q 514 311 514 256 l 514 311 l 514 988 l 764 988 l 764 339 q 674 68 764 158 q 417 -22 583 -22 z m 625 1067 l 208 1067 l 208 1233 l 625 1233 l 625 1067 z "},"Ų":{"ha":833,"x_min":69,"x_max":764,"o":"m 417 -22 l 417 -22 q 160 68 250 -22 q 69 339 69 158 l 69 339 l 69 988 l 319 988 l 319 311 q 344 224 319 256 q 417 192 369 192 l 417 192 q 489 224 464 192 q 514 311 514 256 l 514 311 l 514 988 l 764 988 l 764 339 q 674 68 764 158 q 417 -22 583 -22 z m 431 -308 l 431 -308 q 317 -272 358 -308 q 275 -178 275 -235 l 275 -178 q 291 -104 275 -137 q 333 -36 307 -71 l 333 -36 l 383 28 l 550 0 l 508 -54 q 476 -101 486 -83 q 467 -133 467 -118 l 467 -133 q 477 -156 467 -147 q 503 -164 488 -164 l 503 -164 q 536 -157 519 -164 q 563 -143 553 -150 l 563 -143 l 600 -264 q 531 -294 578 -279 q 431 -308 485 -308 z "},"Ů":{"ha":833,"x_min":69,"x_max":764,"o":"m 417 -22 l 417 -22 q 160 68 250 -22 q 69 339 69 158 l 69 339 l 69 988 l 319 988 l 319 311 q 344 224 319 256 q 417 192 369 192 l 417 192 q 489 224 464 192 q 514 311 514 256 l 514 311 l 514 988 l 764 988 l 764 339 q 674 68 764 158 q 417 -22 583 -22 z m 415 1033 l 415 1033 q 304 1076 349 1033 q 260 1183 260 1119 l 260 1183 q 304 1291 260 1249 q 415 1333 349 1333 l 415 1333 q 526 1291 482 1333 q 571 1183 571 1249 l 571 1183 q 526 1076 571 1119 q 415 1033 482 1033 z m 415 1128 l 415 1128 q 454 1143 440 1128 q 468 1183 468 1158 l 468 1183 q 454 1224 468 1208 q 415 1239 440 1239 l 415 1239 q 376 1224 390 1239 q 363 1183 363 1208 l 363 1183 q 376 1143 363 1158 q 415 1128 390 1128 z "},"Ũ":{"ha":833,"x_min":69,"x_max":764,"o":"m 417 -22 l 417 -22 q 160 68 250 -22 q 69 339 69 158 l 69 339 l 69 988 l 319 988 l 319 311 q 344 224 319 256 q 417 192 369 192 l 417 192 q 489 224 464 192 q 514 311 514 256 l 514 311 l 514 988 l 764 988 l 764 339 q 674 68 764 158 q 417 -22 583 -22 z m 503 1061 l 503 1061 q 445 1072 469 1061 q 394 1103 421 1083 l 394 1103 q 364 1122 378 1115 q 336 1128 350 1128 l 336 1128 q 305 1111 318 1128 q 289 1053 292 1094 l 289 1053 l 181 1053 q 220 1218 183 1169 q 325 1267 257 1267 l 325 1267 q 388 1256 361 1267 q 442 1224 414 1244 l 442 1224 q 472 1206 458 1211 q 497 1200 486 1200 l 497 1200 q 529 1217 517 1200 q 544 1278 542 1235 l 544 1278 l 653 1278 q 613 1111 651 1161 q 503 1061 575 1061 z "},"V":{"ha":833,"x_min":19,"x_max":814,"o":"m 533 0 l 300 0 l 19 986 l 283 986 l 458 278 l 375 278 l 550 986 l 814 986 l 533 0 z "},"W":{"ha":833,"x_min":28,"x_max":806,"o":"m 353 0 l 125 0 l 28 986 l 256 986 l 297 319 l 275 319 l 354 875 l 479 875 l 558 319 l 536 319 l 578 986 l 806 986 l 708 0 l 481 0 l 400 500 l 433 500 l 353 0 z "},"Ẃ":{"ha":833,"x_min":28,"x_max":806,"o":"m 353 0 l 125 0 l 28 986 l 256 986 l 297 319 l 275 319 l 354 875 l 479 875 l 558 319 l 536 319 l 578 986 l 806 986 l 708 0 l 481 0 l 400 500 l 433 500 l 353 0 z m 521 1051 l 313 1051 l 396 1274 l 646 1274 l 521 1051 z "},"Ŵ":{"ha":833,"x_min":28,"x_max":806,"o":"m 353 0 l 125 0 l 28 986 l 256 986 l 297 319 l 275 319 l 354 875 l 479 875 l 558 319 l 536 319 l 578 986 l 806 986 l 708 0 l 481 0 l 400 500 l 433 500 l 353 0 z m 344 1051 l 181 1051 l 319 1282 l 514 1282 l 653 1051 l 489 1051 l 397 1200 l 436 1200 l 344 1051 z "},"Ẅ":{"ha":833,"x_min":28,"x_max":806,"o":"m 353 0 l 125 0 l 28 986 l 256 986 l 297 319 l 275 319 l 354 875 l 479 875 l 558 319 l 536 319 l 578 986 l 806 986 l 708 0 l 481 0 l 400 500 l 433 500 l 353 0 z m 374 1061 l 124 1061 l 124 1250 l 374 1250 l 374 1061 z m 710 1061 l 460 1061 l 460 1250 l 710 1250 l 710 1061 z "},"Ẁ":{"ha":833,"x_min":28,"x_max":806,"o":"m 353 0 l 125 0 l 28 986 l 256 986 l 297 319 l 275 319 l 354 875 l 479 875 l 558 319 l 536 319 l 578 986 l 806 986 l 708 0 l 481 0 l 400 500 l 433 500 l 353 0 z m 528 1050 l 319 1050 l 194 1272 l 444 1272 l 528 1050 z "},"X":{"ha":833,"x_min":33,"x_max":800,"o":"m 297 0 l 33 0 l 244 497 l 36 986 l 306 986 l 419 675 l 533 986 l 797 986 l 589 494 l 800 0 l 531 0 l 414 319 l 297 0 z "},"Y":{"ha":833,"x_min":33,"x_max":800,"o":"m 542 0 l 292 0 l 292 417 l 33 986 l 297 986 l 417 675 l 536 986 l 800 986 l 542 417 l 542 0 z "},"Ý":{"ha":833,"x_min":33,"x_max":800,"o":"m 542 0 l 292 0 l 292 417 l 33 986 l 297 986 l 417 675 l 536 986 l 800 986 l 542 417 l 542 0 z m 521 1051 l 313 1051 l 396 1274 l 646 1274 l 521 1051 z "},"Ŷ":{"ha":833,"x_min":33,"x_max":800,"o":"m 542 0 l 292 0 l 292 417 l 33 986 l 297 986 l 417 675 l 536 986 l 800 986 l 542 417 l 542 0 z m 344 1051 l 181 1051 l 319 1282 l 514 1282 l 653 1051 l 489 1051 l 397 1200 l 436 1200 l 344 1051 z "},"Ÿ":{"ha":833,"x_min":33,"x_max":800,"o":"m 542 0 l 292 0 l 292 417 l 33 986 l 297 986 l 417 675 l 536 986 l 800 986 l 542 417 l 542 0 z m 374 1061 l 124 1061 l 124 1250 l 374 1250 l 374 1061 z m 710 1061 l 460 1061 l 460 1250 l 710 1250 l 710 1061 z "},"Ỵ":{"ha":833,"x_min":33,"x_max":800,"o":"m 542 0 l 292 0 l 292 417 l 33 986 l 297 986 l 417 675 l 536 986 l 800 986 l 542 417 l 542 0 z m 528 -222 l 311 -222 l 311 -53 l 528 -53 l 528 -222 z "},"Ỳ":{"ha":833,"x_min":33,"x_max":800,"o":"m 542 0 l 292 0 l 292 417 l 33 986 l 297 986 l 417 675 l 536 986 l 800 986 l 542 417 l 542 0 z m 528 1050 l 319 1050 l 194 1272 l 444 1272 l 528 1050 z "},"Ỷ":{"ha":833,"x_min":33,"x_max":800,"o":"m 542 0 l 292 0 l 292 417 l 33 986 l 297 986 l 417 675 l 536 986 l 800 986 l 542 417 l 542 0 z m 492 1051 l 492 1051 l 339 1051 q 376 1103 364 1081 q 389 1146 389 1125 l 389 1146 q 379 1171 389 1163 q 344 1179 369 1179 l 344 1179 q 315 1177 331 1179 q 286 1171 299 1175 l 286 1171 l 286 1290 q 325 1296 297 1293 q 392 1299 353 1299 l 392 1299 q 511 1267 478 1299 q 544 1179 544 1236 l 544 1179 q 526 1102 544 1133 q 492 1051 508 1071 z "},"Ỹ":{"ha":833,"x_min":33,"x_max":800,"o":"m 542 0 l 292 0 l 292 417 l 33 986 l 297 986 l 417 675 l 536 986 l 800 986 l 542 417 l 542 0 z m 503 1061 l 503 1061 q 445 1072 469 1061 q 394 1103 421 1083 l 394 1103 q 364 1122 378 1115 q 336 1128 350 1128 l 336 1128 q 305 1111 318 1128 q 289 1053 292 1094 l 289 1053 l 181 1053 q 220 1218 183 1169 q 325 1267 257 1267 l 325 1267 q 388 1256 361 1267 q 442 1224 414 1244 l 442 1224 q 472 1206 458 1211 q 497 1200 486 1200 l 497 1200 q 529 1217 517 1200 q 544 1278 542 1235 l 544 1278 l 653 1278 q 613 1111 651 1161 q 503 1061 575 1061 z "},"Z":{"ha":833,"x_min":56,"x_max":778,"o":"m 778 0 l 56 0 l 56 217 l 469 767 l 81 767 l 81 986 l 767 986 l 767 769 l 361 219 l 778 219 l 778 0 z "},"Ź":{"ha":833,"x_min":56,"x_max":778,"o":"m 778 0 l 56 0 l 56 217 l 469 767 l 81 767 l 81 986 l 767 986 l 767 769 l 361 219 l 778 219 l 778 0 z m 521 1051 l 313 1051 l 396 1274 l 646 1274 l 521 1051 z "},"Ž":{"ha":833,"x_min":56,"x_max":778,"o":"m 778 0 l 56 0 l 56 217 l 469 767 l 81 767 l 81 986 l 767 986 l 767 769 l 361 219 l 778 219 l 778 0 z m 319 1051 l 181 1282 l 344 1282 l 436 1133 l 397 1133 l 489 1282 l 653 1282 l 514 1051 l 319 1051 z "},"Ż":{"ha":833,"x_min":56,"x_max":778,"o":"m 778 0 l 56 0 l 56 217 l 469 767 l 81 767 l 81 986 l 767 986 l 767 769 l 361 219 l 778 219 l 778 0 z m 535 1061 l 299 1061 l 299 1244 l 535 1244 l 535 1061 z "},"Ꞌ":{"ha":833,"x_min":292,"x_max":542,"o":"m 525 458 l 310 458 l 292 764 l 292 986 l 542 986 l 542 764 l 525 458 z "},"a":{"ha":833,"x_min":56,"x_max":778,"o":"m 306 -17 l 306 -17 q 181 8 238 -17 q 90 82 124 33 q 56 200 56 131 l 56 200 q 119 347 56 294 q 278 422 182 400 l 278 422 l 486 469 q 467 556 486 524 q 394 589 449 589 l 394 589 q 329 565 351 589 q 303 508 307 540 l 303 508 l 61 519 q 170 699 82 632 q 389 767 258 767 l 389 767 q 645 685 568 767 q 722 453 722 603 l 722 453 l 722 219 q 732 178 722 189 q 758 167 742 167 l 758 167 l 778 167 l 778 0 q 749 -5 769 -1 q 706 -8 729 -8 l 706 -8 q 601 14 644 -8 q 535 76 558 36 q 510 169 513 117 l 510 169 l 529 169 q 498 74 525 117 q 423 8 471 32 q 306 -17 375 -17 z m 363 150 l 363 150 q 428 165 400 150 q 471 209 456 179 q 486 283 486 239 l 486 283 l 486 314 l 361 283 q 312 258 326 275 q 297 208 297 242 l 297 208 q 313 166 297 182 q 363 150 329 150 z "},"á":{"ha":833,"x_min":56,"x_max":778,"o":"m 306 -17 l 306 -17 q 181 8 238 -17 q 90 82 124 33 q 56 200 56 131 l 56 200 q 119 347 56 294 q 278 422 182 400 l 278 422 l 486 469 q 467 556 486 524 q 394 589 449 589 l 394 589 q 329 565 351 589 q 303 508 307 540 l 303 508 l 61 519 q 170 699 82 632 q 389 767 258 767 l 389 767 q 645 685 568 767 q 722 453 722 603 l 722 453 l 722 219 q 732 178 722 189 q 758 167 742 167 l 758 167 l 778 167 l 778 0 q 749 -5 769 -1 q 706 -8 729 -8 l 706 -8 q 601 14 644 -8 q 535 76 558 36 q 510 169 513 117 l 510 169 l 529 169 q 498 74 525 117 q 423 8 471 32 q 306 -17 375 -17 z m 363 150 l 363 150 q 428 165 400 150 q 471 209 456 179 q 486 283 486 239 l 486 283 l 486 314 l 361 283 q 312 258 326 275 q 297 208 297 242 l 297 208 q 313 166 297 182 q 363 150 329 150 z m 499 815 l 290 815 l 374 1038 l 624 1038 l 499 815 z "},"ă":{"ha":833,"x_min":56,"x_max":778,"o":"m 306 -17 l 306 -17 q 181 8 238 -17 q 90 82 124 33 q 56 200 56 131 l 56 200 q 119 347 56 294 q 278 422 182 400 l 278 422 l 486 469 q 467 556 486 524 q 394 589 449 589 l 394 589 q 329 565 351 589 q 303 508 307 540 l 303 508 l 61 519 q 170 699 82 632 q 389 767 258 767 l 389 767 q 645 685 568 767 q 722 453 722 603 l 722 453 l 722 219 q 732 178 722 189 q 758 167 742 167 l 758 167 l 778 167 l 778 0 q 749 -5 769 -1 q 706 -8 729 -8 l 706 -8 q 601 14 644 -8 q 535 76 558 36 q 510 169 513 117 l 510 169 l 529 169 q 498 74 525 117 q 423 8 471 32 q 306 -17 375 -17 z m 363 150 l 363 150 q 428 165 400 150 q 471 209 456 179 q 486 283 486 239 l 486 283 l 486 314 l 361 283 q 312 258 326 275 q 297 208 297 242 l 297 208 q 313 166 297 182 q 363 150 329 150 z m 394 811 l 394 811 q 238 872 299 811 q 172 1033 176 932 l 172 1033 l 308 1033 q 337 963 313 982 q 394 944 361 944 l 394 944 q 452 963 428 944 q 481 1033 476 982 l 481 1033 l 617 1033 q 551 872 613 932 q 394 811 490 811 z "},"ắ":{"ha":833,"x_min":56,"x_max":778,"o":"m 306 -17 l 306 -17 q 181 8 238 -17 q 90 82 124 33 q 56 200 56 131 l 56 200 q 119 347 56 294 q 278 422 182 400 l 278 422 l 486 469 q 467 556 486 524 q 394 589 449 589 l 394 589 q 329 565 351 589 q 303 508 307 540 l 303 508 l 61 519 q 170 699 82 632 q 389 767 258 767 l 389 767 q 645 685 568 767 q 722 453 722 603 l 722 453 l 722 219 q 732 178 722 189 q 758 167 742 167 l 758 167 l 778 167 l 778 0 q 749 -5 769 -1 q 706 -8 729 -8 l 706 -8 q 601 14 644 -8 q 535 76 558 36 q 510 169 513 117 l 510 169 l 529 169 q 498 74 525 117 q 423 8 471 32 q 306 -17 375 -17 z m 363 150 l 363 150 q 428 165 400 150 q 471 209 456 179 q 486 283 486 239 l 486 283 l 486 314 l 361 283 q 312 258 326 275 q 297 208 297 242 l 297 208 q 313 166 297 182 q 363 150 329 150 z m 482 1053 l 307 1053 l 388 1247 l 604 1247 l 482 1053 z m 394 803 l 394 803 q 238 863 299 803 q 172 1025 176 924 l 172 1025 l 308 1025 q 337 955 313 974 q 394 936 361 936 l 394 936 q 452 955 428 936 q 481 1025 476 974 l 481 1025 l 617 1025 q 551 863 613 924 q 394 803 490 803 z "},"ặ":{"ha":833,"x_min":56,"x_max":778,"o":"m 306 -17 l 306 -17 q 181 8 238 -17 q 90 82 124 33 q 56 200 56 131 l 56 200 q 119 347 56 294 q 278 422 182 400 l 278 422 l 486 469 q 467 556 486 524 q 394 589 449 589 l 394 589 q 329 565 351 589 q 303 508 307 540 l 303 508 l 61 519 q 170 699 82 632 q 389 767 258 767 l 389 767 q 645 685 568 767 q 722 453 722 603 l 722 453 l 722 219 q 732 178 722 189 q 758 167 742 167 l 758 167 l 778 167 l 778 0 q 749 -5 769 -1 q 706 -8 729 -8 l 706 -8 q 601 14 644 -8 q 535 76 558 36 q 510 169 513 117 l 510 169 l 529 169 q 498 74 525 117 q 423 8 471 32 q 306 -17 375 -17 z m 363 150 l 363 150 q 428 165 400 150 q 471 209 456 179 q 486 283 486 239 l 486 283 l 486 314 l 361 283 q 312 258 326 275 q 297 208 297 242 l 297 208 q 313 166 297 182 q 363 150 329 150 z m 504 -222 l 288 -222 l 288 -53 l 504 -53 l 504 -222 z m 394 811 l 394 811 q 238 872 299 811 q 172 1033 176 932 l 172 1033 l 308 1033 q 337 963 313 982 q 394 944 361 944 l 394 944 q 452 963 428 944 q 481 1033 476 982 l 481 1033 l 617 1033 q 551 872 613 932 q 394 811 490 811 z "},"ằ":{"ha":833,"x_min":56,"x_max":778,"o":"m 306 -17 l 306 -17 q 181 8 238 -17 q 90 82 124 33 q 56 200 56 131 l 56 200 q 119 347 56 294 q 278 422 182 400 l 278 422 l 486 469 q 467 556 486 524 q 394 589 449 589 l 394 589 q 329 565 351 589 q 303 508 307 540 l 303 508 l 61 519 q 170 699 82 632 q 389 767 258 767 l 389 767 q 645 685 568 767 q 722 453 722 603 l 722 453 l 722 219 q 732 178 722 189 q 758 167 742 167 l 758 167 l 778 167 l 778 0 q 749 -5 769 -1 q 706 -8 729 -8 l 706 -8 q 601 14 644 -8 q 535 76 558 36 q 510 169 513 117 l 510 169 l 529 169 q 498 74 525 117 q 423 8 471 32 q 306 -17 375 -17 z m 363 150 l 363 150 q 428 165 400 150 q 471 209 456 179 q 486 283 486 239 l 486 283 l 486 314 l 361 283 q 312 258 326 275 q 297 208 297 242 l 297 208 q 313 166 297 182 q 363 150 329 150 z m 482 1053 l 307 1053 l 185 1247 l 401 1247 l 482 1053 z m 394 803 l 394 803 q 238 863 299 803 q 172 1025 176 924 l 172 1025 l 308 1025 q 337 955 313 974 q 394 936 361 936 l 394 936 q 452 955 428 936 q 481 1025 476 974 l 481 1025 l 617 1025 q 551 863 613 924 q 394 803 490 803 z "},"ẳ":{"ha":833,"x_min":56,"x_max":778,"o":"m 306 -17 l 306 -17 q 181 8 238 -17 q 90 82 124 33 q 56 200 56 131 l 56 200 q 119 347 56 294 q 278 422 182 400 l 278 422 l 486 469 q 467 556 486 524 q 394 589 449 589 l 394 589 q 329 565 351 589 q 303 508 307 540 l 303 508 l 61 519 q 170 699 82 632 q 389 767 258 767 l 389 767 q 645 685 568 767 q 722 453 722 603 l 722 453 l 722 219 q 732 178 722 189 q 758 167 742 167 l 758 167 l 778 167 l 778 0 q 749 -5 769 -1 q 706 -8 729 -8 l 706 -8 q 601 14 644 -8 q 535 76 558 36 q 510 169 513 117 l 510 169 l 529 169 q 498 74 525 117 q 423 8 471 32 q 306 -17 375 -17 z m 363 150 l 363 150 q 428 165 400 150 q 471 209 456 179 q 486 283 486 239 l 486 283 l 486 314 l 361 283 q 312 258 326 275 q 297 208 297 242 l 297 208 q 313 166 297 182 q 363 150 329 150 z m 394 811 l 394 811 q 238 872 299 811 q 172 1033 176 932 l 172 1033 l 308 1033 q 337 963 313 982 q 394 944 361 944 l 394 944 q 452 963 428 944 q 481 1033 476 982 l 481 1033 l 617 1033 q 551 872 613 932 q 394 811 490 811 z m 461 1031 l 461 1031 l 324 1031 q 357 1077 346 1057 q 368 1117 368 1097 l 368 1117 q 359 1138 368 1131 q 328 1146 350 1146 l 328 1146 q 301 1144 315 1146 q 275 1139 286 1142 l 275 1139 l 275 1246 q 310 1251 285 1247 q 371 1254 335 1254 l 371 1254 q 478 1226 447 1254 q 508 1146 508 1197 l 508 1146 q 492 1076 508 1104 q 461 1031 475 1047 z "},"ẵ":{"ha":833,"x_min":56,"x_max":778,"o":"m 306 -17 l 306 -17 q 181 8 238 -17 q 90 82 124 33 q 56 200 56 131 l 56 200 q 119 347 56 294 q 278 422 182 400 l 278 422 l 486 469 q 467 556 486 524 q 394 589 449 589 l 394 589 q 329 565 351 589 q 303 508 307 540 l 303 508 l 61 519 q 170 699 82 632 q 389 767 258 767 l 389 767 q 645 685 568 767 q 722 453 722 603 l 722 453 l 722 219 q 732 178 722 189 q 758 167 742 167 l 758 167 l 778 167 l 778 0 q 749 -5 769 -1 q 706 -8 729 -8 l 706 -8 q 601 14 644 -8 q 535 76 558 36 q 510 169 513 117 l 510 169 l 529 169 q 498 74 525 117 q 423 8 471 32 q 306 -17 375 -17 z m 363 150 l 363 150 q 428 165 400 150 q 471 209 456 179 q 486 283 486 239 l 486 283 l 486 314 l 361 283 q 312 258 326 275 q 297 208 297 242 l 297 208 q 313 166 297 182 q 363 150 329 150 z m 469 1076 l 469 1076 q 414 1084 439 1076 q 363 1114 389 1092 l 363 1114 q 344 1125 353 1121 q 325 1129 335 1129 l 325 1129 q 298 1117 311 1129 q 282 1069 285 1104 l 282 1069 l 163 1069 q 201 1213 163 1158 q 314 1268 240 1268 l 314 1268 q 372 1260 343 1268 q 426 1232 400 1253 l 426 1232 q 447 1218 439 1222 q 465 1214 456 1214 l 465 1214 q 494 1226 481 1214 q 508 1275 507 1238 l 508 1275 l 628 1275 q 588 1130 628 1183 q 469 1076 547 1076 z m 396 803 l 396 803 q 239 863 300 803 q 174 1025 178 924 l 174 1025 l 310 1025 q 338 955 314 974 q 396 936 363 936 l 396 936 q 453 955 429 936 q 482 1025 478 974 l 482 1025 l 618 1025 q 553 863 614 924 q 396 803 492 803 z "},"ǎ":{"ha":833,"x_min":56,"x_max":778,"o":"m 306 -17 l 306 -17 q 181 8 238 -17 q 90 82 124 33 q 56 200 56 131 l 56 200 q 119 347 56 294 q 278 422 182 400 l 278 422 l 486 469 q 467 556 486 524 q 394 589 449 589 l 394 589 q 329 565 351 589 q 303 508 307 540 l 303 508 l 61 519 q 170 699 82 632 q 389 767 258 767 l 389 767 q 645 685 568 767 q 722 453 722 603 l 722 453 l 722 219 q 732 178 722 189 q 758 167 742 167 l 758 167 l 778 167 l 778 0 q 749 -5 769 -1 q 706 -8 729 -8 l 706 -8 q 601 14 644 -8 q 535 76 558 36 q 510 169 513 117 l 510 169 l 529 169 q 498 74 525 117 q 423 8 471 32 q 306 -17 375 -17 z m 363 150 l 363 150 q 428 165 400 150 q 471 209 456 179 q 486 283 486 239 l 486 283 l 486 314 l 361 283 q 312 258 326 275 q 297 208 297 242 l 297 208 q 313 166 297 182 q 363 150 329 150 z m 297 815 l 158 1046 l 322 1046 l 414 897 l 375 897 l 467 1046 l 631 1046 l 492 815 l 297 815 z "},"â":{"ha":833,"x_min":56,"x_max":778,"o":"m 306 -17 l 306 -17 q 181 8 238 -17 q 90 82 124 33 q 56 200 56 131 l 56 200 q 119 347 56 294 q 278 422 182 400 l 278 422 l 486 469 q 467 556 486 524 q 394 589 449 589 l 394 589 q 329 565 351 589 q 303 508 307 540 l 303 508 l 61 519 q 170 699 82 632 q 389 767 258 767 l 389 767 q 645 685 568 767 q 722 453 722 603 l 722 453 l 722 219 q 732 178 722 189 q 758 167 742 167 l 758 167 l 778 167 l 778 0 q 749 -5 769 -1 q 706 -8 729 -8 l 706 -8 q 601 14 644 -8 q 535 76 558 36 q 510 169 513 117 l 510 169 l 529 169 q 498 74 525 117 q 423 8 471 32 q 306 -17 375 -17 z m 363 150 l 363 150 q 428 165 400 150 q 471 209 456 179 q 486 283 486 239 l 486 283 l 486 314 l 361 283 q 312 258 326 275 q 297 208 297 242 l 297 208 q 313 166 297 182 q 363 150 329 150 z m 322 815 l 158 815 l 297 1046 l 492 1046 l 631 815 l 467 815 l 375 964 l 414 964 l 322 815 z "},"ấ":{"ha":833,"x_min":56,"x_max":863,"o":"m 306 -17 l 306 -17 q 181 8 238 -17 q 90 82 124 33 q 56 200 56 131 l 56 200 q 119 347 56 294 q 278 422 182 400 l 278 422 l 486 469 q 467 556 486 524 q 394 589 449 589 l 394 589 q 329 565 351 589 q 303 508 307 540 l 303 508 l 61 519 q 170 699 82 632 q 389 767 258 767 l 389 767 q 645 685 568 767 q 722 453 722 603 l 722 453 l 722 219 q 732 178 722 189 q 758 167 742 167 l 758 167 l 778 167 l 778 0 q 749 -5 769 -1 q 706 -8 729 -8 l 706 -8 q 601 14 644 -8 q 535 76 558 36 q 510 169 513 117 l 510 169 l 529 169 q 498 74 525 117 q 423 8 471 32 q 306 -17 375 -17 z m 363 150 l 363 150 q 428 165 400 150 q 471 209 456 179 q 486 283 486 239 l 486 283 l 486 314 l 361 283 q 312 258 326 275 q 297 208 297 242 l 297 208 q 313 166 297 182 q 363 150 329 150 z m 315 801 l 138 801 l 276 1018 l 513 1018 l 651 801 l 474 801 l 365 950 l 424 950 l 315 801 z m 746 953 l 571 953 l 646 1175 l 863 1175 l 746 953 z "},"ậ":{"ha":833,"x_min":56,"x_max":778,"o":"m 306 -17 l 306 -17 q 181 8 238 -17 q 90 82 124 33 q 56 200 56 131 l 56 200 q 119 347 56 294 q 278 422 182 400 l 278 422 l 486 469 q 467 556 486 524 q 394 589 449 589 l 394 589 q 329 565 351 589 q 303 508 307 540 l 303 508 l 61 519 q 170 699 82 632 q 389 767 258 767 l 389 767 q 645 685 568 767 q 722 453 722 603 l 722 453 l 722 219 q 732 178 722 189 q 758 167 742 167 l 758 167 l 778 167 l 778 0 q 749 -5 769 -1 q 706 -8 729 -8 l 706 -8 q 601 14 644 -8 q 535 76 558 36 q 510 169 513 117 l 510 169 l 529 169 q 498 74 525 117 q 423 8 471 32 q 306 -17 375 -17 z m 363 150 l 363 150 q 428 165 400 150 q 471 209 456 179 q 486 283 486 239 l 486 283 l 486 314 l 361 283 q 312 258 326 275 q 297 208 297 242 l 297 208 q 313 166 297 182 q 363 150 329 150 z m 504 -222 l 288 -222 l 288 -53 l 504 -53 l 504 -222 z m 322 815 l 158 815 l 297 1046 l 492 1046 l 631 815 l 467 815 l 375 964 l 414 964 l 322 815 z "},"ầ":{"ha":833,"x_min":56,"x_max":821,"o":"m 306 -17 l 306 -17 q 181 8 238 -17 q 90 82 124 33 q 56 200 56 131 l 56 200 q 119 347 56 294 q 278 422 182 400 l 278 422 l 486 469 q 467 556 486 524 q 394 589 449 589 l 394 589 q 329 565 351 589 q 303 508 307 540 l 303 508 l 61 519 q 170 699 82 632 q 389 767 258 767 l 389 767 q 645 685 568 767 q 722 453 722 603 l 722 453 l 722 219 q 732 178 722 189 q 758 167 742 167 l 758 167 l 778 167 l 778 0 q 749 -5 769 -1 q 706 -8 729 -8 l 706 -8 q 601 14 644 -8 q 535 76 558 36 q 510 169 513 117 l 510 169 l 529 169 q 498 74 525 117 q 423 8 471 32 q 306 -17 375 -17 z m 363 150 l 363 150 q 428 165 400 150 q 471 209 456 179 q 486 283 486 239 l 486 283 l 486 314 l 361 283 q 312 258 326 275 q 297 208 297 242 l 297 208 q 313 166 297 182 q 363 150 329 150 z m 315 801 l 138 801 l 276 1018 l 513 1018 l 651 801 l 474 801 l 365 950 l 424 950 l 315 801 z m 821 953 l 646 953 l 529 1175 l 746 1175 l 821 953 z "},"ẩ":{"ha":833,"x_min":56,"x_max":778,"o":"m 306 -17 l 306 -17 q 181 8 238 -17 q 90 82 124 33 q 56 200 56 131 l 56 200 q 119 347 56 294 q 278 422 182 400 l 278 422 l 486 469 q 467 556 486 524 q 394 589 449 589 l 394 589 q 329 565 351 589 q 303 508 307 540 l 303 508 l 61 519 q 170 699 82 632 q 389 767 258 767 l 389 767 q 645 685 568 767 q 722 453 722 603 l 722 453 l 722 219 q 732 178 722 189 q 758 167 742 167 l 758 167 l 778 167 l 778 0 q 749 -5 769 -1 q 706 -8 729 -8 l 706 -8 q 601 14 644 -8 q 535 76 558 36 q 510 169 513 117 l 510 169 l 529 169 q 498 74 525 117 q 423 8 471 32 q 306 -17 375 -17 z m 363 150 l 363 150 q 428 165 400 150 q 471 209 456 179 q 486 283 486 239 l 486 283 l 486 314 l 361 283 q 312 258 326 275 q 297 208 297 242 l 297 208 q 313 166 297 182 q 363 150 329 150 z m 315 801 l 138 801 l 276 1018 l 513 1018 l 651 801 l 474 801 l 365 950 l 424 950 l 315 801 z m 715 953 l 576 953 q 608 1006 599 982 q 617 1049 617 1029 l 617 1049 q 607 1072 617 1064 q 574 1081 597 1081 l 574 1081 q 545 1078 560 1081 q 518 1072 531 1076 l 518 1072 l 518 1188 q 558 1192 531 1190 q 621 1194 586 1194 l 621 1194 q 734 1167 703 1194 q 765 1085 765 1139 l 765 1085 q 748 1007 765 1042 q 715 953 731 972 l 715 953 z "},"ẫ":{"ha":833,"x_min":56,"x_max":778,"o":"m 306 -17 l 306 -17 q 181 8 238 -17 q 90 82 124 33 q 56 200 56 131 l 56 200 q 119 347 56 294 q 278 422 182 400 l 278 422 l 486 469 q 467 556 486 524 q 394 589 449 589 l 394 589 q 329 565 351 589 q 303 508 307 540 l 303 508 l 61 519 q 170 699 82 632 q 389 767 258 767 l 389 767 q 645 685 568 767 q 722 453 722 603 l 722 453 l 722 219 q 732 178 722 189 q 758 167 742 167 l 758 167 l 778 167 l 778 0 q 749 -5 769 -1 q 706 -8 729 -8 l 706 -8 q 601 14 644 -8 q 535 76 558 36 q 510 169 513 117 l 510 169 l 529 169 q 498 74 525 117 q 423 8 471 32 q 306 -17 375 -17 z m 363 150 l 363 150 q 428 165 400 150 q 471 209 456 179 q 486 283 486 239 l 486 283 l 486 314 l 361 283 q 312 258 326 275 q 297 208 297 242 l 297 208 q 313 166 297 182 q 363 150 329 150 z m 310 801 l 132 801 l 276 1013 l 513 1013 l 657 801 l 479 801 l 365 947 l 424 947 l 310 801 z m 469 1063 l 469 1063 q 414 1070 439 1063 q 363 1100 389 1078 l 363 1100 q 344 1111 353 1107 q 325 1115 335 1115 l 325 1115 q 298 1103 311 1115 q 282 1056 285 1090 l 282 1056 l 163 1056 q 202 1199 163 1144 q 318 1254 242 1254 l 318 1254 q 376 1247 350 1254 q 426 1218 401 1239 l 426 1218 q 447 1204 439 1208 q 465 1200 456 1200 l 465 1200 q 494 1212 481 1200 q 508 1261 507 1224 l 508 1261 l 628 1261 q 588 1116 628 1169 q 469 1063 547 1063 z "},"ä":{"ha":833,"x_min":56,"x_max":778,"o":"m 306 -17 l 306 -17 q 181 8 238 -17 q 90 82 124 33 q 56 200 56 131 l 56 200 q 119 347 56 294 q 278 422 182 400 l 278 422 l 486 469 q 467 556 486 524 q 394 589 449 589 l 394 589 q 329 565 351 589 q 303 508 307 540 l 303 508 l 61 519 q 170 699 82 632 q 389 767 258 767 l 389 767 q 645 685 568 767 q 722 453 722 603 l 722 453 l 722 219 q 732 178 722 189 q 758 167 742 167 l 758 167 l 778 167 l 778 0 q 749 -5 769 -1 q 706 -8 729 -8 l 706 -8 q 601 14 644 -8 q 535 76 558 36 q 510 169 513 117 l 510 169 l 529 169 q 498 74 525 117 q 423 8 471 32 q 306 -17 375 -17 z m 363 150 l 363 150 q 428 165 400 150 q 471 209 456 179 q 486 283 486 239 l 486 283 l 486 314 l 361 283 q 312 258 326 275 q 297 208 297 242 l 297 208 q 313 166 297 182 q 363 150 329 150 z m 351 825 l 101 825 l 101 1014 l 351 1014 l 351 825 z m 688 825 l 438 825 l 438 1014 l 688 1014 l 688 825 z "},"ạ":{"ha":833,"x_min":56,"x_max":778,"o":"m 306 -17 l 306 -17 q 181 8 238 -17 q 90 82 124 33 q 56 200 56 131 l 56 200 q 119 347 56 294 q 278 422 182 400 l 278 422 l 486 469 q 467 556 486 524 q 394 589 449 589 l 394 589 q 329 565 351 589 q 303 508 307 540 l 303 508 l 61 519 q 170 699 82 632 q 389 767 258 767 l 389 767 q 645 685 568 767 q 722 453 722 603 l 722 453 l 722 219 q 732 178 722 189 q 758 167 742 167 l 758 167 l 778 167 l 778 0 q 749 -5 769 -1 q 706 -8 729 -8 l 706 -8 q 601 14 644 -8 q 535 76 558 36 q 510 169 513 117 l 510 169 l 529 169 q 498 74 525 117 q 423 8 471 32 q 306 -17 375 -17 z m 363 150 l 363 150 q 428 165 400 150 q 471 209 456 179 q 486 283 486 239 l 486 283 l 486 314 l 361 283 q 312 258 326 275 q 297 208 297 242 l 297 208 q 313 166 297 182 q 363 150 329 150 z m 504 -222 l 288 -222 l 288 -53 l 504 -53 l 504 -222 z "},"à":{"ha":833,"x_min":56,"x_max":778,"o":"m 306 -17 l 306 -17 q 181 8 238 -17 q 90 82 124 33 q 56 200 56 131 l 56 200 q 119 347 56 294 q 278 422 182 400 l 278 422 l 486 469 q 467 556 486 524 q 394 589 449 589 l 394 589 q 329 565 351 589 q 303 508 307 540 l 303 508 l 61 519 q 170 699 82 632 q 389 767 258 767 l 389 767 q 645 685 568 767 q 722 453 722 603 l 722 453 l 722 219 q 732 178 722 189 q 758 167 742 167 l 758 167 l 778 167 l 778 0 q 749 -5 769 -1 q 706 -8 729 -8 l 706 -8 q 601 14 644 -8 q 535 76 558 36 q 510 169 513 117 l 510 169 l 529 169 q 498 74 525 117 q 423 8 471 32 q 306 -17 375 -17 z m 363 150 l 363 150 q 428 165 400 150 q 471 209 456 179 q 486 283 486 239 l 486 283 l 486 314 l 361 283 q 312 258 326 275 q 297 208 297 242 l 297 208 q 313 166 297 182 q 363 150 329 150 z m 506 814 l 297 814 l 172 1036 l 422 1036 l 506 814 z "},"ả":{"ha":833,"x_min":56,"x_max":778,"o":"m 306 -17 l 306 -17 q 181 8 238 -17 q 90 82 124 33 q 56 200 56 131 l 56 200 q 119 347 56 294 q 278 422 182 400 l 278 422 l 486 469 q 467 556 486 524 q 394 589 449 589 l 394 589 q 329 565 351 589 q 303 508 307 540 l 303 508 l 61 519 q 170 699 82 632 q 389 767 258 767 l 389 767 q 645 685 568 767 q 722 453 722 603 l 722 453 l 722 219 q 732 178 722 189 q 758 167 742 167 l 758 167 l 778 167 l 778 0 q 749 -5 769 -1 q 706 -8 729 -8 l 706 -8 q 601 14 644 -8 q 535 76 558 36 q 510 169 513 117 l 510 169 l 529 169 q 498 74 525 117 q 423 8 471 32 q 306 -17 375 -17 z m 363 150 l 363 150 q 428 165 400 150 q 471 209 456 179 q 486 283 486 239 l 486 283 l 486 314 l 361 283 q 312 258 326 275 q 297 208 297 242 l 297 208 q 313 166 297 182 q 363 150 329 150 z m 469 815 l 469 815 l 317 815 q 354 867 342 844 q 367 910 367 889 l 367 910 q 357 935 367 926 q 322 943 347 943 l 322 943 q 292 941 308 943 q 264 935 276 939 l 264 935 l 264 1054 q 303 1060 275 1057 q 369 1063 331 1063 l 369 1063 q 489 1031 456 1063 q 522 943 522 1000 l 522 943 q 504 866 522 897 q 469 815 486 835 z "},"ā":{"ha":833,"x_min":56,"x_max":778,"o":"m 306 -17 l 306 -17 q 181 8 238 -17 q 90 82 124 33 q 56 200 56 131 l 56 200 q 119 347 56 294 q 278 422 182 400 l 278 422 l 486 469 q 467 556 486 524 q 394 589 449 589 l 394 589 q 329 565 351 589 q 303 508 307 540 l 303 508 l 61 519 q 170 699 82 632 q 389 767 258 767 l 389 767 q 645 685 568 767 q 722 453 722 603 l 722 453 l 722 219 q 732 178 722 189 q 758 167 742 167 l 758 167 l 778 167 l 778 0 q 749 -5 769 -1 q 706 -8 729 -8 l 706 -8 q 601 14 644 -8 q 535 76 558 36 q 510 169 513 117 l 510 169 l 529 169 q 498 74 525 117 q 423 8 471 32 q 306 -17 375 -17 z m 363 150 l 363 150 q 428 165 400 150 q 471 209 456 179 q 486 283 486 239 l 486 283 l 486 314 l 361 283 q 312 258 326 275 q 297 208 297 242 l 297 208 q 313 166 297 182 q 363 150 329 150 z m 603 831 l 186 831 l 186 997 l 603 997 l 603 831 z "},"ą":{"ha":833,"x_min":56,"x_max":828,"o":"m 306 -17 l 306 -17 q 181 8 238 -17 q 90 82 124 33 q 56 200 56 131 l 56 200 q 119 347 56 294 q 278 422 182 400 l 278 422 l 486 469 q 467 556 486 524 q 394 589 449 589 l 394 589 q 329 565 351 589 q 303 508 307 540 l 303 508 l 61 519 q 170 699 82 632 q 389 767 258 767 l 389 767 q 645 685 568 767 q 722 453 722 603 l 722 453 l 722 219 q 732 178 722 189 q 758 167 742 167 l 758 167 l 778 167 l 778 0 q 749 -5 769 -1 q 706 -8 729 -8 l 706 -8 q 601 14 644 -8 q 535 76 558 36 q 510 169 513 117 l 510 169 l 529 169 q 498 74 525 117 q 423 8 471 32 q 306 -17 375 -17 z m 363 150 l 363 150 q 428 165 400 150 q 471 209 456 179 q 486 283 486 239 l 486 283 l 486 314 l 361 283 q 312 258 326 275 q 297 208 297 242 l 297 208 q 313 166 297 182 q 363 150 329 150 z m 658 -308 l 658 -308 q 544 -272 586 -308 q 503 -178 503 -235 l 503 -178 q 519 -104 503 -137 q 561 -36 535 -71 l 561 -36 l 611 28 l 778 0 l 736 -54 q 704 -101 714 -83 q 694 -133 694 -118 l 694 -133 q 705 -156 694 -147 q 731 -164 715 -164 l 731 -164 q 764 -157 747 -164 q 790 -143 781 -150 l 790 -143 l 828 -264 q 759 -294 806 -279 q 658 -308 713 -308 z "},"å":{"ha":833,"x_min":56,"x_max":778,"o":"m 306 -17 l 306 -17 q 181 8 238 -17 q 90 82 124 33 q 56 200 56 131 l 56 200 q 119 347 56 294 q 278 422 182 400 l 278 422 l 486 469 q 467 556 486 524 q 394 589 449 589 l 394 589 q 329 565 351 589 q 303 508 307 540 l 303 508 l 61 519 q 170 699 82 632 q 389 767 258 767 l 389 767 q 645 685 568 767 q 722 453 722 603 l 722 453 l 722 219 q 732 178 722 189 q 758 167 742 167 l 758 167 l 778 167 l 778 0 q 749 -5 769 -1 q 706 -8 729 -8 l 706 -8 q 601 14 644 -8 q 535 76 558 36 q 510 169 513 117 l 510 169 l 529 169 q 498 74 525 117 q 423 8 471 32 q 306 -17 375 -17 z m 363 150 l 363 150 q 428 165 400 150 q 471 209 456 179 q 486 283 486 239 l 486 283 l 486 314 l 361 283 q 312 258 326 275 q 297 208 297 242 l 297 208 q 313 166 297 182 q 363 150 329 150 z m 393 797 l 393 797 q 282 840 326 797 q 238 947 238 883 l 238 947 q 282 1055 238 1013 q 393 1097 326 1097 l 393 1097 q 504 1055 460 1097 q 549 947 549 1013 l 549 947 q 504 840 549 883 q 393 797 460 797 z m 393 892 l 393 892 q 432 907 418 892 q 446 947 446 922 l 446 947 q 432 988 446 972 q 393 1003 418 1003 l 393 1003 q 354 988 368 1003 q 340 947 340 972 l 340 947 q 354 907 340 922 q 393 892 368 892 z "},"ã":{"ha":833,"x_min":56,"x_max":778,"o":"m 306 -17 l 306 -17 q 181 8 238 -17 q 90 82 124 33 q 56 200 56 131 l 56 200 q 119 347 56 294 q 278 422 182 400 l 278 422 l 486 469 q 467 556 486 524 q 394 589 449 589 l 394 589 q 329 565 351 589 q 303 508 307 540 l 303 508 l 61 519 q 170 699 82 632 q 389 767 258 767 l 389 767 q 645 685 568 767 q 722 453 722 603 l 722 453 l 722 219 q 732 178 722 189 q 758 167 742 167 l 758 167 l 778 167 l 778 0 q 749 -5 769 -1 q 706 -8 729 -8 l 706 -8 q 601 14 644 -8 q 535 76 558 36 q 510 169 513 117 l 510 169 l 529 169 q 498 74 525 117 q 423 8 471 32 q 306 -17 375 -17 z m 363 150 l 363 150 q 428 165 400 150 q 471 209 456 179 q 486 283 486 239 l 486 283 l 486 314 l 361 283 q 312 258 326 275 q 297 208 297 242 l 297 208 q 313 166 297 182 q 363 150 329 150 z m 481 825 l 481 825 q 423 836 447 825 q 372 867 399 847 l 372 867 q 342 885 356 879 q 314 892 328 892 l 314 892 q 283 875 296 892 q 267 817 269 858 l 267 817 l 158 817 q 198 982 161 933 q 303 1031 235 1031 l 303 1031 q 365 1019 339 1031 q 419 988 392 1008 l 419 988 q 450 969 436 975 q 475 964 464 964 l 475 964 q 507 981 494 964 q 522 1042 519 999 l 522 1042 l 631 1042 q 591 875 629 925 q 481 825 553 825 z "},"æ":{"ha":833,"x_min":11,"x_max":822,"o":"m 574 -17 l 574 -17 q 390 88 457 -17 q 322 375 322 193 l 322 375 q 390 662 322 557 q 574 767 457 767 l 574 767 q 698 728 642 767 q 788 608 754 690 q 822 390 822 525 l 822 390 l 822 306 l 517 306 q 532 210 518 238 q 568 182 546 182 l 568 182 q 597 195 586 182 q 608 256 607 208 l 608 256 l 814 235 q 728 44 792 104 q 574 -17 665 -17 z m 192 -17 l 192 -17 q 102 3 143 -17 q 36 71 61 24 q 11 199 11 118 l 11 199 q 63 356 11 301 q 215 436 115 410 l 215 436 l 297 458 q 286 560 297 532 q 247 589 275 589 l 247 589 q 213 567 224 589 q 197 507 203 546 l 197 507 l 11 514 q 87 702 28 638 q 247 767 146 767 l 247 767 q 413 686 354 767 q 472 453 472 606 l 472 453 l 389 119 q 313 20 368 57 q 192 -17 257 -17 z m 239 150 l 239 150 q 284 174 271 150 q 297 264 297 197 l 297 264 l 297 311 l 243 297 q 206 274 221 292 q 192 215 192 256 l 192 215 q 204 169 192 188 q 239 150 217 150 z m 521 449 l 521 449 l 611 449 q 594 546 607 518 q 567 574 582 574 l 567 574 q 535 546 546 574 q 521 449 525 518 z "},"b":{"ha":833,"x_min":69,"x_max":806,"o":"m 522 -17 l 522 -17 q 406 11 454 -17 q 328 83 358 39 q 286 179 299 128 l 286 179 l 310 218 l 300 0 l 69 0 l 69 986 l 306 986 l 306 547 l 286 581 q 327 681 296 639 q 408 744 358 722 q 522 767 458 767 l 522 767 q 671 722 607 767 q 770 589 735 676 q 806 375 806 501 l 806 375 q 770 161 806 249 q 671 28 735 74 q 522 -17 607 -17 z m 436 186 l 436 186 q 531 233 501 186 q 561 375 561 281 l 561 375 q 531 517 561 469 q 436 564 501 564 l 436 564 q 369 543 399 564 q 322 480 339 522 q 306 375 306 438 l 306 375 q 323 271 306 313 q 369 208 340 229 q 436 186 399 186 z "},"c":{"ha":833,"x_min":53,"x_max":781,"o":"m 425 -17 l 425 -17 q 233 33 317 -17 q 101 172 149 83 q 53 375 53 260 l 53 375 q 101 578 53 490 q 233 717 149 667 q 425 767 317 767 l 425 767 q 594 728 517 767 q 721 622 671 690 q 781 461 771 553 l 781 461 l 550 450 q 506 535 538 506 q 428 564 475 564 l 428 564 q 332 513 367 564 q 297 375 297 463 l 297 375 q 332 237 297 288 q 428 186 367 186 l 428 186 q 508 217 476 186 q 550 303 539 247 l 550 303 l 781 292 q 722 131 771 200 q 595 22 672 61 q 425 -17 518 -17 z "},"ć":{"ha":833,"x_min":53,"x_max":781,"o":"m 425 -17 l 425 -17 q 233 33 317 -17 q 101 172 149 83 q 53 375 53 260 l 53 375 q 101 578 53 490 q 233 717 149 667 q 425 767 317 767 l 425 767 q 594 728 517 767 q 721 622 671 690 q 781 461 771 553 l 781 461 l 550 450 q 506 535 538 506 q 428 564 475 564 l 428 564 q 332 513 367 564 q 297 375 297 463 l 297 375 q 332 237 297 288 q 428 186 367 186 l 428 186 q 508 217 476 186 q 550 303 539 247 l 550 303 l 781 292 q 722 131 771 200 q 595 22 672 61 q 425 -17 518 -17 z m 531 815 l 322 815 l 406 1038 l 656 1038 l 531 815 z "},"č":{"ha":833,"x_min":53,"x_max":781,"o":"m 425 -17 l 425 -17 q 233 33 317 -17 q 101 172 149 83 q 53 375 53 260 l 53 375 q 101 578 53 490 q 233 717 149 667 q 425 767 317 767 l 425 767 q 594 728 517 767 q 721 622 671 690 q 781 461 771 553 l 781 461 l 550 450 q 506 535 538 506 q 428 564 475 564 l 428 564 q 332 513 367 564 q 297 375 297 463 l 297 375 q 332 237 297 288 q 428 186 367 186 l 428 186 q 508 217 476 186 q 550 303 539 247 l 550 303 l 781 292 q 722 131 771 200 q 595 22 672 61 q 425 -17 518 -17 z m 329 815 l 190 1046 l 354 1046 l 446 897 l 407 897 l 499 1046 l 663 1046 l 524 815 l 329 815 z "},"ç":{"ha":833,"x_min":53,"x_max":781,"o":"m 425 -17 l 425 -17 q 233 33 317 -17 q 101 172 149 83 q 53 375 53 260 l 53 375 q 101 578 53 490 q 233 717 149 667 q 425 767 317 767 l 425 767 q 594 728 517 767 q 721 622 671 690 q 781 461 771 553 l 781 461 l 550 450 q 506 535 538 506 q 428 564 475 564 l 428 564 q 332 513 367 564 q 297 375 297 463 l 297 375 q 332 237 297 288 q 428 186 367 186 l 428 186 q 508 217 476 186 q 550 303 539 247 l 550 303 l 781 292 q 722 131 771 200 q 595 22 672 61 q 425 -17 518 -17 z m 426 -333 l 426 -333 q 306 -301 354 -333 q 238 -214 258 -268 l 238 -214 l 343 -167 q 372 -203 354 -190 q 421 -217 390 -217 l 421 -217 q 465 -204 449 -217 q 482 -169 482 -192 l 482 -169 q 466 -133 482 -146 q 401 -119 450 -119 l 401 -119 l 333 -58 l 374 14 l 514 14 l 482 -39 q 584 -86 553 -47 q 615 -175 615 -125 l 615 -175 q 589 -267 615 -232 q 520 -317 563 -301 q 426 -333 478 -333 z "},"ĉ":{"ha":833,"x_min":53,"x_max":781,"o":"m 425 -17 l 425 -17 q 233 33 317 -17 q 101 172 149 83 q 53 375 53 260 l 53 375 q 101 578 53 490 q 233 717 149 667 q 425 767 317 767 l 425 767 q 594 728 517 767 q 721 622 671 690 q 781 461 771 553 l 781 461 l 550 450 q 506 535 538 506 q 428 564 475 564 l 428 564 q 332 513 367 564 q 297 375 297 463 l 297 375 q 332 237 297 288 q 428 186 367 186 l 428 186 q 508 217 476 186 q 550 303 539 247 l 550 303 l 781 292 q 722 131 771 200 q 595 22 672 61 q 425 -17 518 -17 z m 354 815 l 190 815 l 329 1046 l 524 1046 l 663 815 l 499 815 l 407 964 l 446 964 l 354 815 z "},"ċ":{"ha":833,"x_min":53,"x_max":781,"o":"m 425 -17 l 425 -17 q 233 33 317 -17 q 101 172 149 83 q 53 375 53 260 l 53 375 q 101 578 53 490 q 233 717 149 667 q 425 767 317 767 l 425 767 q 594 728 517 767 q 721 622 671 690 q 781 461 771 553 l 781 461 l 550 450 q 506 535 538 506 q 428 564 475 564 l 428 564 q 332 513 367 564 q 297 375 297 463 l 297 375 q 332 237 297 288 q 428 186 367 186 l 428 186 q 508 217 476 186 q 550 303 539 247 l 550 303 l 781 292 q 722 131 771 200 q 595 22 672 61 q 425 -17 518 -17 z m 544 825 l 308 825 l 308 1008 l 544 1008 l 544 825 z "},"d":{"ha":833,"x_min":28,"x_max":764,"o":"m 311 -17 l 311 -17 q 163 28 226 -17 q 63 161 99 74 q 28 375 28 249 l 28 375 q 63 589 28 501 q 163 722 99 676 q 311 767 226 767 l 311 767 q 426 744 376 767 q 506 681 475 722 q 547 581 538 639 l 547 581 l 528 547 l 528 986 l 764 986 l 764 0 l 533 0 l 524 218 l 547 179 q 505 83 535 128 q 427 11 475 39 q 311 -17 379 -17 z m 397 186 l 397 186 q 465 208 435 186 q 511 271 494 229 q 528 375 528 313 l 528 375 q 511 480 528 438 q 465 543 494 522 q 397 564 436 564 l 397 564 q 302 517 332 564 q 272 375 272 469 l 272 375 q 302 233 272 281 q 397 186 332 186 z "},"ď":{"ha":833,"x_min":0,"x_max":889,"o":"m 231 -17 l 231 -17 q 67 85 133 -17 q 0 375 0 186 l 0 375 q 67 666 0 565 q 236 767 135 767 l 236 767 q 336 743 294 767 q 402 676 378 719 q 432 572 426 632 l 432 572 l 417 547 l 417 986 l 653 986 l 653 0 l 422 0 l 413 218 l 431 185 q 401 87 426 133 q 332 12 375 40 q 231 -17 289 -17 z m 328 186 l 328 186 q 372 208 351 186 q 404 271 392 229 q 417 375 417 313 l 417 375 q 405 480 417 438 q 373 543 393 522 q 328 564 353 564 l 328 564 q 264 517 283 564 q 244 375 244 469 l 244 375 q 264 233 244 281 q 328 186 283 186 z m 831 560 l 667 560 l 697 986 l 889 986 l 831 560 z "},"đ":{"ha":833,"x_min":28,"x_max":819,"o":"m 311 -17 l 311 -17 q 163 28 226 -17 q 63 161 99 74 q 28 375 28 249 l 28 375 q 63 589 28 501 q 163 722 99 676 q 311 767 226 767 l 311 767 q 426 744 376 767 q 506 681 475 722 q 547 581 538 639 l 547 581 l 528 547 l 528 986 l 764 986 l 764 0 l 533 0 l 524 218 l 547 179 q 505 83 535 128 q 427 11 475 39 q 311 -17 379 -17 z m 397 186 l 397 186 q 465 208 435 186 q 511 271 494 229 q 528 375 528 313 l 528 375 q 511 480 528 438 q 465 543 494 522 q 397 564 436 564 l 397 564 q 302 517 332 564 q 272 375 272 469 l 272 375 q 302 233 272 281 q 397 186 332 186 z m 819 794 l 319 794 l 319 933 l 819 933 l 819 794 z "},"ð":{"ha":833,"x_min":69,"x_max":764,"o":"m 728 889 l 306 683 l 271 782 l 690 989 l 728 889 z m 764 365 l 550 364 q 517 619 544 519 q 424 769 489 718 q 239 828 358 819 l 239 828 l 304 1003 q 515 933 428 989 q 657 788 601 876 q 738 592 713 700 q 764 365 764 483 l 764 365 z m 417 -17 l 417 -17 q 235 26 314 -17 q 113 145 157 68 q 69 326 69 222 l 69 326 q 113 508 69 431 q 235 627 157 585 q 415 669 313 669 l 415 669 q 544 640 482 669 q 656 563 607 610 q 735 464 706 517 q 764 365 764 411 l 764 365 q 720 160 764 246 q 599 29 676 75 q 417 -17 521 -17 z m 417 181 l 417 181 q 494 218 465 181 q 522 332 522 256 l 522 332 q 494 437 522 401 q 417 472 465 472 l 417 472 q 340 436 369 472 q 311 326 311 400 l 311 326 q 340 217 311 254 q 417 181 369 181 z "},"e":{"ha":833,"x_min":53,"x_max":781,"o":"m 417 -17 l 417 -17 q 230 31 313 -17 q 100 167 147 79 q 53 375 53 256 l 53 375 q 99 578 53 490 q 228 717 146 667 q 417 767 310 767 l 417 767 q 606 716 524 767 q 734 576 688 665 q 781 369 781 486 l 781 369 l 781 314 l 294 314 q 337 220 301 254 q 424 186 372 186 l 424 186 q 492 205 463 186 q 532 256 521 224 l 532 256 l 764 240 q 635 47 721 111 q 417 -17 549 -17 z m 299 460 l 299 460 l 529 460 q 493 537 524 510 q 414 564 463 564 l 414 564 q 335 537 365 564 q 299 460 306 510 z "},"é":{"ha":833,"x_min":53,"x_max":781,"o":"m 417 -17 l 417 -17 q 230 31 313 -17 q 100 167 147 79 q 53 375 53 256 l 53 375 q 99 578 53 490 q 228 717 146 667 q 417 767 310 767 l 417 767 q 606 716 524 767 q 734 576 688 665 q 781 369 781 486 l 781 369 l 781 314 l 294 314 q 337 220 301 254 q 424 186 372 186 l 424 186 q 492 205 463 186 q 532 256 521 224 l 532 256 l 764 240 q 635 47 721 111 q 417 -17 549 -17 z m 299 460 l 299 460 l 529 460 q 493 537 524 510 q 414 564 463 564 l 414 564 q 335 537 365 564 q 299 460 306 510 z m 521 814 l 313 814 l 396 1036 l 646 1036 l 521 814 z "},"ě":{"ha":833,"x_min":53,"x_max":781,"o":"m 417 -17 l 417 -17 q 230 31 313 -17 q 100 167 147 79 q 53 375 53 256 l 53 375 q 99 578 53 490 q 228 717 146 667 q 417 767 310 767 l 417 767 q 606 716 524 767 q 734 576 688 665 q 781 369 781 486 l 781 369 l 781 314 l 294 314 q 337 220 301 254 q 424 186 372 186 l 424 186 q 492 205 463 186 q 532 256 521 224 l 532 256 l 764 240 q 635 47 721 111 q 417 -17 549 -17 z m 299 460 l 299 460 l 529 460 q 493 537 524 510 q 414 564 463 564 l 414 564 q 335 537 365 564 q 299 460 306 510 z m 319 814 l 181 1044 l 344 1044 l 436 896 l 397 896 l 489 1044 l 653 1044 l 514 814 l 319 814 z "},"ê":{"ha":833,"x_min":53,"x_max":781,"o":"m 417 -17 l 417 -17 q 230 31 313 -17 q 100 167 147 79 q 53 375 53 256 l 53 375 q 99 578 53 490 q 228 717 146 667 q 417 767 310 767 l 417 767 q 606 716 524 767 q 734 576 688 665 q 781 369 781 486 l 781 369 l 781 314 l 294 314 q 337 220 301 254 q 424 186 372 186 l 424 186 q 492 205 463 186 q 532 256 521 224 l 532 256 l 764 240 q 635 47 721 111 q 417 -17 549 -17 z m 299 460 l 299 460 l 529 460 q 493 537 524 510 q 414 564 463 564 l 414 564 q 335 537 365 564 q 299 460 306 510 z m 344 814 l 181 814 l 319 1044 l 514 1044 l 653 814 l 489 814 l 397 963 l 436 963 l 344 814 z "},"ế":{"ha":833,"x_min":53,"x_max":885,"o":"m 417 -17 l 417 -17 q 230 31 313 -17 q 100 167 147 79 q 53 375 53 256 l 53 375 q 99 578 53 490 q 228 717 146 667 q 417 767 310 767 l 417 767 q 606 716 524 767 q 734 576 688 665 q 781 369 781 486 l 781 369 l 781 314 l 294 314 q 337 220 301 254 q 424 186 372 186 l 424 186 q 492 205 463 186 q 532 256 521 224 l 532 256 l 764 240 q 635 47 721 111 q 417 -17 549 -17 z m 299 460 l 299 460 l 529 460 q 493 537 524 510 q 414 564 463 564 l 414 564 q 335 537 365 564 q 299 460 306 510 z m 338 800 l 160 800 l 299 1017 l 535 1017 l 674 800 l 496 800 l 388 949 l 446 949 l 338 800 z m 768 951 l 593 951 l 668 1174 l 885 1174 l 768 951 z "},"ệ":{"ha":833,"x_min":53,"x_max":781,"o":"m 417 -17 l 417 -17 q 230 31 313 -17 q 100 167 147 79 q 53 375 53 256 l 53 375 q 99 578 53 490 q 228 717 146 667 q 417 767 310 767 l 417 767 q 606 716 524 767 q 734 576 688 665 q 781 369 781 486 l 781 369 l 781 314 l 294 314 q 337 220 301 254 q 424 186 372 186 l 424 186 q 492 205 463 186 q 532 256 521 224 l 532 256 l 764 240 q 635 47 721 111 q 417 -17 549 -17 z m 299 460 l 299 460 l 529 460 q 493 537 524 510 q 414 564 463 564 l 414 564 q 335 537 365 564 q 299 460 306 510 z m 525 -222 l 308 -222 l 308 -53 l 525 -53 l 525 -222 z m 344 814 l 181 814 l 319 1044 l 514 1044 l 653 814 l 489 814 l 397 963 l 436 963 l 344 814 z "},"ề":{"ha":833,"x_min":53,"x_max":843,"o":"m 417 -17 l 417 -17 q 230 31 313 -17 q 100 167 147 79 q 53 375 53 256 l 53 375 q 99 578 53 490 q 228 717 146 667 q 417 767 310 767 l 417 767 q 606 716 524 767 q 734 576 688 665 q 781 369 781 486 l 781 369 l 781 314 l 294 314 q 337 220 301 254 q 424 186 372 186 l 424 186 q 492 205 463 186 q 532 256 521 224 l 532 256 l 764 240 q 635 47 721 111 q 417 -17 549 -17 z m 299 460 l 299 460 l 529 460 q 493 537 524 510 q 414 564 463 564 l 414 564 q 335 537 365 564 q 299 460 306 510 z m 338 800 l 160 800 l 299 1017 l 535 1017 l 674 800 l 496 800 l 388 949 l 446 949 l 338 800 z m 843 951 l 668 951 l 551 1174 l 768 1174 l 843 951 z "},"ể":{"ha":833,"x_min":53,"x_max":788,"o":"m 417 -17 l 417 -17 q 230 31 313 -17 q 100 167 147 79 q 53 375 53 256 l 53 375 q 99 578 53 490 q 228 717 146 667 q 417 767 310 767 l 417 767 q 606 716 524 767 q 734 576 688 665 q 781 369 781 486 l 781 369 l 781 314 l 294 314 q 337 220 301 254 q 424 186 372 186 l 424 186 q 492 205 463 186 q 532 256 521 224 l 532 256 l 764 240 q 635 47 721 111 q 417 -17 549 -17 z m 299 460 l 299 460 l 529 460 q 493 537 524 510 q 414 564 463 564 l 414 564 q 335 537 365 564 q 299 460 306 510 z m 338 800 l 160 800 l 299 1017 l 535 1017 l 674 800 l 496 800 l 388 949 l 446 949 l 338 800 z m 738 951 l 599 951 q 630 1004 621 981 q 639 1047 639 1028 l 639 1047 q 629 1071 639 1063 q 596 1079 619 1079 l 596 1079 q 567 1077 582 1079 q 540 1071 553 1075 l 540 1071 l 540 1186 q 581 1191 553 1189 q 643 1193 608 1193 l 643 1193 q 756 1165 725 1193 q 788 1083 788 1138 l 788 1083 q 770 1006 788 1040 q 738 951 753 971 l 738 951 z "},"ễ":{"ha":833,"x_min":53,"x_max":781,"o":"m 417 -17 l 417 -17 q 230 31 313 -17 q 100 167 147 79 q 53 375 53 256 l 53 375 q 99 578 53 490 q 228 717 146 667 q 417 767 310 767 l 417 767 q 606 716 524 767 q 734 576 688 665 q 781 369 781 486 l 781 369 l 781 314 l 294 314 q 337 220 301 254 q 424 186 372 186 l 424 186 q 492 205 463 186 q 532 256 521 224 l 532 256 l 764 240 q 635 47 721 111 q 417 -17 549 -17 z m 299 460 l 299 460 l 529 460 q 493 537 524 510 q 414 564 463 564 l 414 564 q 335 537 365 564 q 299 460 306 510 z m 332 800 l 154 800 l 299 1011 l 535 1011 l 679 800 l 501 800 l 388 946 l 446 946 l 332 800 z m 492 1061 l 492 1061 q 436 1069 461 1061 q 385 1099 411 1076 l 385 1099 q 366 1110 375 1106 q 347 1114 357 1114 l 347 1114 q 320 1101 333 1114 q 304 1054 307 1089 l 304 1054 l 185 1054 q 224 1198 185 1143 q 340 1253 264 1253 l 340 1253 q 398 1245 372 1253 q 449 1217 424 1238 l 449 1217 q 469 1203 461 1207 q 488 1199 478 1199 l 488 1199 q 516 1210 503 1199 q 531 1260 529 1222 l 531 1260 l 650 1260 q 610 1115 650 1168 q 492 1061 569 1061 z "},"ë":{"ha":833,"x_min":53,"x_max":781,"o":"m 417 -17 l 417 -17 q 230 31 313 -17 q 100 167 147 79 q 53 375 53 256 l 53 375 q 99 578 53 490 q 228 717 146 667 q 417 767 310 767 l 417 767 q 606 716 524 767 q 734 576 688 665 q 781 369 781 486 l 781 369 l 781 314 l 294 314 q 337 220 301 254 q 424 186 372 186 l 424 186 q 492 205 463 186 q 532 256 521 224 l 532 256 l 764 240 q 635 47 721 111 q 417 -17 549 -17 z m 299 460 l 299 460 l 529 460 q 493 537 524 510 q 414 564 463 564 l 414 564 q 335 537 365 564 q 299 460 306 510 z m 374 824 l 124 824 l 124 1013 l 374 1013 l 374 824 z m 710 824 l 460 824 l 460 1013 l 710 1013 l 710 824 z "},"ė":{"ha":833,"x_min":53,"x_max":781,"o":"m 417 -17 l 417 -17 q 230 31 313 -17 q 100 167 147 79 q 53 375 53 256 l 53 375 q 99 578 53 490 q 228 717 146 667 q 417 767 310 767 l 417 767 q 606 716 524 767 q 734 576 688 665 q 781 369 781 486 l 781 369 l 781 314 l 294 314 q 337 220 301 254 q 424 186 372 186 l 424 186 q 492 205 463 186 q 532 256 521 224 l 532 256 l 764 240 q 635 47 721 111 q 417 -17 549 -17 z m 299 460 l 299 460 l 529 460 q 493 537 524 510 q 414 564 463 564 l 414 564 q 335 537 365 564 q 299 460 306 510 z m 535 824 l 299 824 l 299 1007 l 535 1007 l 535 824 z "},"ẹ":{"ha":833,"x_min":53,"x_max":781,"o":"m 417 -17 l 417 -17 q 230 31 313 -17 q 100 167 147 79 q 53 375 53 256 l 53 375 q 99 578 53 490 q 228 717 146 667 q 417 767 310 767 l 417 767 q 606 716 524 767 q 734 576 688 665 q 781 369 781 486 l 781 369 l 781 314 l 294 314 q 337 220 301 254 q 424 186 372 186 l 424 186 q 492 205 463 186 q 532 256 521 224 l 532 256 l 764 240 q 635 47 721 111 q 417 -17 549 -17 z m 299 460 l 299 460 l 529 460 q 493 537 524 510 q 414 564 463 564 l 414 564 q 335 537 365 564 q 299 460 306 510 z m 525 -222 l 308 -222 l 308 -53 l 525 -53 l 525 -222 z "},"è":{"ha":833,"x_min":53,"x_max":781,"o":"m 417 -17 l 417 -17 q 230 31 313 -17 q 100 167 147 79 q 53 375 53 256 l 53 375 q 99 578 53 490 q 228 717 146 667 q 417 767 310 767 l 417 767 q 606 716 524 767 q 734 576 688 665 q 781 369 781 486 l 781 369 l 781 314 l 294 314 q 337 220 301 254 q 424 186 372 186 l 424 186 q 492 205 463 186 q 532 256 521 224 l 532 256 l 764 240 q 635 47 721 111 q 417 -17 549 -17 z m 299 460 l 299 460 l 529 460 q 493 537 524 510 q 414 564 463 564 l 414 564 q 335 537 365 564 q 299 460 306 510 z m 528 813 l 319 813 l 194 1035 l 444 1035 l 528 813 z "},"ẻ":{"ha":833,"x_min":53,"x_max":781,"o":"m 417 -17 l 417 -17 q 230 31 313 -17 q 100 167 147 79 q 53 375 53 256 l 53 375 q 99 578 53 490 q 228 717 146 667 q 417 767 310 767 l 417 767 q 606 716 524 767 q 734 576 688 665 q 781 369 781 486 l 781 369 l 781 314 l 294 314 q 337 220 301 254 q 424 186 372 186 l 424 186 q 492 205 463 186 q 532 256 521 224 l 532 256 l 764 240 q 635 47 721 111 q 417 -17 549 -17 z m 299 460 l 299 460 l 529 460 q 493 537 524 510 q 414 564 463 564 l 414 564 q 335 537 365 564 q 299 460 306 510 z m 492 814 l 492 814 l 339 814 q 376 865 364 843 q 389 908 389 888 l 389 908 q 379 933 389 925 q 344 942 369 942 l 344 942 q 315 940 331 942 q 286 933 299 938 l 286 933 l 286 1053 q 325 1058 297 1056 q 392 1061 353 1061 l 392 1061 q 511 1030 478 1061 q 544 942 544 999 l 544 942 q 526 865 544 896 q 492 814 508 833 z "},"ē":{"ha":833,"x_min":53,"x_max":781,"o":"m 417 -17 l 417 -17 q 230 31 313 -17 q 100 167 147 79 q 53 375 53 256 l 53 375 q 99 578 53 490 q 228 717 146 667 q 417 767 310 767 l 417 767 q 606 716 524 767 q 734 576 688 665 q 781 369 781 486 l 781 369 l 781 314 l 294 314 q 337 220 301 254 q 424 186 372 186 l 424 186 q 492 205 463 186 q 532 256 521 224 l 532 256 l 764 240 q 635 47 721 111 q 417 -17 549 -17 z m 299 460 l 299 460 l 529 460 q 493 537 524 510 q 414 564 463 564 l 414 564 q 335 537 365 564 q 299 460 306 510 z m 625 829 l 208 829 l 208 996 l 625 996 l 625 829 z "},"ę":{"ha":833,"x_min":53,"x_max":781,"o":"m 417 -17 l 417 -17 q 230 31 313 -17 q 100 167 147 79 q 53 375 53 256 l 53 375 q 99 578 53 490 q 228 717 146 667 q 417 767 310 767 l 417 767 q 606 716 524 767 q 734 576 688 665 q 781 369 781 486 l 781 369 l 781 314 l 294 314 q 337 220 301 254 q 424 186 372 186 l 424 186 q 492 205 463 186 q 532 256 521 224 l 532 256 l 764 240 q 635 47 721 111 q 417 -17 549 -17 z m 299 460 l 299 460 l 529 460 q 493 537 524 510 q 414 564 463 564 l 414 564 q 335 537 365 564 q 299 460 306 510 z m 472 -282 l 472 -282 q 358 -245 400 -282 q 317 -151 317 -208 l 317 -151 q 333 -78 317 -111 q 375 -10 349 -44 l 375 -10 l 425 54 l 592 26 l 550 -28 q 518 -74 528 -57 q 508 -107 508 -92 l 508 -107 q 519 -129 508 -121 q 544 -137 529 -137 l 544 -137 q 578 -131 561 -137 q 604 -117 594 -124 l 604 -117 l 642 -237 q 573 -267 619 -253 q 472 -282 526 -282 z "},"ẽ":{"ha":833,"x_min":53,"x_max":781,"o":"m 417 -17 l 417 -17 q 230 31 313 -17 q 100 167 147 79 q 53 375 53 256 l 53 375 q 99 578 53 490 q 228 717 146 667 q 417 767 310 767 l 417 767 q 606 716 524 767 q 734 576 688 665 q 781 369 781 486 l 781 369 l 781 314 l 294 314 q 337 220 301 254 q 424 186 372 186 l 424 186 q 492 205 463 186 q 532 256 521 224 l 532 256 l 764 240 q 635 47 721 111 q 417 -17 549 -17 z m 299 460 l 299 460 l 529 460 q 493 537 524 510 q 414 564 463 564 l 414 564 q 335 537 365 564 q 299 460 306 510 z m 503 824 l 503 824 q 445 835 469 824 q 394 865 421 846 l 394 865 q 364 884 378 878 q 336 890 350 890 l 336 890 q 305 874 318 890 q 289 815 292 857 l 289 815 l 181 815 q 220 981 183 932 q 325 1029 257 1029 l 325 1029 q 388 1018 361 1029 q 442 986 414 1007 l 442 986 q 472 968 458 974 q 497 963 486 963 l 497 963 q 529 980 517 963 q 544 1040 542 997 l 544 1040 l 653 1040 q 613 874 651 924 q 503 824 575 824 z "},"ə":{"ha":833,"x_min":53,"x_max":781,"o":"m 417 767 l 417 767 q 604 719 522 767 q 733 583 686 671 q 781 375 781 494 l 781 375 q 734 172 781 260 q 606 33 688 83 q 417 -17 524 -17 l 417 -17 q 228 34 310 -17 q 99 174 146 85 q 53 381 53 264 l 53 381 l 53 436 l 539 436 q 497 530 532 496 q 410 564 463 564 l 410 564 q 342 545 371 564 q 301 494 313 526 l 301 494 l 69 510 q 200 703 114 639 q 417 767 286 767 z m 535 290 l 535 290 l 304 290 q 341 213 311 240 q 419 186 371 186 l 419 186 q 499 213 468 186 q 535 290 529 240 z "},"f":{"ha":833,"x_min":83,"x_max":750,"o":"m 500 0 l 264 0 l 264 753 q 319 931 264 875 q 497 986 375 986 l 497 986 l 750 986 l 750 806 l 569 806 q 515 792 531 806 q 500 750 500 779 l 500 750 l 500 0 z m 750 569 l 83 569 l 83 750 l 750 750 l 750 569 z "},"g":{"ha":833,"x_min":42,"x_max":778,"o":"m 411 -225 l 411 -225 q 243 -199 313 -225 q 131 -124 174 -172 q 72 -11 89 -76 l 72 -11 l 319 3 q 351 -32 328 -19 q 411 -44 374 -44 l 411 -44 q 509 -12 476 -44 q 542 81 542 21 l 542 81 l 542 144 q 470 68 517 97 q 342 39 424 39 l 342 39 q 188 83 256 39 q 81 208 119 128 q 42 392 42 288 l 42 392 q 80 592 42 508 q 185 722 118 676 q 339 767 251 767 l 339 767 q 462 734 413 767 q 542 639 511 701 l 542 639 l 547 750 l 778 750 l 778 117 q 732 -76 778 0 q 603 -188 686 -151 q 411 -225 521 -225 z m 417 217 l 417 217 q 506 260 471 217 q 542 399 542 303 l 542 399 q 526 504 542 463 q 481 566 510 546 q 417 586 453 586 l 417 586 q 320 540 354 586 q 286 399 286 494 l 286 399 q 320 260 286 303 q 417 217 354 217 z "},"ğ":{"ha":833,"x_min":42,"x_max":778,"o":"m 411 -225 l 411 -225 q 243 -199 313 -225 q 131 -124 174 -172 q 72 -11 89 -76 l 72 -11 l 319 3 q 351 -32 328 -19 q 411 -44 374 -44 l 411 -44 q 509 -12 476 -44 q 542 81 542 21 l 542 81 l 542 144 q 470 68 517 97 q 342 39 424 39 l 342 39 q 188 83 256 39 q 81 208 119 128 q 42 392 42 288 l 42 392 q 80 592 42 508 q 185 722 118 676 q 339 767 251 767 l 339 767 q 462 734 413 767 q 542 639 511 701 l 542 639 l 547 750 l 778 750 l 778 117 q 732 -76 778 0 q 603 -188 686 -151 q 411 -225 521 -225 z m 417 217 l 417 217 q 506 260 471 217 q 542 399 542 303 l 542 399 q 526 504 542 463 q 481 566 510 546 q 417 586 453 586 l 417 586 q 320 540 354 586 q 286 399 286 494 l 286 399 q 320 260 286 303 q 417 217 354 217 z m 432 811 l 432 811 q 275 872 336 811 q 210 1033 214 932 l 210 1033 l 346 1033 q 374 963 350 982 q 432 944 399 944 l 432 944 q 490 963 465 944 q 518 1033 514 982 l 518 1033 l 654 1033 q 589 872 650 932 q 432 811 528 811 z "},"ǧ":{"ha":833,"x_min":42,"x_max":778,"o":"m 411 -225 l 411 -225 q 243 -199 313 -225 q 131 -124 174 -172 q 72 -11 89 -76 l 72 -11 l 319 3 q 351 -32 328 -19 q 411 -44 374 -44 l 411 -44 q 509 -12 476 -44 q 542 81 542 21 l 542 81 l 542 144 q 470 68 517 97 q 342 39 424 39 l 342 39 q 188 83 256 39 q 81 208 119 128 q 42 392 42 288 l 42 392 q 80 592 42 508 q 185 722 118 676 q 339 767 251 767 l 339 767 q 462 734 413 767 q 542 639 511 701 l 542 639 l 547 750 l 778 750 l 778 117 q 732 -76 778 0 q 603 -188 686 -151 q 411 -225 521 -225 z m 417 217 l 417 217 q 506 260 471 217 q 542 399 542 303 l 542 399 q 526 504 542 463 q 481 566 510 546 q 417 586 453 586 l 417 586 q 320 540 354 586 q 286 399 286 494 l 286 399 q 320 260 286 303 q 417 217 354 217 z m 335 815 l 196 1046 l 360 1046 l 451 897 l 413 897 l 504 1046 l 668 1046 l 529 815 l 335 815 z "},"ĝ":{"ha":833,"x_min":42,"x_max":778,"o":"m 411 -225 l 411 -225 q 243 -199 313 -225 q 131 -124 174 -172 q 72 -11 89 -76 l 72 -11 l 319 3 q 351 -32 328 -19 q 411 -44 374 -44 l 411 -44 q 509 -12 476 -44 q 542 81 542 21 l 542 81 l 542 144 q 470 68 517 97 q 342 39 424 39 l 342 39 q 188 83 256 39 q 81 208 119 128 q 42 392 42 288 l 42 392 q 80 592 42 508 q 185 722 118 676 q 339 767 251 767 l 339 767 q 462 734 413 767 q 542 639 511 701 l 542 639 l 547 750 l 778 750 l 778 117 q 732 -76 778 0 q 603 -188 686 -151 q 411 -225 521 -225 z m 417 217 l 417 217 q 506 260 471 217 q 542 399 542 303 l 542 399 q 526 504 542 463 q 481 566 510 546 q 417 586 453 586 l 417 586 q 320 540 354 586 q 286 399 286 494 l 286 399 q 320 260 286 303 q 417 217 354 217 z m 360 815 l 196 815 l 335 1046 l 529 1046 l 668 815 l 504 815 l 413 964 l 451 964 l 360 815 z "},"ģ":{"ha":833,"x_min":42,"x_max":778,"o":"m 411 -225 l 411 -225 q 243 -199 313 -225 q 131 -124 174 -172 q 72 -11 89 -76 l 72 -11 l 319 3 q 351 -32 328 -19 q 411 -44 374 -44 l 411 -44 q 509 -12 476 -44 q 542 81 542 21 l 542 81 l 542 144 q 470 68 517 97 q 342 39 424 39 l 342 39 q 188 83 256 39 q 81 208 119 128 q 42 392 42 288 l 42 392 q 80 592 42 508 q 185 722 118 676 q 339 767 251 767 l 339 767 q 462 734 413 767 q 542 639 511 701 l 542 639 l 547 750 l 778 750 l 778 117 q 732 -76 778 0 q 603 -188 686 -151 q 411 -225 521 -225 z m 417 217 l 417 217 q 506 260 471 217 q 542 399 542 303 l 542 399 q 526 504 542 463 q 481 566 510 546 q 417 586 453 586 l 417 586 q 320 540 354 586 q 286 399 286 494 l 286 399 q 320 260 286 303 q 417 217 354 217 z m 438 1111 l 557 1111 l 465 986 l 532 986 l 532 811 l 329 811 l 329 967 l 438 1111 z "},"ġ":{"ha":833,"x_min":42,"x_max":778,"o":"m 411 -225 l 411 -225 q 243 -199 313 -225 q 131 -124 174 -172 q 72 -11 89 -76 l 72 -11 l 319 3 q 351 -32 328 -19 q 411 -44 374 -44 l 411 -44 q 509 -12 476 -44 q 542 81 542 21 l 542 81 l 542 144 q 470 68 517 97 q 342 39 424 39 l 342 39 q 188 83 256 39 q 81 208 119 128 q 42 392 42 288 l 42 392 q 80 592 42 508 q 185 722 118 676 q 339 767 251 767 l 339 767 q 462 734 413 767 q 542 639 511 701 l 542 639 l 547 750 l 778 750 l 778 117 q 732 -76 778 0 q 603 -188 686 -151 q 411 -225 521 -225 z m 417 217 l 417 217 q 506 260 471 217 q 542 399 542 303 l 542 399 q 526 504 542 463 q 481 566 510 546 q 417 586 453 586 l 417 586 q 320 540 354 586 q 286 399 286 494 l 286 399 q 320 260 286 303 q 417 217 354 217 z m 550 825 l 314 825 l 314 1008 l 550 1008 l 550 825 z "},"ḡ":{"ha":833,"x_min":42,"x_max":778,"o":"m 411 -225 l 411 -225 q 243 -199 313 -225 q 131 -124 174 -172 q 72 -11 89 -76 l 72 -11 l 319 3 q 351 -32 328 -19 q 411 -44 374 -44 l 411 -44 q 509 -12 476 -44 q 542 81 542 21 l 542 81 l 542 144 q 470 68 517 97 q 342 39 424 39 l 342 39 q 188 83 256 39 q 81 208 119 128 q 42 392 42 288 l 42 392 q 80 592 42 508 q 185 722 118 676 q 339 767 251 767 l 339 767 q 462 734 413 767 q 542 639 511 701 l 542 639 l 547 750 l 778 750 l 778 117 q 732 -76 778 0 q 603 -188 686 -151 q 411 -225 521 -225 z m 417 217 l 417 217 q 506 260 471 217 q 542 399 542 303 l 542 399 q 526 504 542 463 q 481 566 510 546 q 417 586 453 586 l 417 586 q 320 540 354 586 q 286 399 286 494 l 286 399 q 320 260 286 303 q 417 217 354 217 z m 640 831 l 224 831 l 224 997 l 640 997 l 640 831 z "},"ǥ":{"ha":833,"x_min":28,"x_max":819,"o":"m 819 322 l 411 322 l 411 461 l 819 461 l 819 322 z m 397 -225 l 397 -225 q 229 -199 299 -225 q 117 -124 160 -172 q 58 -11 75 -76 l 58 -11 l 306 3 q 337 -32 314 -19 q 397 -44 360 -44 l 397 -44 q 495 -12 463 -44 q 528 81 528 21 l 528 81 l 528 144 q 456 68 503 97 q 328 39 410 39 l 328 39 q 174 83 242 39 q 67 208 106 128 q 28 392 28 288 l 28 392 q 66 592 28 508 q 171 722 104 676 q 325 767 238 767 l 325 767 q 448 734 399 767 q 528 639 497 701 l 528 639 l 533 750 l 764 750 l 764 117 q 718 -76 764 0 q 590 -188 672 -151 q 397 -225 507 -225 z m 403 217 l 403 217 q 492 260 457 217 q 528 399 528 303 l 528 399 q 512 504 528 463 q 467 566 496 546 q 403 586 439 586 l 403 586 q 306 540 340 586 q 272 399 272 494 l 272 399 q 306 260 272 303 q 403 217 340 217 z "},"h":{"ha":833,"x_min":89,"x_max":744,"o":"m 325 0 l 89 0 l 89 986 l 325 986 l 325 593 l 308 614 q 359 701 328 668 q 433 751 390 735 q 531 767 476 767 l 531 767 q 653 733 606 767 q 722 635 700 699 q 744 485 744 572 l 744 485 l 744 0 l 508 0 l 508 442 q 485 542 508 515 q 426 569 463 569 l 426 569 q 355 533 385 569 q 325 422 325 497 l 325 422 l 325 0 z "},"ħ":{"ha":833,"x_min":28,"x_max":744,"o":"m 325 0 l 89 0 l 89 986 l 325 986 l 325 593 l 308 614 q 359 701 328 668 q 433 751 390 735 q 531 767 476 767 l 531 767 q 653 733 606 767 q 722 635 700 699 q 744 485 744 572 l 744 485 l 744 0 l 508 0 l 508 442 q 485 542 508 515 q 426 569 463 569 l 426 569 q 355 533 385 569 q 325 422 325 497 l 325 422 l 325 0 z m 528 794 l 28 794 l 28 933 l 528 933 l 528 794 z "},"ĥ":{"ha":833,"x_min":-14,"x_max":744,"o":"m 325 0 l 89 0 l 89 986 l 325 986 l 325 593 l 308 614 q 359 701 328 668 q 433 751 390 735 q 531 767 476 767 l 531 767 q 653 733 606 767 q 722 635 700 699 q 744 485 744 572 l 744 485 l 744 0 l 508 0 l 508 442 q 485 542 508 515 q 426 569 463 569 l 426 569 q 355 533 385 569 q 325 422 325 497 l 325 422 l 325 0 z m 150 1051 l -14 1051 l 125 1282 l 319 1282 l 458 1051 l 294 1051 l 203 1200 l 242 1200 l 150 1051 z "},"i":{"ha":833,"x_min":83,"x_max":806,"o":"m 347 0 l 83 0 l 83 181 l 347 181 l 347 665 l 443 569 l 97 569 l 97 750 l 583 750 l 583 181 l 806 181 l 806 0 l 583 0 l 347 0 z m 582 825 l 346 825 l 346 1008 l 582 1008 l 582 825 z "},"ı":{"ha":833,"x_min":83,"x_max":806,"o":"m 347 0 l 83 0 l 83 181 l 347 181 l 347 665 l 443 569 l 97 569 l 97 750 l 583 750 l 583 181 l 806 181 l 806 0 l 583 0 l 347 0 z "},"í":{"ha":833,"x_min":83,"x_max":806,"o":"m 347 0 l 83 0 l 83 181 l 347 181 l 347 665 l 443 569 l 97 569 l 97 750 l 583 750 l 583 181 l 806 181 l 806 0 l 583 0 l 347 0 z m 568 815 l 360 815 l 443 1038 l 693 1038 l 568 815 z "},"î":{"ha":833,"x_min":83,"x_max":806,"o":"m 347 0 l 83 0 l 83 181 l 347 181 l 347 665 l 443 569 l 97 569 l 97 750 l 583 750 l 583 181 l 806 181 l 806 0 l 583 0 l 347 0 z m 392 815 l 228 815 l 367 1046 l 561 1046 l 700 815 l 536 815 l 444 964 l 483 964 l 392 815 z "},"ï":{"ha":833,"x_min":83,"x_max":806,"o":"m 347 0 l 83 0 l 83 181 l 347 181 l 347 665 l 443 569 l 97 569 l 97 750 l 583 750 l 583 181 l 806 181 l 806 0 l 583 0 l 347 0 z m 421 825 l 171 825 l 171 1014 l 421 1014 l 421 825 z m 757 825 l 507 825 l 507 1014 l 757 1014 l 757 825 z "},"ị":{"ha":833,"x_min":83,"x_max":806,"o":"m 347 0 l 83 0 l 83 181 l 347 181 l 347 665 l 443 569 l 97 569 l 97 750 l 583 750 l 583 181 l 806 181 l 806 0 l 583 0 l 347 0 z m 582 825 l 346 825 l 346 1008 l 582 1008 l 582 825 z m 525 -222 l 308 -222 l 308 -53 l 525 -53 l 525 -222 z "},"ì":{"ha":833,"x_min":83,"x_max":806,"o":"m 347 0 l 83 0 l 83 181 l 347 181 l 347 665 l 443 569 l 97 569 l 97 750 l 583 750 l 583 181 l 806 181 l 806 0 l 583 0 l 347 0 z m 575 814 l 367 814 l 242 1036 l 492 1036 l 575 814 z "},"ỉ":{"ha":833,"x_min":83,"x_max":806,"o":"m 347 0 l 83 0 l 83 181 l 347 181 l 347 665 l 443 569 l 97 569 l 97 750 l 583 750 l 583 181 l 806 181 l 806 0 l 583 0 l 347 0 z m 539 815 l 539 815 l 386 815 q 424 867 411 844 q 436 910 436 889 l 436 910 q 426 935 436 926 q 392 943 417 943 l 392 943 q 362 941 378 943 q 333 935 346 939 l 333 935 l 333 1054 q 372 1060 344 1057 q 439 1063 400 1063 l 439 1063 q 558 1031 525 1063 q 592 943 592 1000 l 592 943 q 574 866 592 897 q 539 815 556 835 z "},"ī":{"ha":833,"x_min":83,"x_max":806,"o":"m 347 0 l 83 0 l 83 181 l 347 181 l 347 665 l 443 569 l 97 569 l 97 750 l 583 750 l 583 181 l 806 181 l 806 0 l 583 0 l 347 0 z m 672 831 l 256 831 l 256 997 l 672 997 l 672 831 z "},"į":{"ha":833,"x_min":83,"x_max":856,"o":"m 347 0 l 83 0 l 83 181 l 347 181 l 347 665 l 443 569 l 97 569 l 97 750 l 583 750 l 583 181 l 806 181 l 806 0 l 583 0 l 347 0 z m 582 825 l 346 825 l 346 1008 l 582 1008 l 582 825 z m 686 -308 l 686 -308 q 572 -272 614 -308 q 531 -178 531 -235 l 531 -178 q 547 -104 531 -137 q 589 -36 563 -71 l 589 -36 l 639 28 l 806 0 l 764 -54 q 732 -101 742 -83 q 722 -133 722 -118 l 722 -133 q 733 -156 722 -147 q 758 -164 743 -164 l 758 -164 q 792 -157 775 -164 q 818 -143 808 -150 l 818 -143 l 856 -264 q 787 -294 833 -279 q 686 -308 740 -308 z "},"ĩ":{"ha":833,"x_min":83,"x_max":806,"o":"m 347 0 l 83 0 l 83 181 l 347 181 l 347 665 l 443 569 l 97 569 l 97 750 l 583 750 l 583 181 l 806 181 l 806 0 l 583 0 l 347 0 z m 550 825 l 550 825 q 492 836 517 825 q 442 867 468 847 l 442 867 q 411 885 425 879 q 383 892 397 892 l 383 892 q 352 875 365 892 q 336 817 339 858 l 336 817 l 228 817 q 267 982 231 933 q 372 1031 304 1031 l 372 1031 q 435 1019 408 1031 q 489 988 461 1008 l 489 988 q 519 969 506 975 q 544 964 533 964 l 544 964 q 576 981 564 964 q 592 1042 589 999 l 592 1042 l 700 1042 q 660 875 699 925 q 550 825 622 825 z "},"j":{"ha":833,"x_min":125,"x_max":678,"o":"m 339 -208 l 125 -208 l 125 -28 l 317 -28 q 412 3 382 -28 q 442 97 442 33 l 442 97 l 442 665 l 538 569 l 126 569 l 126 750 l 678 750 l 678 92 q 591 -131 678 -54 q 339 -208 504 -208 l 339 -208 z m 678 825 l 442 825 l 442 1008 l 678 1008 l 678 825 z "},"ȷ":{"ha":833,"x_min":125,"x_max":678,"o":"m 339 -208 l 125 -208 l 125 -28 l 317 -28 q 412 3 382 -28 q 442 97 442 33 l 442 97 l 442 665 l 538 569 l 126 569 l 126 750 l 678 750 l 678 92 q 591 -131 678 -54 q 339 -208 504 -208 l 339 -208 z "},"ĵ":{"ha":833,"x_min":125,"x_max":796,"o":"m 339 -208 l 125 -208 l 125 -28 l 317 -28 q 412 3 382 -28 q 442 97 442 33 l 442 97 l 442 665 l 538 569 l 126 569 l 126 750 l 678 750 l 678 92 q 591 -131 678 -54 q 339 -208 504 -208 l 339 -208 z m 488 815 l 324 815 l 463 1046 l 657 1046 l 796 815 l 632 815 l 540 964 l 579 964 l 488 815 z "},"k":{"ha":833,"x_min":56,"x_max":806,"o":"m 292 0 l 56 0 l 56 986 l 292 986 l 292 472 l 525 750 l 794 750 l 517 428 l 806 0 l 542 0 l 364 278 l 292 197 l 292 0 z "},"ǩ":{"ha":833,"x_min":-49,"x_max":806,"o":"m 292 0 l 56 0 l 56 986 l 292 986 l 292 472 l 525 750 l 794 750 l 517 428 l 806 0 l 542 0 l 364 278 l 292 197 l 292 0 z m 90 1051 l -49 1282 l 115 1282 l 207 1133 l 168 1133 l 260 1282 l 424 1282 l 285 1051 l 90 1051 z "},"ķ":{"ha":833,"x_min":56,"x_max":806,"o":"m 292 0 l 56 0 l 56 986 l 292 986 l 292 472 l 525 750 l 794 750 l 517 428 l 806 0 l 542 0 l 364 278 l 292 197 l 292 0 z m 407 -364 l 288 -364 l 379 -239 l 313 -239 l 313 -64 l 515 -64 l 515 -219 l 407 -364 z "},"l":{"ha":833,"x_min":56,"x_max":778,"o":"m 553 56 l 317 56 l 317 725 q 297 785 317 765 q 236 806 276 806 l 236 806 l 83 806 l 83 986 l 289 986 q 487 920 421 986 q 553 722 553 854 l 553 722 l 553 56 z m 778 0 l 56 0 l 56 181 l 778 181 l 778 0 z "},"ĺ":{"ha":833,"x_min":56,"x_max":778,"o":"m 553 56 l 317 56 l 317 725 q 297 785 317 765 q 236 806 276 806 l 236 806 l 83 806 l 83 986 l 289 986 q 487 920 421 986 q 553 722 553 854 l 553 722 l 553 56 z m 778 0 l 56 0 l 56 181 l 778 181 l 778 0 z m 493 1051 l 285 1051 l 368 1274 l 618 1274 l 493 1051 z "},"ľ":{"ha":833,"x_min":56,"x_max":828,"o":"m 553 56 l 317 56 l 317 725 q 297 785 317 765 q 236 806 276 806 l 236 806 l 83 806 l 83 986 l 289 986 q 487 920 421 986 q 553 722 553 854 l 553 722 l 553 56 z m 778 0 l 56 0 l 56 181 l 778 181 l 778 0 z m 742 560 l 575 560 l 619 986 l 828 986 l 742 560 z "},"ļ":{"ha":833,"x_min":56,"x_max":778,"o":"m 553 56 l 317 56 l 317 725 q 297 785 317 765 q 236 806 276 806 l 236 806 l 83 806 l 83 986 l 289 986 q 487 920 421 986 q 553 722 553 854 l 553 722 l 553 56 z m 778 0 l 56 0 l 56 181 l 778 181 l 778 0 z m 426 -364 l 307 -364 l 399 -239 l 332 -239 l 332 -64 l 535 -64 l 535 -219 l 426 -364 z "},"ł":{"ha":833,"x_min":56,"x_max":778,"o":"m 553 56 l 317 56 l 317 725 q 297 785 317 765 q 236 806 276 806 l 236 806 l 83 806 l 83 986 l 289 986 q 487 920 421 986 q 553 722 553 854 l 553 722 l 553 56 z m 778 0 l 56 0 l 56 181 l 778 181 l 778 0 z m 708 500 l 153 333 l 153 500 l 708 667 l 708 500 z "},"m":{"ha":833,"x_min":28,"x_max":806,"o":"m 244 0 l 28 0 l 28 750 l 213 750 l 221 574 l 203 579 q 263 722 224 678 q 358 767 301 767 l 358 767 q 458 720 429 767 q 500 575 488 674 l 500 575 l 475 575 q 539 720 492 674 q 653 767 586 767 l 653 767 q 768 709 731 767 q 806 536 806 651 l 806 536 l 806 0 l 589 0 l 589 483 q 581 554 589 539 q 557 569 574 569 l 557 569 q 535 561 544 569 q 519 534 525 553 q 514 483 514 515 l 514 483 l 514 0 l 319 0 l 319 483 q 312 553 319 536 q 286 569 304 569 l 286 569 q 263 561 272 569 q 249 534 253 553 q 244 483 244 515 l 244 483 l 244 0 z "},"n":{"ha":833,"x_min":89,"x_max":744,"o":"m 325 0 l 89 0 l 89 750 l 304 750 l 311 536 l 289 542 q 333 669 301 619 q 415 743 365 719 q 528 767 464 767 l 528 767 q 653 732 606 767 q 722 635 700 697 q 744 488 744 572 l 744 488 l 744 0 l 508 0 l 508 439 q 488 540 508 510 q 426 569 467 569 l 426 569 q 377 553 400 569 q 340 506 354 538 q 325 425 325 474 l 325 425 l 325 0 z "},"ń":{"ha":833,"x_min":89,"x_max":744,"o":"m 325 0 l 89 0 l 89 750 l 304 750 l 311 536 l 289 542 q 333 669 301 619 q 415 743 365 719 q 528 767 464 767 l 528 767 q 653 732 606 767 q 722 635 700 697 q 744 488 744 572 l 744 488 l 744 0 l 508 0 l 508 439 q 488 540 508 510 q 426 569 467 569 l 426 569 q 377 553 400 569 q 340 506 354 538 q 325 425 325 474 l 325 425 l 325 0 z m 517 815 l 308 815 l 392 1038 l 642 1038 l 517 815 z "},"ň":{"ha":833,"x_min":89,"x_max":744,"o":"m 325 0 l 89 0 l 89 750 l 304 750 l 311 536 l 289 542 q 333 669 301 619 q 415 743 365 719 q 528 767 464 767 l 528 767 q 653 732 606 767 q 722 635 700 697 q 744 488 744 572 l 744 488 l 744 0 l 508 0 l 508 439 q 488 540 508 510 q 426 569 467 569 l 426 569 q 377 553 400 569 q 340 506 354 538 q 325 425 325 474 l 325 425 l 325 0 z m 315 815 l 176 1046 l 340 1046 l 432 897 l 393 897 l 485 1046 l 649 1046 l 510 815 l 315 815 z "},"ņ":{"ha":833,"x_min":89,"x_max":744,"o":"m 325 0 l 89 0 l 89 750 l 304 750 l 311 536 l 289 542 q 333 669 301 619 q 415 743 365 719 q 528 767 464 767 l 528 767 q 653 732 606 767 q 722 635 700 697 q 744 488 744 572 l 744 488 l 744 0 l 508 0 l 508 439 q 488 540 508 510 q 426 569 467 569 l 426 569 q 377 553 400 569 q 340 506 354 538 q 325 425 325 474 l 325 425 l 325 0 z m 406 -364 l 286 -364 l 378 -239 l 311 -239 l 311 -64 l 514 -64 l 514 -219 l 406 -364 z "},"ñ":{"ha":833,"x_min":89,"x_max":744,"o":"m 325 0 l 89 0 l 89 750 l 304 750 l 311 536 l 289 542 q 333 669 301 619 q 415 743 365 719 q 528 767 464 767 l 528 767 q 653 732 606 767 q 722 635 700 697 q 744 488 744 572 l 744 488 l 744 0 l 508 0 l 508 439 q 488 540 508 510 q 426 569 467 569 l 426 569 q 377 553 400 569 q 340 506 354 538 q 325 425 325 474 l 325 425 l 325 0 z m 499 825 l 499 825 q 441 836 465 825 q 390 867 417 847 l 390 867 q 360 885 374 879 q 332 892 346 892 l 332 892 q 301 875 314 892 q 285 817 288 858 l 285 817 l 176 817 q 216 982 179 933 q 321 1031 253 1031 l 321 1031 q 383 1019 357 1031 q 438 988 410 1008 l 438 988 q 468 969 454 975 q 493 964 482 964 l 493 964 q 525 981 513 964 q 540 1042 538 999 l 540 1042 l 649 1042 q 609 875 647 925 q 499 825 571 825 z "},"ŋ":{"ha":833,"x_min":89,"x_max":744,"o":"m 533 -208 l 392 -208 l 392 -28 l 460 -28 q 496 -17 483 -28 q 508 15 508 -6 l 508 15 l 508 156 l 744 156 l 744 -4 q 686 -151 744 -94 q 533 -208 628 -208 l 533 -208 z m 325 0 l 89 0 l 89 750 l 304 750 l 311 536 l 289 542 q 333 669 301 619 q 415 743 365 719 q 528 767 464 767 l 528 767 q 653 732 606 767 q 722 635 700 697 q 744 488 744 572 l 744 488 l 744 0 l 508 0 l 508 439 q 488 540 508 510 q 426 569 467 569 l 426 569 q 377 553 400 569 q 340 506 354 538 q 325 425 325 474 l 325 425 l 325 0 z "},"o":{"ha":833,"x_min":53,"x_max":781,"o":"m 417 -17 l 417 -17 q 226 31 308 -17 q 99 167 144 79 q 53 375 53 256 l 53 375 q 99 583 53 494 q 226 719 144 671 q 417 767 308 767 l 417 767 q 607 719 525 767 q 735 583 689 671 q 781 375 781 494 l 781 375 q 735 167 781 256 q 607 31 689 79 q 417 -17 525 -17 z m 417 186 l 417 186 q 506 234 475 186 q 536 376 536 282 l 536 376 q 506 517 536 469 q 417 564 475 564 l 417 564 q 328 517 358 564 q 297 376 297 469 l 297 376 q 328 234 297 282 q 417 186 358 186 z "},"ó":{"ha":833,"x_min":53,"x_max":781,"o":"m 417 -17 l 417 -17 q 226 31 308 -17 q 99 167 144 79 q 53 375 53 256 l 53 375 q 99 583 53 494 q 226 719 144 671 q 417 767 308 767 l 417 767 q 607 719 525 767 q 735 583 689 671 q 781 375 781 494 l 781 375 q 735 167 781 256 q 607 31 689 79 q 417 -17 525 -17 z m 417 186 l 417 186 q 506 234 475 186 q 536 376 536 282 l 536 376 q 506 517 536 469 q 417 564 475 564 l 417 564 q 328 517 358 564 q 297 376 297 469 l 297 376 q 328 234 297 282 q 417 186 358 186 z m 521 815 l 313 815 l 396 1038 l 646 1038 l 521 815 z "},"ô":{"ha":833,"x_min":53,"x_max":781,"o":"m 417 -17 l 417 -17 q 226 31 308 -17 q 99 167 144 79 q 53 375 53 256 l 53 375 q 99 583 53 494 q 226 719 144 671 q 417 767 308 767 l 417 767 q 607 719 525 767 q 735 583 689 671 q 781 375 781 494 l 781 375 q 735 167 781 256 q 607 31 689 79 q 417 -17 525 -17 z m 417 186 l 417 186 q 506 234 475 186 q 536 376 536 282 l 536 376 q 506 517 536 469 q 417 564 475 564 l 417 564 q 328 517 358 564 q 297 376 297 469 l 297 376 q 328 234 297 282 q 417 186 358 186 z m 344 815 l 181 815 l 319 1046 l 514 1046 l 653 815 l 489 815 l 397 964 l 436 964 l 344 815 z "},"ố":{"ha":833,"x_min":53,"x_max":885,"o":"m 417 -17 l 417 -17 q 226 31 308 -17 q 99 167 144 79 q 53 375 53 256 l 53 375 q 99 583 53 494 q 226 719 144 671 q 417 767 308 767 l 417 767 q 607 719 525 767 q 735 583 689 671 q 781 375 781 494 l 781 375 q 735 167 781 256 q 607 31 689 79 q 417 -17 525 -17 z m 417 186 l 417 186 q 506 234 475 186 q 536 376 536 282 l 536 376 q 506 517 536 469 q 417 564 475 564 l 417 564 q 328 517 358 564 q 297 376 297 469 l 297 376 q 328 234 297 282 q 417 186 358 186 z m 338 801 l 160 801 l 299 1018 l 535 1018 l 674 801 l 496 801 l 388 950 l 446 950 l 338 801 z m 768 953 l 593 953 l 668 1175 l 885 1175 l 768 953 z "},"ộ":{"ha":833,"x_min":53,"x_max":781,"o":"m 417 -17 l 417 -17 q 226 31 308 -17 q 99 167 144 79 q 53 375 53 256 l 53 375 q 99 583 53 494 q 226 719 144 671 q 417 767 308 767 l 417 767 q 607 719 525 767 q 735 583 689 671 q 781 375 781 494 l 781 375 q 735 167 781 256 q 607 31 689 79 q 417 -17 525 -17 z m 417 186 l 417 186 q 506 234 475 186 q 536 376 536 282 l 536 376 q 506 517 536 469 q 417 564 475 564 l 417 564 q 328 517 358 564 q 297 376 297 469 l 297 376 q 328 234 297 282 q 417 186 358 186 z m 525 -222 l 308 -222 l 308 -53 l 525 -53 l 525 -222 z m 344 815 l 181 815 l 319 1046 l 514 1046 l 653 815 l 489 815 l 397 964 l 436 964 l 344 815 z "},"ồ":{"ha":833,"x_min":53,"x_max":843,"o":"m 417 -17 l 417 -17 q 226 31 308 -17 q 99 167 144 79 q 53 375 53 256 l 53 375 q 99 583 53 494 q 226 719 144 671 q 417 767 308 767 l 417 767 q 607 719 525 767 q 735 583 689 671 q 781 375 781 494 l 781 375 q 735 167 781 256 q 607 31 689 79 q 417 -17 525 -17 z m 417 186 l 417 186 q 506 234 475 186 q 536 376 536 282 l 536 376 q 506 517 536 469 q 417 564 475 564 l 417 564 q 328 517 358 564 q 297 376 297 469 l 297 376 q 328 234 297 282 q 417 186 358 186 z m 338 801 l 160 801 l 299 1018 l 535 1018 l 674 801 l 496 801 l 388 950 l 446 950 l 338 801 z m 843 953 l 668 953 l 551 1175 l 768 1175 l 843 953 z "},"ổ":{"ha":833,"x_min":53,"x_max":788,"o":"m 417 -17 l 417 -17 q 226 31 308 -17 q 99 167 144 79 q 53 375 53 256 l 53 375 q 99 583 53 494 q 226 719 144 671 q 417 767 308 767 l 417 767 q 607 719 525 767 q 735 583 689 671 q 781 375 781 494 l 781 375 q 735 167 781 256 q 607 31 689 79 q 417 -17 525 -17 z m 417 186 l 417 186 q 506 234 475 186 q 536 376 536 282 l 536 376 q 506 517 536 469 q 417 564 475 564 l 417 564 q 328 517 358 564 q 297 376 297 469 l 297 376 q 328 234 297 282 q 417 186 358 186 z m 338 801 l 160 801 l 299 1018 l 535 1018 l 674 801 l 496 801 l 388 950 l 446 950 l 338 801 z m 738 953 l 599 953 q 630 1006 621 982 q 639 1049 639 1029 l 639 1049 q 629 1072 639 1064 q 596 1081 619 1081 l 596 1081 q 567 1078 582 1081 q 540 1072 553 1076 l 540 1072 l 540 1188 q 581 1192 553 1190 q 643 1194 608 1194 l 643 1194 q 756 1167 725 1194 q 788 1085 788 1139 l 788 1085 q 770 1007 788 1042 q 738 953 753 972 l 738 953 z "},"ỗ":{"ha":833,"x_min":53,"x_max":781,"o":"m 417 -17 l 417 -17 q 226 31 308 -17 q 99 167 144 79 q 53 375 53 256 l 53 375 q 99 583 53 494 q 226 719 144 671 q 417 767 308 767 l 417 767 q 607 719 525 767 q 735 583 689 671 q 781 375 781 494 l 781 375 q 735 167 781 256 q 607 31 689 79 q 417 -17 525 -17 z m 417 186 l 417 186 q 506 234 475 186 q 536 376 536 282 l 536 376 q 506 517 536 469 q 417 564 475 564 l 417 564 q 328 517 358 564 q 297 376 297 469 l 297 376 q 328 234 297 282 q 417 186 358 186 z m 332 801 l 154 801 l 299 1013 l 535 1013 l 679 801 l 501 801 l 388 947 l 446 947 l 332 801 z m 492 1063 l 492 1063 q 436 1070 461 1063 q 385 1100 411 1078 l 385 1100 q 366 1111 375 1107 q 347 1115 357 1115 l 347 1115 q 320 1103 333 1115 q 304 1056 307 1090 l 304 1056 l 185 1056 q 224 1199 185 1144 q 340 1254 264 1254 l 340 1254 q 398 1247 372 1254 q 449 1218 424 1239 l 449 1218 q 469 1204 461 1208 q 488 1200 478 1200 l 488 1200 q 516 1212 503 1200 q 531 1261 529 1224 l 531 1261 l 650 1261 q 610 1116 650 1169 q 492 1063 569 1063 z "},"ö":{"ha":833,"x_min":53,"x_max":781,"o":"m 417 -17 l 417 -17 q 226 31 308 -17 q 99 167 144 79 q 53 375 53 256 l 53 375 q 99 583 53 494 q 226 719 144 671 q 417 767 308 767 l 417 767 q 607 719 525 767 q 735 583 689 671 q 781 375 781 494 l 781 375 q 735 167 781 256 q 607 31 689 79 q 417 -17 525 -17 z m 417 186 l 417 186 q 506 234 475 186 q 536 376 536 282 l 536 376 q 506 517 536 469 q 417 564 475 564 l 417 564 q 328 517 358 564 q 297 376 297 469 l 297 376 q 328 234 297 282 q 417 186 358 186 z m 374 825 l 124 825 l 124 1014 l 374 1014 l 374 825 z m 710 825 l 460 825 l 460 1014 l 710 1014 l 710 825 z "},"ọ":{"ha":833,"x_min":53,"x_max":781,"o":"m 417 -17 l 417 -17 q 226 31 308 -17 q 99 167 144 79 q 53 375 53 256 l 53 375 q 99 583 53 494 q 226 719 144 671 q 417 767 308 767 l 417 767 q 607 719 525 767 q 735 583 689 671 q 781 375 781 494 l 781 375 q 735 167 781 256 q 607 31 689 79 q 417 -17 525 -17 z m 417 186 l 417 186 q 506 234 475 186 q 536 376 536 282 l 536 376 q 506 517 536 469 q 417 564 475 564 l 417 564 q 328 517 358 564 q 297 376 297 469 l 297 376 q 328 234 297 282 q 417 186 358 186 z m 525 -222 l 308 -222 l 308 -53 l 525 -53 l 525 -222 z "},"ò":{"ha":833,"x_min":53,"x_max":781,"o":"m 417 -17 l 417 -17 q 226 31 308 -17 q 99 167 144 79 q 53 375 53 256 l 53 375 q 99 583 53 494 q 226 719 144 671 q 417 767 308 767 l 417 767 q 607 719 525 767 q 735 583 689 671 q 781 375 781 494 l 781 375 q 735 167 781 256 q 607 31 689 79 q 417 -17 525 -17 z m 417 186 l 417 186 q 506 234 475 186 q 536 376 536 282 l 536 376 q 506 517 536 469 q 417 564 475 564 l 417 564 q 328 517 358 564 q 297 376 297 469 l 297 376 q 328 234 297 282 q 417 186 358 186 z m 528 814 l 319 814 l 194 1036 l 444 1036 l 528 814 z "},"ỏ":{"ha":833,"x_min":53,"x_max":781,"o":"m 417 -17 l 417 -17 q 226 31 308 -17 q 99 167 144 79 q 53 375 53 256 l 53 375 q 99 583 53 494 q 226 719 144 671 q 417 767 308 767 l 417 767 q 607 719 525 767 q 735 583 689 671 q 781 375 781 494 l 781 375 q 735 167 781 256 q 607 31 689 79 q 417 -17 525 -17 z m 417 186 l 417 186 q 506 234 475 186 q 536 376 536 282 l 536 376 q 506 517 536 469 q 417 564 475 564 l 417 564 q 328 517 358 564 q 297 376 297 469 l 297 376 q 328 234 297 282 q 417 186 358 186 z m 492 815 l 492 815 l 339 815 q 376 867 364 844 q 389 910 389 889 l 389 910 q 379 935 389 926 q 344 943 369 943 l 344 943 q 315 941 331 943 q 286 935 299 939 l 286 935 l 286 1054 q 325 1060 297 1057 q 392 1063 353 1063 l 392 1063 q 511 1031 478 1063 q 544 943 544 1000 l 544 943 q 526 866 544 897 q 492 815 508 835 z "},"ơ":{"ha":833,"x_min":53,"x_max":819,"o":"m 417 -17 l 417 -17 q 226 31 308 -17 q 99 167 144 79 q 53 375 53 256 l 53 375 q 99 583 53 494 q 226 719 144 671 q 417 767 308 767 l 417 767 q 607 719 525 767 q 735 583 689 671 q 781 375 781 494 l 781 375 q 735 167 781 256 q 607 31 689 79 q 417 -17 525 -17 z m 417 186 l 417 186 q 506 234 475 186 q 536 376 536 282 l 536 376 q 506 517 536 469 q 417 564 475 564 l 417 564 q 328 517 358 564 q 297 376 297 469 l 297 376 q 328 234 297 282 q 417 186 358 186 z m 567 639 l 475 639 l 464 750 l 535 750 q 599 769 576 750 q 621 831 621 789 l 621 831 q 615 906 621 867 q 601 969 608 944 l 601 969 l 800 969 q 814 907 808 943 q 819 831 819 871 l 819 831 q 761 685 819 732 q 567 639 703 639 l 567 639 z "},"ớ":{"ha":833,"x_min":53,"x_max":819,"o":"m 417 -17 l 417 -17 q 226 31 308 -17 q 99 167 144 79 q 53 375 53 256 l 53 375 q 99 583 53 494 q 226 719 144 671 q 417 767 308 767 l 417 767 q 607 719 525 767 q 735 583 689 671 q 781 375 781 494 l 781 375 q 735 167 781 256 q 607 31 689 79 q 417 -17 525 -17 z m 417 186 l 417 186 q 506 234 475 186 q 536 376 536 282 l 536 376 q 506 517 536 469 q 417 564 475 564 l 417 564 q 328 517 358 564 q 297 376 297 469 l 297 376 q 328 234 297 282 q 417 186 358 186 z m 567 639 l 475 639 l 464 750 l 535 750 q 599 769 576 750 q 621 831 621 789 l 621 831 q 615 906 621 867 q 601 969 608 944 l 601 969 l 800 969 q 814 907 808 943 q 819 831 819 871 l 819 831 q 761 685 819 732 q 567 639 703 639 l 567 639 z m 453 815 l 244 815 l 328 1038 l 578 1038 l 453 815 z "},"ợ":{"ha":833,"x_min":53,"x_max":819,"o":"m 417 -17 l 417 -17 q 226 31 308 -17 q 99 167 144 79 q 53 375 53 256 l 53 375 q 99 583 53 494 q 226 719 144 671 q 417 767 308 767 l 417 767 q 607 719 525 767 q 735 583 689 671 q 781 375 781 494 l 781 375 q 735 167 781 256 q 607 31 689 79 q 417 -17 525 -17 z m 417 186 l 417 186 q 506 234 475 186 q 536 376 536 282 l 536 376 q 506 517 536 469 q 417 564 475 564 l 417 564 q 328 517 358 564 q 297 376 297 469 l 297 376 q 328 234 297 282 q 417 186 358 186 z m 567 639 l 475 639 l 464 750 l 535 750 q 599 769 576 750 q 621 831 621 789 l 621 831 q 615 906 621 867 q 601 969 608 944 l 601 969 l 800 969 q 814 907 808 943 q 819 831 819 871 l 819 831 q 761 685 819 732 q 567 639 703 639 l 567 639 z m 525 -222 l 308 -222 l 308 -53 l 525 -53 l 525 -222 z "},"ờ":{"ha":833,"x_min":53,"x_max":819,"o":"m 417 -17 l 417 -17 q 226 31 308 -17 q 99 167 144 79 q 53 375 53 256 l 53 375 q 99 583 53 494 q 226 719 144 671 q 417 767 308 767 l 417 767 q 607 719 525 767 q 735 583 689 671 q 781 375 781 494 l 781 375 q 735 167 781 256 q 607 31 689 79 q 417 -17 525 -17 z m 417 186 l 417 186 q 506 234 475 186 q 536 376 536 282 l 536 376 q 506 517 536 469 q 417 564 475 564 l 417 564 q 328 517 358 564 q 297 376 297 469 l 297 376 q 328 234 297 282 q 417 186 358 186 z m 567 639 l 475 639 l 464 750 l 535 750 q 599 769 576 750 q 621 831 621 789 l 621 831 q 615 906 621 867 q 601 969 608 944 l 601 969 l 800 969 q 814 907 808 943 q 819 831 819 871 l 819 831 q 761 685 819 732 q 567 639 703 639 l 567 639 z m 460 814 l 251 814 l 126 1036 l 376 1036 l 460 814 z "},"ở":{"ha":833,"x_min":53,"x_max":819,"o":"m 417 -17 l 417 -17 q 226 31 308 -17 q 99 167 144 79 q 53 375 53 256 l 53 375 q 99 583 53 494 q 226 719 144 671 q 417 767 308 767 l 417 767 q 607 719 525 767 q 735 583 689 671 q 781 375 781 494 l 781 375 q 735 167 781 256 q 607 31 689 79 q 417 -17 525 -17 z m 417 186 l 417 186 q 506 234 475 186 q 536 376 536 282 l 536 376 q 506 517 536 469 q 417 564 475 564 l 417 564 q 328 517 358 564 q 297 376 297 469 l 297 376 q 328 234 297 282 q 417 186 358 186 z m 567 639 l 475 639 l 464 750 l 535 750 q 599 769 576 750 q 621 831 621 789 l 621 831 q 615 906 621 867 q 601 969 608 944 l 601 969 l 800 969 q 814 907 808 943 q 819 831 819 871 l 819 831 q 761 685 819 732 q 567 639 703 639 l 567 639 z m 424 815 l 424 815 l 271 815 q 308 867 296 844 q 321 910 321 889 l 321 910 q 311 935 321 926 q 276 943 301 943 l 276 943 q 247 941 263 943 q 218 935 231 939 l 218 935 l 218 1054 q 257 1060 229 1057 q 324 1063 285 1063 l 324 1063 q 443 1031 410 1063 q 476 943 476 1000 l 476 943 q 458 866 476 897 q 424 815 440 835 z "},"ỡ":{"ha":833,"x_min":53,"x_max":819,"o":"m 417 -17 l 417 -17 q 226 31 308 -17 q 99 167 144 79 q 53 375 53 256 l 53 375 q 99 583 53 494 q 226 719 144 671 q 417 767 308 767 l 417 767 q 607 719 525 767 q 735 583 689 671 q 781 375 781 494 l 781 375 q 735 167 781 256 q 607 31 689 79 q 417 -17 525 -17 z m 417 186 l 417 186 q 506 234 475 186 q 536 376 536 282 l 536 376 q 506 517 536 469 q 417 564 475 564 l 417 564 q 328 517 358 564 q 297 376 297 469 l 297 376 q 328 234 297 282 q 417 186 358 186 z m 567 639 l 475 639 l 464 750 l 535 750 q 599 769 576 750 q 621 831 621 789 l 621 831 q 615 906 621 867 q 601 969 608 944 l 601 969 l 800 969 q 814 907 808 943 q 819 831 819 871 l 819 831 q 761 685 819 732 q 567 639 703 639 l 567 639 z m 435 825 l 435 825 q 377 836 401 825 q 326 867 353 847 l 326 867 q 296 885 310 879 q 268 892 282 892 l 268 892 q 237 875 250 892 q 221 817 224 858 l 221 817 l 113 817 q 152 982 115 933 q 257 1031 189 1031 l 257 1031 q 319 1019 293 1031 q 374 988 346 1008 l 374 988 q 404 969 390 975 q 429 964 418 964 l 429 964 q 461 981 449 964 q 476 1042 474 999 l 476 1042 l 585 1042 q 545 875 583 925 q 435 825 507 825 z "},"ő":{"ha":833,"x_min":53,"x_max":781,"o":"m 417 -17 l 417 -17 q 226 31 308 -17 q 99 167 144 79 q 53 375 53 256 l 53 375 q 99 583 53 494 q 226 719 144 671 q 417 767 308 767 l 417 767 q 607 719 525 767 q 735 583 689 671 q 781 375 781 494 l 781 375 q 735 167 781 256 q 607 31 689 79 q 417 -17 525 -17 z m 417 186 l 417 186 q 506 234 475 186 q 536 376 536 282 l 536 376 q 506 517 536 469 q 417 564 475 564 l 417 564 q 328 517 358 564 q 297 376 297 469 l 297 376 q 328 234 297 282 q 417 186 358 186 z m 375 811 l 167 811 l 250 1033 l 500 1033 l 375 811 z m 653 811 l 444 811 l 528 1033 l 778 1033 l 653 811 z "},"ō":{"ha":833,"x_min":53,"x_max":781,"o":"m 417 -17 l 417 -17 q 226 31 308 -17 q 99 167 144 79 q 53 375 53 256 l 53 375 q 99 583 53 494 q 226 719 144 671 q 417 767 308 767 l 417 767 q 607 719 525 767 q 735 583 689 671 q 781 375 781 494 l 781 375 q 735 167 781 256 q 607 31 689 79 q 417 -17 525 -17 z m 417 186 l 417 186 q 506 234 475 186 q 536 376 536 282 l 536 376 q 506 517 536 469 q 417 564 475 564 l 417 564 q 328 517 358 564 q 297 376 297 469 l 297 376 q 328 234 297 282 q 417 186 358 186 z m 625 831 l 208 831 l 208 997 l 625 997 l 625 831 z "},"ø":{"ha":833,"x_min":53,"x_max":781,"o":"m 417 -17 l 417 -17 q 226 31 308 -17 q 99 167 144 79 q 53 375 53 256 l 53 375 q 99 583 53 494 q 226 719 144 671 q 417 767 308 767 l 417 767 q 607 719 525 767 q 735 583 689 671 q 781 375 781 494 l 781 375 q 735 167 781 256 q 607 31 689 79 q 417 -17 525 -17 z m 417 186 l 417 186 q 506 234 475 186 q 536 376 536 282 l 536 376 q 506 517 536 469 q 417 564 475 564 l 417 564 q 328 517 358 564 q 297 376 297 469 l 297 376 q 328 234 297 282 q 417 186 358 186 z m 236 -19 l 83 -19 l 597 769 l 750 769 l 236 -19 z "},"õ":{"ha":833,"x_min":53,"x_max":781,"o":"m 417 -17 l 417 -17 q 226 31 308 -17 q 99 167 144 79 q 53 375 53 256 l 53 375 q 99 583 53 494 q 226 719 144 671 q 417 767 308 767 l 417 767 q 607 719 525 767 q 735 583 689 671 q 781 375 781 494 l 781 375 q 735 167 781 256 q 607 31 689 79 q 417 -17 525 -17 z m 417 186 l 417 186 q 506 234 475 186 q 536 376 536 282 l 536 376 q 506 517 536 469 q 417 564 475 564 l 417 564 q 328 517 358 564 q 297 376 297 469 l 297 376 q 328 234 297 282 q 417 186 358 186 z m 503 825 l 503 825 q 445 836 469 825 q 394 867 421 847 l 394 867 q 364 885 378 879 q 336 892 350 892 l 336 892 q 305 875 318 892 q 289 817 292 858 l 289 817 l 181 817 q 220 982 183 933 q 325 1031 257 1031 l 325 1031 q 388 1019 361 1031 q 442 988 414 1008 l 442 988 q 472 969 458 975 q 497 964 486 964 l 497 964 q 529 981 517 964 q 544 1042 542 999 l 544 1042 l 653 1042 q 613 875 651 925 q 503 825 575 825 z "},"œ":{"ha":833,"x_min":11,"x_max":822,"o":"m 574 -17 l 574 -17 q 390 88 457 -17 q 322 375 322 193 l 322 375 q 390 662 322 557 q 574 767 457 767 l 574 767 q 698 728 642 767 q 788 608 754 690 q 822 390 822 525 l 822 390 l 822 306 l 517 306 q 532 210 518 238 q 568 182 546 182 l 568 182 q 597 195 586 182 q 608 256 607 208 l 608 256 l 814 235 q 728 44 792 104 q 574 -17 665 -17 z m 263 -17 l 263 -17 q 74 75 138 -17 q 11 375 11 167 l 11 375 q 74 675 11 583 q 263 767 138 767 l 263 767 q 387 719 329 767 q 480 583 444 671 q 515 375 515 496 l 515 375 q 480 167 515 256 q 387 31 444 79 q 263 -17 329 -17 z m 268 186 l 268 186 q 290 198 282 186 q 303 250 299 210 q 307 375 307 290 l 307 375 q 303 500 307 457 q 290 558 299 543 q 268 574 282 574 l 268 574 q 244 558 254 574 q 230 500 235 543 q 225 375 225 457 l 225 375 q 230 250 225 290 q 244 198 235 210 q 268 186 254 186 z m 521 449 l 521 449 l 611 449 q 594 546 607 518 q 567 574 582 574 l 567 574 q 535 546 546 574 q 521 449 525 518 z "},"p":{"ha":833,"x_min":56,"x_max":792,"o":"m 292 -208 l 56 -208 l 56 750 l 286 750 l 293 575 l 275 583 q 361 719 304 671 q 511 767 418 767 l 511 767 q 665 717 603 767 q 760 578 728 667 q 792 375 792 490 l 792 375 q 760 172 792 261 q 665 33 728 83 q 511 -17 603 -17 l 511 -17 q 406 1 451 -17 q 327 56 360 18 q 269 153 294 93 l 269 153 l 292 171 l 292 -208 z m 422 186 l 422 186 q 515 228 483 186 q 547 375 547 271 l 547 375 q 515 522 547 479 q 422 564 483 564 l 422 564 q 356 544 386 564 q 309 483 326 525 q 292 375 292 442 l 292 375 q 309 267 292 308 q 356 206 326 225 q 422 186 386 186 z "},"þ":{"ha":833,"x_min":61,"x_max":797,"o":"m 297 -208 l 61 -208 l 61 986 l 297 986 l 297 550 l 283 601 q 316 674 285 636 q 397 740 347 713 q 504 767 447 767 l 504 767 q 681 713 617 767 q 771 571 744 660 q 797 375 797 482 l 797 375 q 767 172 797 261 q 676 33 738 83 q 517 -17 614 -17 l 517 -17 q 409 6 461 -17 q 322 72 357 28 q 279 182 286 117 l 279 182 l 297 208 l 297 -208 z m 428 186 l 428 186 q 496 206 468 186 q 538 267 524 225 q 553 375 553 308 l 553 375 q 538 485 553 444 q 496 545 524 526 q 428 564 468 564 l 428 564 q 357 541 386 564 q 313 476 328 518 q 297 375 297 435 l 297 375 q 315 267 297 308 q 363 206 333 225 q 428 186 393 186 z "},"q":{"ha":833,"x_min":42,"x_max":778,"o":"m 778 750 l 778 -208 l 542 -208 l 542 171 l 564 153 q 507 56 540 93 q 428 1 474 18 q 322 -17 383 -17 l 322 -17 q 169 33 232 -17 q 74 172 106 83 q 42 375 42 261 l 42 375 q 74 578 42 490 q 169 717 106 667 q 322 767 232 767 l 322 767 q 473 719 417 767 q 558 583 529 671 l 558 583 l 540 575 l 547 750 l 778 750 z m 411 186 l 411 186 q 477 206 447 186 q 524 267 507 225 q 542 375 542 308 l 542 375 q 524 483 542 442 q 477 544 507 525 q 411 564 447 564 l 411 564 q 319 522 351 564 q 286 375 286 479 l 286 375 q 319 228 286 271 q 411 186 351 186 z "},"r":{"ha":833,"x_min":83,"x_max":792,"o":"m 711 0 l 83 0 l 83 181 l 349 181 l 253 85 l 253 665 l 349 569 l 83 569 l 83 750 l 419 750 l 440 508 l 421 525 q 472 692 428 633 q 614 750 515 750 l 614 750 l 792 750 l 792 564 l 636 564 q 552 548 585 564 q 504 499 519 532 q 489 417 489 467 l 489 417 l 489 85 l 393 181 l 711 181 l 711 0 z "},"ŕ":{"ha":833,"x_min":83,"x_max":792,"o":"m 711 0 l 83 0 l 83 181 l 349 181 l 253 85 l 253 665 l 349 569 l 83 569 l 83 750 l 419 750 l 440 508 l 421 525 q 472 692 428 633 q 614 750 515 750 l 614 750 l 792 750 l 792 564 l 636 564 q 552 548 585 564 q 504 499 519 532 q 489 417 489 467 l 489 417 l 489 85 l 393 181 l 711 181 l 711 0 z m 576 815 l 368 815 l 451 1038 l 701 1038 l 576 815 z "},"ř":{"ha":833,"x_min":83,"x_max":792,"o":"m 711 0 l 83 0 l 83 181 l 349 181 l 253 85 l 253 665 l 349 569 l 83 569 l 83 750 l 419 750 l 440 508 l 421 525 q 472 692 428 633 q 614 750 515 750 l 614 750 l 792 750 l 792 564 l 636 564 q 552 548 585 564 q 504 499 519 532 q 489 417 489 467 l 489 417 l 489 85 l 393 181 l 711 181 l 711 0 z m 375 815 l 236 1046 l 400 1046 l 492 897 l 453 897 l 544 1046 l 708 1046 l 569 815 l 375 815 z "},"ŗ":{"ha":833,"x_min":83,"x_max":792,"o":"m 711 0 l 83 0 l 83 181 l 349 181 l 253 85 l 253 665 l 349 569 l 83 569 l 83 750 l 419 750 l 440 508 l 421 525 q 472 692 428 633 q 614 750 515 750 l 614 750 l 792 750 l 792 564 l 636 564 q 552 548 585 564 q 504 499 519 532 q 489 417 489 467 l 489 417 l 489 85 l 393 181 l 711 181 l 711 0 z m 376 -364 l 257 -364 l 349 -239 l 282 -239 l 282 -64 l 485 -64 l 485 -219 l 376 -364 z "},"s":{"ha":833,"x_min":75,"x_max":758,"o":"m 419 -17 l 419 -17 q 231 17 304 -17 q 119 108 157 51 q 75 235 82 165 l 75 235 l 303 242 q 341 192 315 211 q 422 172 367 172 l 422 172 q 496 183 475 172 q 517 211 517 193 l 517 211 q 509 234 517 225 q 478 252 501 243 q 406 272 454 261 l 406 272 q 219 329 289 299 q 119 406 150 360 q 89 525 89 453 l 89 525 q 124 645 89 590 q 230 733 158 700 q 411 767 301 767 l 411 767 q 610 728 536 767 q 717 631 683 690 q 758 508 751 572 l 758 508 l 528 500 q 509 541 524 524 q 470 568 494 558 q 414 578 446 578 l 414 578 q 349 560 367 578 q 331 525 331 543 l 331 525 q 342 494 331 507 q 388 469 354 481 q 489 442 422 457 l 489 442 q 651 390 593 418 q 734 322 710 363 q 758 217 758 281 l 758 217 q 721 92 758 144 q 608 12 683 40 q 419 -17 533 -17 z "},"ś":{"ha":833,"x_min":75,"x_max":758,"o":"m 419 -17 l 419 -17 q 231 17 304 -17 q 119 108 157 51 q 75 235 82 165 l 75 235 l 303 242 q 341 192 315 211 q 422 172 367 172 l 422 172 q 496 183 475 172 q 517 211 517 193 l 517 211 q 509 234 517 225 q 478 252 501 243 q 406 272 454 261 l 406 272 q 219 329 289 299 q 119 406 150 360 q 89 525 89 453 l 89 525 q 124 645 89 590 q 230 733 158 700 q 411 767 301 767 l 411 767 q 610 728 536 767 q 717 631 683 690 q 758 508 751 572 l 758 508 l 528 500 q 509 541 524 524 q 470 568 494 558 q 414 578 446 578 l 414 578 q 349 560 367 578 q 331 525 331 543 l 331 525 q 342 494 331 507 q 388 469 354 481 q 489 442 422 457 l 489 442 q 651 390 593 418 q 734 322 710 363 q 758 217 758 281 l 758 217 q 721 92 758 144 q 608 12 683 40 q 419 -17 533 -17 z m 524 815 l 315 815 l 399 1038 l 649 1038 l 524 815 z "},"š":{"ha":833,"x_min":75,"x_max":758,"o":"m 419 -17 l 419 -17 q 231 17 304 -17 q 119 108 157 51 q 75 235 82 165 l 75 235 l 303 242 q 341 192 315 211 q 422 172 367 172 l 422 172 q 496 183 475 172 q 517 211 517 193 l 517 211 q 509 234 517 225 q 478 252 501 243 q 406 272 454 261 l 406 272 q 219 329 289 299 q 119 406 150 360 q 89 525 89 453 l 89 525 q 124 645 89 590 q 230 733 158 700 q 411 767 301 767 l 411 767 q 610 728 536 767 q 717 631 683 690 q 758 508 751 572 l 758 508 l 528 500 q 509 541 524 524 q 470 568 494 558 q 414 578 446 578 l 414 578 q 349 560 367 578 q 331 525 331 543 l 331 525 q 342 494 331 507 q 388 469 354 481 q 489 442 422 457 l 489 442 q 651 390 593 418 q 734 322 710 363 q 758 217 758 281 l 758 217 q 721 92 758 144 q 608 12 683 40 q 419 -17 533 -17 z m 322 815 l 183 1046 l 347 1046 l 439 897 l 400 897 l 492 1046 l 656 1046 l 517 815 l 322 815 z "},"ş":{"ha":833,"x_min":75,"x_max":758,"o":"m 419 -17 l 419 -17 q 231 17 304 -17 q 119 108 157 51 q 75 235 82 165 l 75 235 l 303 242 q 341 192 315 211 q 422 172 367 172 l 422 172 q 496 183 475 172 q 517 211 517 193 l 517 211 q 509 234 517 225 q 478 252 501 243 q 406 272 454 261 l 406 272 q 219 329 289 299 q 119 406 150 360 q 89 525 89 453 l 89 525 q 124 645 89 590 q 230 733 158 700 q 411 767 301 767 l 411 767 q 610 728 536 767 q 717 631 683 690 q 758 508 751 572 l 758 508 l 528 500 q 509 541 524 524 q 470 568 494 558 q 414 578 446 578 l 414 578 q 349 560 367 578 q 331 525 331 543 l 331 525 q 342 494 331 507 q 388 469 354 481 q 489 442 422 457 l 489 442 q 651 390 593 418 q 734 322 710 363 q 758 217 758 281 l 758 217 q 721 92 758 144 q 608 12 683 40 q 419 -17 533 -17 z m 419 -333 l 419 -333 q 299 -301 347 -333 q 231 -214 251 -268 l 231 -214 l 336 -167 q 365 -203 347 -190 q 414 -217 383 -217 l 414 -217 q 458 -204 442 -217 q 475 -169 475 -192 l 475 -169 q 459 -133 475 -146 q 394 -119 443 -119 l 394 -119 l 326 -58 l 367 14 l 507 14 l 475 -39 q 577 -86 546 -47 q 608 -175 608 -125 l 608 -175 q 582 -267 608 -232 q 513 -317 556 -301 q 419 -333 471 -333 z "},"ŝ":{"ha":833,"x_min":75,"x_max":758,"o":"m 419 -17 l 419 -17 q 231 17 304 -17 q 119 108 157 51 q 75 235 82 165 l 75 235 l 303 242 q 341 192 315 211 q 422 172 367 172 l 422 172 q 496 183 475 172 q 517 211 517 193 l 517 211 q 509 234 517 225 q 478 252 501 243 q 406 272 454 261 l 406 272 q 219 329 289 299 q 119 406 150 360 q 89 525 89 453 l 89 525 q 124 645 89 590 q 230 733 158 700 q 411 767 301 767 l 411 767 q 610 728 536 767 q 717 631 683 690 q 758 508 751 572 l 758 508 l 528 500 q 509 541 524 524 q 470 568 494 558 q 414 578 446 578 l 414 578 q 349 560 367 578 q 331 525 331 543 l 331 525 q 342 494 331 507 q 388 469 354 481 q 489 442 422 457 l 489 442 q 651 390 593 418 q 734 322 710 363 q 758 217 758 281 l 758 217 q 721 92 758 144 q 608 12 683 40 q 419 -17 533 -17 z m 347 815 l 183 815 l 322 1046 l 517 1046 l 656 815 l 492 815 l 400 964 l 439 964 l 347 815 z "},"ș":{"ha":833,"x_min":75,"x_max":758,"o":"m 419 -17 l 419 -17 q 231 17 304 -17 q 119 108 157 51 q 75 235 82 165 l 75 235 l 303 242 q 341 192 315 211 q 422 172 367 172 l 422 172 q 496 183 475 172 q 517 211 517 193 l 517 211 q 509 234 517 225 q 478 252 501 243 q 406 272 454 261 l 406 272 q 219 329 289 299 q 119 406 150 360 q 89 525 89 453 l 89 525 q 124 645 89 590 q 230 733 158 700 q 411 767 301 767 l 411 767 q 610 728 536 767 q 717 631 683 690 q 758 508 751 572 l 758 508 l 528 500 q 509 541 524 524 q 470 568 494 558 q 414 578 446 578 l 414 578 q 349 560 367 578 q 331 525 331 543 l 331 525 q 342 494 331 507 q 388 469 354 481 q 489 442 422 457 l 489 442 q 651 390 593 418 q 734 322 710 363 q 758 217 758 281 l 758 217 q 721 92 758 144 q 608 12 683 40 q 419 -17 533 -17 z m 413 -364 l 293 -364 l 385 -239 l 318 -239 l 318 -64 l 521 -64 l 521 -219 l 413 -364 z "},"ß":{"ha":833,"x_min":42,"x_max":792,"o":"m 278 0 l 42 0 l 42 608 q 84 818 42 731 q 209 953 126 906 q 414 1000 292 1000 l 414 1000 q 658 928 572 1000 q 744 722 744 856 l 744 722 q 683 573 744 633 q 517 499 621 513 l 517 499 l 515 522 q 661 488 599 519 q 758 399 724 456 q 792 269 792 343 l 792 269 q 697 72 792 143 q 435 0 603 0 l 435 0 l 346 0 l 346 215 l 429 215 q 521 236 486 215 q 556 308 556 257 l 556 308 q 540 365 556 344 q 494 394 524 385 q 425 403 465 403 l 425 403 l 360 403 l 360 611 l 411 611 q 478 631 457 611 q 500 692 500 650 l 500 692 q 474 758 500 736 q 400 781 449 781 l 400 781 q 309 739 340 781 q 278 618 278 697 l 278 618 l 278 0 z "},"t":{"ha":833,"x_min":56,"x_max":750,"o":"m 750 0 l 514 0 q 313 62 376 0 q 250 253 250 124 l 250 253 l 250 926 l 486 926 l 486 283 q 512 206 486 232 q 589 181 538 181 l 589 181 l 750 181 l 750 0 z m 750 569 l 56 569 l 56 750 l 750 750 l 750 569 z "},"ŧ":{"ha":833,"x_min":56,"x_max":750,"o":"m 750 0 l 514 0 q 313 62 376 0 q 250 253 250 124 l 250 253 l 250 926 l 486 926 l 486 283 q 512 206 486 232 q 589 181 538 181 l 589 181 l 750 181 l 750 0 z m 750 569 l 56 569 l 56 750 l 750 750 l 750 569 z m 703 317 l 103 317 l 103 456 l 703 456 l 703 317 z "},"ť":{"ha":833,"x_min":56,"x_max":768,"o":"m 690 788 l 529 788 l 568 1144 l 768 1144 l 690 788 z m 750 0 l 514 0 q 313 62 376 0 q 250 253 250 124 l 250 253 l 250 926 l 486 926 l 486 283 q 512 206 486 232 q 589 181 538 181 l 589 181 l 750 181 l 750 0 z m 750 569 l 56 569 l 56 750 l 750 750 l 750 569 z "},"ţ":{"ha":833,"x_min":56,"x_max":750,"o":"m 750 0 l 514 0 q 313 62 376 0 q 250 253 250 124 l 250 253 l 250 926 l 486 926 l 486 283 q 512 206 486 232 q 589 181 538 181 l 589 181 l 750 181 l 750 0 z m 750 569 l 56 569 l 56 750 l 750 750 l 750 569 z m 472 -333 l 472 -333 q 352 -301 400 -333 q 283 -214 304 -268 l 283 -214 l 389 -167 q 418 -203 400 -190 q 467 -217 436 -217 l 467 -217 q 511 -204 494 -217 q 528 -169 528 -192 l 528 -169 q 512 -133 528 -146 q 447 -119 496 -119 l 447 -119 l 379 -58 l 419 14 l 560 14 l 528 -39 q 630 -86 599 -47 q 661 -175 661 -125 l 661 -175 q 635 -267 661 -232 q 566 -317 608 -301 q 472 -333 524 -333 z "},"ț":{"ha":833,"x_min":56,"x_max":750,"o":"m 750 0 l 514 0 q 313 62 376 0 q 250 253 250 124 l 250 253 l 250 926 l 486 926 l 486 283 q 512 206 486 232 q 589 181 538 181 l 589 181 l 750 181 l 750 0 z m 750 569 l 56 569 l 56 750 l 750 750 l 750 569 z m 465 -364 l 346 -364 l 438 -239 l 371 -239 l 371 -64 l 574 -64 l 574 -219 l 465 -364 z "},"u":{"ha":833,"x_min":89,"x_max":744,"o":"m 306 -17 l 306 -17 q 147 51 204 -17 q 89 253 89 118 l 89 253 l 89 750 l 325 750 l 325 311 q 347 210 325 239 q 407 181 368 181 l 407 181 q 476 215 444 181 q 508 322 508 250 l 508 322 l 508 750 l 744 750 l 744 0 l 529 0 l 522 236 l 547 233 q 473 49 536 114 q 306 -17 410 -17 z "},"ú":{"ha":833,"x_min":89,"x_max":744,"o":"m 306 -17 l 306 -17 q 147 51 204 -17 q 89 253 89 118 l 89 253 l 89 750 l 325 750 l 325 311 q 347 210 325 239 q 407 181 368 181 l 407 181 q 476 215 444 181 q 508 322 508 250 l 508 322 l 508 750 l 744 750 l 744 0 l 529 0 l 522 236 l 547 233 q 473 49 536 114 q 306 -17 410 -17 z m 517 815 l 308 815 l 392 1038 l 642 1038 l 517 815 z "},"ŭ":{"ha":833,"x_min":89,"x_max":744,"o":"m 306 -17 l 306 -17 q 147 51 204 -17 q 89 253 89 118 l 89 253 l 89 750 l 325 750 l 325 311 q 347 210 325 239 q 407 181 368 181 l 407 181 q 476 215 444 181 q 508 322 508 250 l 508 322 l 508 750 l 744 750 l 744 0 l 529 0 l 522 236 l 547 233 q 473 49 536 114 q 306 -17 410 -17 z m 413 811 l 413 811 q 256 872 317 811 q 190 1033 194 932 l 190 1033 l 326 1033 q 355 963 331 982 q 413 944 379 944 l 413 944 q 470 963 446 944 q 499 1033 494 982 l 499 1033 l 635 1033 q 569 872 631 932 q 413 811 508 811 z "},"û":{"ha":833,"x_min":89,"x_max":744,"o":"m 306 -17 l 306 -17 q 147 51 204 -17 q 89 253 89 118 l 89 253 l 89 750 l 325 750 l 325 311 q 347 210 325 239 q 407 181 368 181 l 407 181 q 476 215 444 181 q 508 322 508 250 l 508 322 l 508 750 l 744 750 l 744 0 l 529 0 l 522 236 l 547 233 q 473 49 536 114 q 306 -17 410 -17 z m 340 815 l 176 815 l 315 1046 l 510 1046 l 649 815 l 485 815 l 393 964 l 432 964 l 340 815 z "},"ü":{"ha":833,"x_min":89,"x_max":744,"o":"m 306 -17 l 306 -17 q 147 51 204 -17 q 89 253 89 118 l 89 253 l 89 750 l 325 750 l 325 311 q 347 210 325 239 q 407 181 368 181 l 407 181 q 476 215 444 181 q 508 322 508 250 l 508 322 l 508 750 l 744 750 l 744 0 l 529 0 l 522 236 l 547 233 q 473 49 536 114 q 306 -17 410 -17 z m 369 825 l 119 825 l 119 1014 l 369 1014 l 369 825 z m 706 825 l 456 825 l 456 1014 l 706 1014 l 706 825 z "},"ụ":{"ha":833,"x_min":89,"x_max":744,"o":"m 306 -17 l 306 -17 q 147 51 204 -17 q 89 253 89 118 l 89 253 l 89 750 l 325 750 l 325 311 q 347 210 325 239 q 407 181 368 181 l 407 181 q 476 215 444 181 q 508 322 508 250 l 508 322 l 508 750 l 744 750 l 744 0 l 529 0 l 522 236 l 547 233 q 473 49 536 114 q 306 -17 410 -17 z m 521 -222 l 304 -222 l 304 -53 l 521 -53 l 521 -222 z "},"ù":{"ha":833,"x_min":89,"x_max":744,"o":"m 306 -17 l 306 -17 q 147 51 204 -17 q 89 253 89 118 l 89 253 l 89 750 l 325 750 l 325 311 q 347 210 325 239 q 407 181 368 181 l 407 181 q 476 215 444 181 q 508 322 508 250 l 508 322 l 508 750 l 744 750 l 744 0 l 529 0 l 522 236 l 547 233 q 473 49 536 114 q 306 -17 410 -17 z m 524 814 l 315 814 l 190 1036 l 440 1036 l 524 814 z "},"ủ":{"ha":833,"x_min":89,"x_max":744,"o":"m 306 -17 l 306 -17 q 147 51 204 -17 q 89 253 89 118 l 89 253 l 89 750 l 325 750 l 325 311 q 347 210 325 239 q 407 181 368 181 l 407 181 q 476 215 444 181 q 508 322 508 250 l 508 322 l 508 750 l 744 750 l 744 0 l 529 0 l 522 236 l 547 233 q 473 49 536 114 q 306 -17 410 -17 z m 488 815 l 488 815 l 335 815 q 372 867 360 844 q 385 910 385 889 l 385 910 q 375 935 385 926 q 340 943 365 943 l 340 943 q 310 941 326 943 q 282 935 294 939 l 282 935 l 282 1054 q 321 1060 293 1057 q 388 1063 349 1063 l 388 1063 q 507 1031 474 1063 q 540 943 540 1000 l 540 943 q 522 866 540 897 q 488 815 504 835 z "},"ư":{"ha":833,"x_min":25,"x_max":808,"o":"m 240 -17 l 240 -17 q 82 51 139 -17 q 25 253 25 118 l 25 253 l 25 750 l 261 750 l 261 311 q 282 210 261 239 q 342 181 303 181 l 342 181 q 411 215 379 181 q 443 322 443 250 l 443 322 l 443 750 l 679 750 l 679 0 l 464 0 l 457 236 l 482 233 q 408 49 471 114 q 240 -17 344 -17 z m 556 639 l 464 639 l 453 750 l 524 750 q 588 769 565 750 q 610 831 610 789 l 610 831 q 603 906 610 867 q 590 969 597 944 l 590 969 l 789 969 q 803 907 797 943 q 808 831 808 871 l 808 831 q 750 685 808 732 q 556 639 692 639 l 556 639 z "},"ứ":{"ha":833,"x_min":25,"x_max":808,"o":"m 240 -17 l 240 -17 q 82 51 139 -17 q 25 253 25 118 l 25 253 l 25 750 l 261 750 l 261 311 q 282 210 261 239 q 342 181 303 181 l 342 181 q 411 215 379 181 q 443 322 443 250 l 443 322 l 443 750 l 679 750 l 679 0 l 464 0 l 457 236 l 482 233 q 408 49 471 114 q 240 -17 344 -17 z m 556 639 l 464 639 l 453 750 l 524 750 q 588 769 565 750 q 610 831 610 789 l 610 831 q 603 906 610 867 q 590 969 597 944 l 590 969 l 789 969 q 803 907 797 943 q 808 831 808 871 l 808 831 q 750 685 808 732 q 556 639 692 639 l 556 639 z m 426 815 l 218 815 l 301 1038 l 551 1038 l 426 815 z "},"ự":{"ha":833,"x_min":25,"x_max":808,"o":"m 240 -17 l 240 -17 q 82 51 139 -17 q 25 253 25 118 l 25 253 l 25 750 l 261 750 l 261 311 q 282 210 261 239 q 342 181 303 181 l 342 181 q 411 215 379 181 q 443 322 443 250 l 443 322 l 443 750 l 679 750 l 679 0 l 464 0 l 457 236 l 482 233 q 408 49 471 114 q 240 -17 344 -17 z m 556 639 l 464 639 l 453 750 l 524 750 q 588 769 565 750 q 610 831 610 789 l 610 831 q 603 906 610 867 q 590 969 597 944 l 590 969 l 789 969 q 803 907 797 943 q 808 831 808 871 l 808 831 q 750 685 808 732 q 556 639 692 639 l 556 639 z m 456 -222 l 239 -222 l 239 -53 l 456 -53 l 456 -222 z "},"ừ":{"ha":833,"x_min":25,"x_max":808,"o":"m 240 -17 l 240 -17 q 82 51 139 -17 q 25 253 25 118 l 25 253 l 25 750 l 261 750 l 261 311 q 282 210 261 239 q 342 181 303 181 l 342 181 q 411 215 379 181 q 443 322 443 250 l 443 322 l 443 750 l 679 750 l 679 0 l 464 0 l 457 236 l 482 233 q 408 49 471 114 q 240 -17 344 -17 z m 556 639 l 464 639 l 453 750 l 524 750 q 588 769 565 750 q 610 831 610 789 l 610 831 q 603 906 610 867 q 590 969 597 944 l 590 969 l 789 969 q 803 907 797 943 q 808 831 808 871 l 808 831 q 750 685 808 732 q 556 639 692 639 l 556 639 z m 433 814 l 225 814 l 100 1036 l 350 1036 l 433 814 z "},"ử":{"ha":833,"x_min":25,"x_max":808,"o":"m 240 -17 l 240 -17 q 82 51 139 -17 q 25 253 25 118 l 25 253 l 25 750 l 261 750 l 261 311 q 282 210 261 239 q 342 181 303 181 l 342 181 q 411 215 379 181 q 443 322 443 250 l 443 322 l 443 750 l 679 750 l 679 0 l 464 0 l 457 236 l 482 233 q 408 49 471 114 q 240 -17 344 -17 z m 556 639 l 464 639 l 453 750 l 524 750 q 588 769 565 750 q 610 831 610 789 l 610 831 q 603 906 610 867 q 590 969 597 944 l 590 969 l 789 969 q 803 907 797 943 q 808 831 808 871 l 808 831 q 750 685 808 732 q 556 639 692 639 l 556 639 z m 397 815 l 397 815 l 244 815 q 282 867 269 844 q 294 910 294 889 l 294 910 q 285 935 294 926 q 250 943 275 943 l 250 943 q 220 941 236 943 q 192 935 204 939 l 192 935 l 192 1054 q 231 1060 203 1057 q 297 1063 258 1063 l 297 1063 q 417 1031 383 1063 q 450 943 450 1000 l 450 943 q 432 866 450 897 q 397 815 414 835 z "},"ữ":{"ha":833,"x_min":25,"x_max":808,"o":"m 240 -17 l 240 -17 q 82 51 139 -17 q 25 253 25 118 l 25 253 l 25 750 l 261 750 l 261 311 q 282 210 261 239 q 342 181 303 181 l 342 181 q 411 215 379 181 q 443 322 443 250 l 443 322 l 443 750 l 679 750 l 679 0 l 464 0 l 457 236 l 482 233 q 408 49 471 114 q 240 -17 344 -17 z m 556 639 l 464 639 l 453 750 l 524 750 q 588 769 565 750 q 610 831 610 789 l 610 831 q 603 906 610 867 q 590 969 597 944 l 590 969 l 789 969 q 803 907 797 943 q 808 831 808 871 l 808 831 q 750 685 808 732 q 556 639 692 639 l 556 639 z m 408 825 l 408 825 q 351 836 375 825 q 300 867 326 847 l 300 867 q 269 885 283 879 q 242 892 256 892 l 242 892 q 210 875 224 892 q 194 817 197 858 l 194 817 l 86 817 q 126 982 89 933 q 231 1031 163 1031 l 231 1031 q 293 1019 267 1031 q 347 988 319 1008 l 347 988 q 378 969 364 975 q 403 964 392 964 l 403 964 q 435 981 422 964 q 450 1042 447 999 l 450 1042 l 558 1042 q 519 875 557 925 q 408 825 481 825 z "},"ű":{"ha":833,"x_min":89,"x_max":774,"o":"m 306 -17 l 306 -17 q 147 51 204 -17 q 89 253 89 118 l 89 253 l 89 750 l 325 750 l 325 311 q 347 210 325 239 q 407 181 368 181 l 407 181 q 476 215 444 181 q 508 322 508 250 l 508 322 l 508 750 l 744 750 l 744 0 l 529 0 l 522 236 l 547 233 q 473 49 536 114 q 306 -17 410 -17 z m 371 811 l 163 811 l 246 1033 l 496 1033 l 371 811 z m 649 811 l 440 811 l 524 1033 l 774 1033 l 649 811 z "},"ū":{"ha":833,"x_min":89,"x_max":744,"o":"m 306 -17 l 306 -17 q 147 51 204 -17 q 89 253 89 118 l 89 253 l 89 750 l 325 750 l 325 311 q 347 210 325 239 q 407 181 368 181 l 407 181 q 476 215 444 181 q 508 322 508 250 l 508 322 l 508 750 l 744 750 l 744 0 l 529 0 l 522 236 l 547 233 q 473 49 536 114 q 306 -17 410 -17 z m 621 831 l 204 831 l 204 997 l 621 997 l 621 831 z "},"ų":{"ha":833,"x_min":89,"x_max":794,"o":"m 306 -17 l 306 -17 q 147 51 204 -17 q 89 253 89 118 l 89 253 l 89 750 l 325 750 l 325 311 q 347 210 325 239 q 407 181 368 181 l 407 181 q 476 215 444 181 q 508 322 508 250 l 508 322 l 508 750 l 744 750 l 744 0 l 529 0 l 522 236 l 547 233 q 473 49 536 114 q 306 -17 410 -17 z m 625 -308 l 625 -308 q 511 -272 553 -308 q 469 -178 469 -235 l 469 -178 q 485 -104 469 -137 q 528 -36 501 -71 l 528 -36 l 578 28 l 744 0 l 703 -54 q 671 -101 681 -83 q 661 -133 661 -118 l 661 -133 q 672 -156 661 -147 q 697 -164 682 -164 l 697 -164 q 731 -157 714 -164 q 757 -143 747 -150 l 757 -143 l 794 -264 q 726 -294 772 -279 q 625 -308 679 -308 z "},"ů":{"ha":833,"x_min":89,"x_max":744,"o":"m 306 -17 l 306 -17 q 147 51 204 -17 q 89 253 89 118 l 89 253 l 89 750 l 325 750 l 325 311 q 347 210 325 239 q 407 181 368 181 l 407 181 q 476 215 444 181 q 508 322 508 250 l 508 322 l 508 750 l 744 750 l 744 0 l 529 0 l 522 236 l 547 233 q 473 49 536 114 q 306 -17 410 -17 z m 411 797 l 411 797 q 300 840 344 797 q 256 947 256 883 l 256 947 q 300 1055 256 1013 q 411 1097 344 1097 l 411 1097 q 522 1055 478 1097 q 567 947 567 1013 l 567 947 q 522 840 567 883 q 411 797 478 797 z m 411 892 l 411 892 q 450 907 436 892 q 464 947 464 922 l 464 947 q 450 988 464 972 q 411 1003 436 1003 l 411 1003 q 372 988 386 1003 q 358 947 358 972 l 358 947 q 372 907 358 922 q 411 892 386 892 z "},"ũ":{"ha":833,"x_min":89,"x_max":744,"o":"m 306 -17 l 306 -17 q 147 51 204 -17 q 89 253 89 118 l 89 253 l 89 750 l 325 750 l 325 311 q 347 210 325 239 q 407 181 368 181 l 407 181 q 476 215 444 181 q 508 322 508 250 l 508 322 l 508 750 l 744 750 l 744 0 l 529 0 l 522 236 l 547 233 q 473 49 536 114 q 306 -17 410 -17 z m 499 825 l 499 825 q 441 836 465 825 q 390 867 417 847 l 390 867 q 360 885 374 879 q 332 892 346 892 l 332 892 q 301 875 314 892 q 285 817 288 858 l 285 817 l 176 817 q 216 982 179 933 q 321 1031 253 1031 l 321 1031 q 383 1019 357 1031 q 438 988 410 1008 l 438 988 q 468 969 454 975 q 493 964 482 964 l 493 964 q 525 981 513 964 q 540 1042 538 999 l 540 1042 l 649 1042 q 609 875 647 925 q 499 825 571 825 z "},"v":{"ha":833,"x_min":36,"x_max":797,"o":"m 558 0 l 275 0 l 36 750 l 283 750 l 417 264 l 550 750 l 797 750 l 558 0 z "},"w":{"ha":833,"x_min":14,"x_max":819,"o":"m 350 0 l 144 0 l 14 750 l 242 750 l 292 350 l 347 639 l 486 639 l 542 350 l 592 750 l 819 750 l 689 0 l 483 0 l 417 303 l 350 0 z "},"ẃ":{"ha":833,"x_min":14,"x_max":819,"o":"m 350 0 l 144 0 l 14 750 l 242 750 l 292 350 l 347 639 l 486 639 l 542 350 l 592 750 l 819 750 l 689 0 l 483 0 l 417 303 l 350 0 z m 521 815 l 313 815 l 396 1038 l 646 1038 l 521 815 z "},"ŵ":{"ha":833,"x_min":14,"x_max":819,"o":"m 350 0 l 144 0 l 14 750 l 242 750 l 292 350 l 347 639 l 486 639 l 542 350 l 592 750 l 819 750 l 689 0 l 483 0 l 417 303 l 350 0 z m 344 815 l 181 815 l 319 1046 l 514 1046 l 653 815 l 489 815 l 397 964 l 436 964 l 344 815 z "},"ẅ":{"ha":833,"x_min":14,"x_max":819,"o":"m 350 0 l 144 0 l 14 750 l 242 750 l 292 350 l 347 639 l 486 639 l 542 350 l 592 750 l 819 750 l 689 0 l 483 0 l 417 303 l 350 0 z m 374 825 l 124 825 l 124 1014 l 374 1014 l 374 825 z m 710 825 l 460 825 l 460 1014 l 710 1014 l 710 825 z "},"ẁ":{"ha":833,"x_min":14,"x_max":819,"o":"m 350 0 l 144 0 l 14 750 l 242 750 l 292 350 l 347 639 l 486 639 l 542 350 l 592 750 l 819 750 l 689 0 l 483 0 l 417 303 l 350 0 z m 528 814 l 319 814 l 194 1036 l 444 1036 l 528 814 z "},"x":{"ha":833,"x_min":28,"x_max":806,"o":"m 278 0 l 28 0 l 289 383 l 39 750 l 289 750 l 417 544 l 543 750 l 793 750 l 547 383 l 806 0 l 556 0 l 417 225 l 278 0 z "},"y":{"ha":833,"x_min":28,"x_max":806,"o":"m 275 -208 l 139 -208 l 139 -28 l 250 -28 q 306 -18 285 -28 q 336 22 326 -8 l 336 22 l 353 69 l 281 69 l 28 750 l 269 750 l 425 297 l 564 750 l 806 750 l 528 -47 q 433 -172 497 -136 q 275 -208 369 -208 l 275 -208 z "},"ý":{"ha":833,"x_min":28,"x_max":806,"o":"m 275 -208 l 139 -208 l 139 -28 l 250 -28 q 306 -18 285 -28 q 336 22 326 -8 l 336 22 l 353 69 l 281 69 l 28 750 l 269 750 l 425 297 l 564 750 l 806 750 l 528 -47 q 433 -172 497 -136 q 275 -208 369 -208 l 275 -208 z m 526 815 l 318 815 l 401 1038 l 651 1038 l 526 815 z "},"ŷ":{"ha":833,"x_min":28,"x_max":806,"o":"m 275 -208 l 139 -208 l 139 -28 l 250 -28 q 306 -18 285 -28 q 336 22 326 -8 l 336 22 l 353 69 l 281 69 l 28 750 l 269 750 l 425 297 l 564 750 l 806 750 l 528 -47 q 433 -172 497 -136 q 275 -208 369 -208 l 275 -208 z m 350 815 l 186 815 l 325 1046 l 519 1046 l 658 815 l 494 815 l 403 964 l 442 964 l 350 815 z "},"ÿ":{"ha":833,"x_min":28,"x_max":806,"o":"m 275 -208 l 139 -208 l 139 -28 l 250 -28 q 306 -18 285 -28 q 336 22 326 -8 l 336 22 l 353 69 l 281 69 l 28 750 l 269 750 l 425 297 l 564 750 l 806 750 l 528 -47 q 433 -172 497 -136 q 275 -208 369 -208 l 275 -208 z m 379 825 l 129 825 l 129 1014 l 379 1014 l 379 825 z m 715 825 l 465 825 l 465 1014 l 715 1014 l 715 825 z "},"ỵ":{"ha":833,"x_min":28,"x_max":806,"o":"m 275 -208 l 139 -208 l 139 -28 l 250 -28 q 306 -18 285 -28 q 336 22 326 -8 l 336 22 l 353 69 l 281 69 l 28 750 l 269 750 l 425 297 l 564 750 l 806 750 l 528 -47 q 433 -172 497 -136 q 275 -208 369 -208 l 275 -208 z m 789 -222 l 572 -222 l 572 -53 l 789 -53 l 789 -222 z "},"ỳ":{"ha":833,"x_min":28,"x_max":806,"o":"m 275 -208 l 139 -208 l 139 -28 l 250 -28 q 306 -18 285 -28 q 336 22 326 -8 l 336 22 l 353 69 l 281 69 l 28 750 l 269 750 l 425 297 l 564 750 l 806 750 l 528 -47 q 433 -172 497 -136 q 275 -208 369 -208 l 275 -208 z m 533 814 l 325 814 l 200 1036 l 450 1036 l 533 814 z "},"ỷ":{"ha":833,"x_min":28,"x_max":806,"o":"m 275 -208 l 139 -208 l 139 -28 l 250 -28 q 306 -18 285 -28 q 336 22 326 -8 l 336 22 l 353 69 l 281 69 l 28 750 l 269 750 l 425 297 l 564 750 l 806 750 l 528 -47 q 433 -172 497 -136 q 275 -208 369 -208 l 275 -208 z m 497 815 l 497 815 l 344 815 q 382 867 369 844 q 394 910 394 889 l 394 910 q 385 935 394 926 q 350 943 375 943 l 350 943 q 320 941 336 943 q 292 935 304 939 l 292 935 l 292 1054 q 331 1060 303 1057 q 397 1063 358 1063 l 397 1063 q 517 1031 483 1063 q 550 943 550 1000 l 550 943 q 532 866 550 897 q 497 815 514 835 z "},"ỹ":{"ha":833,"x_min":28,"x_max":806,"o":"m 275 -208 l 139 -208 l 139 -28 l 250 -28 q 306 -18 285 -28 q 336 22 326 -8 l 336 22 l 353 69 l 281 69 l 28 750 l 269 750 l 425 297 l 564 750 l 806 750 l 528 -47 q 433 -172 497 -136 q 275 -208 369 -208 l 275 -208 z m 508 825 l 508 825 q 451 836 475 825 q 400 867 426 847 l 400 867 q 369 885 383 879 q 342 892 356 892 l 342 892 q 310 875 324 892 q 294 817 297 858 l 294 817 l 186 817 q 226 982 189 933 q 331 1031 263 1031 l 331 1031 q 393 1019 367 1031 q 447 988 419 1008 l 447 988 q 478 969 464 975 q 503 964 492 964 l 503 964 q 535 981 522 964 q 550 1042 547 999 l 550 1042 l 658 1042 q 619 875 657 925 q 508 825 581 825 z "},"z":{"ha":833,"x_min":83,"x_max":750,"o":"m 750 0 l 83 0 l 83 192 l 458 569 l 97 569 l 97 750 l 736 750 l 736 558 l 361 181 l 750 181 l 750 0 z "},"ź":{"ha":833,"x_min":83,"x_max":750,"o":"m 750 0 l 83 0 l 83 192 l 458 569 l 97 569 l 97 750 l 736 750 l 736 558 l 361 181 l 750 181 l 750 0 z m 524 815 l 315 815 l 399 1038 l 649 1038 l 524 815 z "},"ž":{"ha":833,"x_min":83,"x_max":750,"o":"m 750 0 l 83 0 l 83 192 l 458 569 l 97 569 l 97 750 l 736 750 l 736 558 l 361 181 l 750 181 l 750 0 z m 322 815 l 183 1046 l 347 1046 l 439 897 l 400 897 l 492 1046 l 656 1046 l 517 815 l 322 815 z "},"ż":{"ha":833,"x_min":83,"x_max":750,"o":"m 750 0 l 83 0 l 83 192 l 458 569 l 97 569 l 97 750 l 736 750 l 736 558 l 361 181 l 750 181 l 750 0 z m 538 825 l 301 825 l 301 1008 l 538 1008 l 538 825 z "},"ꞌ":{"ha":833,"x_min":292,"x_max":542,"o":"m 525 458 l 310 458 l 292 764 l 292 986 l 542 986 l 542 764 l 525 458 z "},"ª":{"ha":833,"x_min":125,"x_max":658,"o":"m 307 522 l 307 522 q 174 556 224 522 q 125 649 125 589 l 125 649 q 169 745 125 714 q 297 794 213 776 l 297 794 l 436 824 q 421 878 436 860 q 379 897 406 897 l 379 897 q 336 884 353 897 q 315 842 319 871 l 315 842 l 133 847 q 208 970 147 932 q 379 1008 269 1008 l 379 1008 q 562 958 504 1008 q 619 810 619 908 l 619 810 l 619 675 q 627 646 619 653 q 647 639 635 639 l 647 639 l 658 639 l 658 529 q 628 524 649 526 q 582 522 607 522 l 582 522 q 531 531 558 522 q 486 565 504 540 q 468 639 468 590 l 468 639 l 479 625 q 423 550 465 578 q 307 522 381 522 z m 356 628 l 356 628 q 413 649 389 628 q 436 714 436 671 l 436 714 l 436 729 l 363 711 q 328 694 342 706 q 314 665 314 683 l 314 665 q 324 638 314 647 q 356 628 333 628 z "},"º":{"ha":833,"x_min":150,"x_max":683,"o":"m 417 522 l 417 522 q 222 589 293 522 q 150 765 150 656 l 150 765 q 221 942 150 875 q 417 1008 292 1008 l 417 1008 q 613 942 542 1008 q 683 765 683 875 l 683 765 q 612 589 683 656 q 417 522 540 522 z m 417 647 l 417 647 q 473 676 454 647 q 492 765 492 706 l 492 765 q 473 853 492 824 q 417 883 454 883 l 417 883 q 360 853 379 883 q 342 765 342 824 l 342 765 q 360 676 342 706 q 417 647 379 647 z "},"А":{"ha":833,"x_min":19,"x_max":814,"o":"m 267 0 l 19 0 l 269 986 l 564 986 l 814 0 l 567 0 l 417 661 l 267 0 z m 611 163 l 222 163 l 278 372 l 556 372 l 611 163 z "},"Б":{"ha":833,"x_min":56,"x_max":792,"o":"m 429 0 l 56 0 l 56 986 l 694 986 l 694 768 l 210 768 l 306 864 l 306 643 l 429 643 q 620 604 539 643 q 747 494 701 565 q 792 322 792 422 l 792 322 q 747 150 792 222 q 620 39 701 78 q 429 0 539 0 l 429 0 z m 306 425 l 306 218 l 414 218 q 504 244 472 218 q 536 322 536 271 l 536 322 q 503 400 536 375 q 414 425 471 425 l 414 425 l 306 425 z "},"В":{"ha":833,"x_min":75,"x_max":786,"o":"m 422 0 l 75 0 l 75 986 l 394 986 q 653 922 561 986 q 744 725 744 858 l 744 725 q 721 619 744 665 q 643 542 697 572 q 497 503 589 513 l 497 503 l 497 514 q 666 476 603 508 q 758 389 729 443 q 786 267 786 335 l 786 267 q 694 65 786 129 q 422 0 601 0 l 422 0 z m 325 396 l 325 214 l 422 215 q 503 240 475 217 q 531 303 531 263 l 531 303 q 503 372 531 347 q 422 396 475 396 l 422 396 l 325 396 z m 325 772 l 325 601 l 389 601 q 463 624 438 601 q 489 689 489 647 l 489 689 q 463 751 489 729 q 389 772 438 772 l 389 772 l 325 772 z "},"Г":{"ha":833,"x_min":111,"x_max":778,"o":"m 361 0 l 111 0 l 111 986 l 778 986 l 778 767 l 361 767 l 361 0 z "},"Ѓ":{"ha":833,"x_min":111,"x_max":778,"o":"m 361 0 l 111 0 l 111 986 l 778 986 l 778 767 l 361 767 l 361 0 z m 550 1051 l 342 1051 l 425 1274 l 675 1274 l 550 1051 z "},"Ґ":{"ha":833,"x_min":111,"x_max":778,"o":"m 361 0 l 111 0 l 111 986 l 631 986 l 528 861 l 528 1201 l 778 1201 l 778 767 l 361 767 l 361 0 z "},"Ғ":{"ha":833,"x_min":28,"x_max":778,"o":"m 653 371 l 28 371 l 28 565 l 653 565 l 653 371 z m 361 0 l 111 0 l 111 986 l 778 986 l 778 767 l 361 767 l 361 0 z "},"Д":{"ha":833,"x_min":14,"x_max":819,"o":"m 264 -208 l 14 -208 l 14 219 l 81 219 q 128 293 106 244 q 156 400 150 342 l 156 400 l 219 986 l 750 986 l 750 219 l 819 219 l 819 -208 l 569 -208 l 569 0 l 264 0 l 264 -208 z m 332 219 l 332 219 l 500 219 l 500 768 l 428 768 l 388 386 q 368 287 382 324 q 332 219 354 250 z "},"Е":{"ha":833,"x_min":111,"x_max":750,"o":"m 750 0 l 111 0 l 111 986 l 739 986 l 739 767 l 361 767 l 361 601 l 722 601 l 722 388 l 361 388 l 361 219 l 750 219 l 750 0 z "},"Ѐ":{"ha":833,"x_min":111,"x_max":750,"o":"m 750 0 l 111 0 l 111 986 l 739 986 l 739 767 l 361 767 l 361 601 l 722 601 l 722 388 l 361 388 l 361 219 l 750 219 l 750 0 z m 539 1051 l 331 1051 l 206 1274 l 456 1274 l 539 1051 z "},"Ё":{"ha":833,"x_min":111,"x_max":750,"o":"m 750 0 l 111 0 l 111 986 l 739 986 l 739 767 l 361 767 l 361 601 l 722 601 l 722 388 l 361 388 l 361 219 l 750 219 l 750 0 z m 385 1063 l 135 1063 l 135 1251 l 385 1251 l 385 1063 z m 721 1063 l 471 1063 l 471 1251 l 721 1251 l 721 1063 z "},"Ж":{"ha":833,"x_min":6,"x_max":828,"o":"m 828 0 l 606 0 l 519 493 l 600 986 l 822 986 l 719 493 l 828 0 z m 522 0 l 311 0 l 311 986 l 522 986 l 522 0 z m 314 493 l 228 0 l 6 0 l 114 493 l 11 986 l 233 986 l 314 493 z "},"З":{"ha":833,"x_min":42,"x_max":792,"o":"m 411 -22 l 411 -22 q 217 19 297 -22 q 92 135 136 60 q 42 313 47 211 l 42 313 l 289 319 q 308 249 293 278 q 350 206 324 221 q 414 192 376 192 l 414 192 q 506 221 471 192 q 542 308 542 250 l 542 308 q 510 390 542 367 q 433 414 478 414 l 433 414 l 321 414 l 321 594 l 433 594 q 511 616 483 594 q 539 686 539 638 l 539 686 q 508 764 539 733 q 410 794 476 794 l 410 794 q 319 765 350 794 q 285 681 289 736 l 285 681 l 42 693 q 93 858 51 788 q 215 969 135 929 q 417 1008 294 1008 l 417 1008 q 632 968 550 1008 q 751 863 714 928 q 789 725 789 799 l 789 725 q 752 603 789 654 q 653 526 715 553 q 514 500 590 500 l 514 500 l 514 519 q 653 496 590 519 q 754 422 717 472 q 792 289 792 371 l 792 289 q 743 127 792 197 q 608 17 694 57 q 411 -22 522 -22 z "}}}
